{
.appVersion = "1075";
copyright = "Copyright \\(c\\) 2010 by Ryoichi Tsunekawa. All rights reserved.";
customParameters = (
{
name = description;
value = "Copyright (c) 2010 by Ryoichi Tsunekawa. All rights reserved.";
},
{
name = license;
value = "____________________________________________________________________________________________________\012    _____     _     _    __      ____      _   _     __        ______    _     _    ____      _____ \012    /    )    /    /     / |     /    )    /  /|     / |         /       |    /     /    )    /    '\012---/----/----/___ /-----/__|----/___ /----/| /-|----/__|--------/--------|---/-----/____/----/__----\012  /    /    /    /     /   |   /    |    / |/  |   /   |       /         |  /     /         /       \012_/____/____/____/_____/____|__/_____|___/__/___|__/____|______/__________|_/_____/_________/____ ___\012                                                                          /                         \012                                                                      (_ /     DHARMA TYPE FREE FONTs\012\012\012This Font Software is licensed under the SIL Open Font License, Version 1.1\012\012FAQ\012\012Q_ Can I use this for a commercial product?\012A_ Yes\012\012Q_ Can I use this on a web page via css @font-face?\012A_ Yes\012\012Q_ Can I donate $ to you?\012A_ Yes, You can! ( Paypal: info@dharmatype.com )\012\012\012\012Contact_______________________________\012\012info@dharmatype.com\012\012Dharma Type (http://dharmatype.com)\012  |\012  |___ Flat it type foundry\012  |\012  |___ Prop-a-ganda\012  |\012  |___ Holiday Type\012______________________________________";
},
{
name = licenseURL;
value = "http://dharmatype.com";
},
{
name = vendorID;
value = DHRM;
},
{
name = panose;
value = (
2,
11,
6,
6,
2,
2,
2,
5,
2,
1
);
},
{
name = unicodeRanges;
value = (
0,
1,
2,
3,
5,
29,
31,
32,
33,
35,
38
);
},
{
name = codePageRanges;
value = (
1252,
1250,
1254,
1257
);
},
{
name = glyphOrder;
value = (

glyphs = (
{
glyphname = .notdef;
lastChange = "2016-06-17 01:02:07 +0000";
layers = (
{
layerId = "26058A5B-27B8-4A86-A50F-6474302A7C9F";
paths = (
{
closed = 1;
nodes = (
"368 317 OFFCURVE",
"381 345 OFFCURVE",
"387 345 CURVE SMOOTH",
"389 345 OFFCURVE",
"397 341 OFFCURVE",
"404 341 CURVE SMOOTH",
"427 341 OFFCURVE",
"442 365 OFFCURVE",
"442 387 CURVE SMOOTH",
"442 394 OFFCURVE",
"441 399 OFFCURVE",
"438 404 CURVE",
"451 403 OFFCURVE",
"454 382 OFFCURVE",
"454 370 CURVE SMOOTH",
"454 346 LINE SMOOTH",
"454 342 OFFCURVE",
"456 339 OFFCURVE",
"460 339 CURVE SMOOTH",
"483 339 OFFCURVE",
"503 317 OFFCURVE",
"504 297 CURVE",
"495 309 OFFCURVE",
"444 317 OFFCURVE",
"377 317 CURVE SMOOTH",
"368 317 OFFCURVE",
"357 313 OFFCURVE",
"347 313 CURVE SMOOTH",
"337 313 OFFCURVE",
"333 314 OFFCURVE",
"323 314 CURVE SMOOTH",
"274 314 OFFCURVE",
"212 300 OFFCURVE",
"212 287 CURVE SMOOTH",
"212 278 OFFCURVE",
"234 275 OFFCURVE",
"240 275 CURVE SMOOTH",
"247 275 OFFCURVE",
"255 271 OFFCURVE",
"264 271 CURVE SMOOTH",
"284 271 OFFCURVE",
"316 283 OFFCURVE",
"355 283 CURVE SMOOTH",
"433 283 OFFCURVE",
"427 276 OFFCURVE",
"465 276 CURVE SMOOTH",
"476 276 OFFCURVE",
"487 285 OFFCURVE",
"491 285 CURVE SMOOTH",
"493 285 OFFCURVE",
"503 287 OFFCURVE",
"506 291 CURVE",
"504 266 OFFCURVE",
"501 264 OFFCURVE",
"490 257 CURVE",
"488 256 OFFCURVE",
"488 254 OFFCURVE",
"488 254 CURVE",
"488 253 OFFCURVE",
"490 252 OFFCURVE",
"491 252 CURVE SMOOTH",
"495 252 OFFCURVE",
"503 258 OFFCURVE",
"504 260 CURVE",
"498 215 OFFCURVE",
"479 176 OFFCURVE",
"442 143 CURVE",
"515 143 LINE",
"525 197 OFFCURVE",
"540 275 OFFCURVE",
"540 353 CURVE SMOOTH",
"540 481 OFFCURVE",
"503 607 OFFCURVE",
"350 607 CURVE SMOOTH",
"212 607 OFFCURVE",
"174 491 OFFCURVE",
"174 369 CURVE SMOOTH",
"174 283 OFFCURVE",
"194 192 OFFCURVE",
"209 143 CURVE",
"264 143 LINE",
"240 168 OFFCURVE",
"224 206 OFFCURVE",
"216 247 CURVE",
"217 246 OFFCURVE",
"224 242 OFFCURVE",
"228 242 CURVE SMOOTH",
"230 242 OFFCURVE",
"231 243 OFFCURVE",
"231 246 CURVE",
"231 246 OFFCURVE",
"209 271 OFFCURVE",
"209 280 CURVE SMOOTH",
"209 295 OFFCURVE",
"209 309 OFFCURVE",
"228 320 CURVE",
"258 342 OFFCURVE",
"251 380 OFFCURVE",
"269 398 CURVE",
"264 390 OFFCURVE",
"261 375 OFFCURVE",
"261 363 CURVE SMOOTH",
"261 352 OFFCURVE",
"271 338 OFFCURVE",
"282 338 CURVE SMOOTH",
"293 338 OFFCURVE",
"300 342 OFFCURVE",
"307 342 CURVE SMOOTH",
"316 342 OFFCURVE",
"324 317 OFFCURVE",
"345 317 CURVE SMOOTH"
);
},
{
closed = 1;
nodes = (
"733 291 LINE",
"695 370 OFFCURVE",
"617 430 OFFCURVE",
"593 435 CURVE",
"574 579 OFFCURVE",
"523 714 OFFCURVE",
"336 714 CURVE SMOOTH",
"190 714 OFFCURVE",
"119 562 OFFCURVE",
"113 427 CURVE",
"92 404 OFFCURVE",
"25 352 OFFCURVE",
"0 291 CURVE",
"0 143 LINE",
"24 183 OFFCURVE",
"81 306 OFFCURVE",
"119 327 CURVE",
"119 263 OFFCURVE",
"121 203 OFFCURVE",
"138 143 CURVE",
"185 143 LINE",
"170 188 OFFCURVE",
"156 268 OFFCURVE",
"156 353 CURVE SMOOTH",
"156 502 OFFCURVE",
"198 661 OFFCURVE",
"346 661 CURVE SMOOTH",
"520 661 OFFCURVE",
"559 497 OFFCURVE",
"559 342 CURVE SMOOTH",
"559 266 OFFCURVE",
"551 195 OFFCURVE",
"543 143 CURVE",
"585 143 LINE",
"593 187 OFFCURVE",
"600 223 OFFCURVE",
"600 271 CURVE SMOOTH",
"600 291 OFFCURVE",
"598 306 OFFCURVE",
"597 320 CURVE",
"626 320 OFFCURVE",
"708 198 OFFCURVE",
"733 143 CURVE"
);
},
{
closed = 1;
nodes = (
"330 493 OFFCURVE",
"312 486 OFFCURVE",
"296 486 CURVE SMOOTH",
"264 486 OFFCURVE",
"248 502 OFFCURVE",
"247 502 CURVE SMOOTH",
"246 502 OFFCURVE",
"244 501 OFFCURVE",
"244 498 CURVE SMOOTH",
"244 497 OFFCURVE",
"247 493 OFFCURVE",
"250 491 CURVE",
"247 476 OFFCURVE",
"226 461 OFFCURVE",
"209 452 CURVE",
"225 517 OFFCURVE",
"274 570 OFFCURVE",
"351 570 CURVE SMOOTH",
"434 570 OFFCURVE",
"472 539 OFFCURVE",
"490 490 CURVE",
"472 497 OFFCURVE",
"450 501 OFFCURVE",
"438 501 CURVE",
"439 502 OFFCURVE",
"446 507 OFFCURVE",
"446 509 CURVE SMOOTH",
"446 510 OFFCURVE",
"444 511 OFFCURVE",
"442 511 CURVE SMOOTH",
"439 511 OFFCURVE",
"423 494 OFFCURVE",
"387 494 CURVE SMOOTH",
"359 494 OFFCURVE",
"347 511 OFFCURVE",
"344 511 CURVE SMOOTH",
"343 511 OFFCURVE",
"342 510 OFFCURVE",
"342 509 CURVE SMOOTH",
"342 507 OFFCURVE",
"344 504 OFFCURVE",
"345 503 CURVE"
);
},
{
closed = 1;
nodes = (
"371 416 LINE SMOOTH",
"371 411 OFFCURVE",
"372 403 OFFCURVE",
"378 403 CURVE SMOOTH",
"387 403 OFFCURVE",
"391 416 OFFCURVE",
"404 416 CURVE SMOOTH",
"419 416 OFFCURVE",
"426 402 OFFCURVE",
"426 390 CURVE SMOOTH",
"426 373 OFFCURVE",
"414 355 OFFCURVE",
"400 355 CURVE SMOOTH",
"395 355 OFFCURVE",
"387 362 OFFCURVE",
"381 362 CURVE SMOOTH",
"374 362 OFFCURVE",
"368 341 OFFCURVE",
"344 341 CURVE SMOOTH",
"326 341 OFFCURVE",
"318 368 OFFCURVE",
"312 368 CURVE SMOOTH",
"305 368 OFFCURVE",
"304 355 OFFCURVE",
"285 355 CURVE",
"278 356 OFFCURVE",
"274 362 OFFCURVE",
"274 369 CURVE SMOOTH",
"274 387 OFFCURVE",
"285 404 OFFCURVE",
"303 404 CURVE SMOOTH",
"312 404 OFFCURVE",
"318 398 OFFCURVE",
"324 398 CURVE SMOOTH",
"335 398 OFFCURVE",
"339 476 OFFCURVE",
"357 476 CURVE SMOOTH",
"364 476 OFFCURVE",
"371 441 OFFCURVE",
"371 430 CURVE SMOOTH"
);
},
{
closed = 1;
nodes = (
"508 371 OFFCURVE",
"510 346 OFFCURVE",
"510 318 CURVE",
"499 348 OFFCURVE",
"468 352 OFFCURVE",
"468 360 CURVE SMOOTH",
"468 374 OFFCURVE",
"464 411 OFFCURVE",
"434 411 CURVE",
"426 420 OFFCURVE",
"416 425 OFFCURVE",
"403 425 CURVE SMOOTH",
"399 425 OFFCURVE",
"395 425 OFFCURVE",
"388 423 CURVE",
"381 423 OFFCURVE",
"383 458 OFFCURVE",
"368 480 CURVE",
"372 478 OFFCURVE",
"378 477 OFFCURVE",
"383 476 CURVE",
"383 473 OFFCURVE",
"381 469 OFFCURVE",
"381 467 CURVE SMOOTH",
"381 444 OFFCURVE",
"406 425 OFFCURVE",
"434 425 CURVE SMOOTH",
"461 425 OFFCURVE",
"493 437 OFFCURVE",
"493 468 CURVE",
"498 465 LINE",
"503 446 OFFCURVE",
"504 420 OFFCURVE",
"507 397 CURVE"
);
},
{
closed = 1;
nodes = (
"423 310 OFFCURVE",
"485 300 OFFCURVE",
"485 293 CURVE SMOOTH",
"485 291 OFFCURVE",
"475 284 OFFCURVE",
"465 284 CURVE SMOOTH",
"435 284 OFFCURVE",
"391 291 OFFCURVE",
"355 291 CURVE SMOOTH",
"323 291 OFFCURVE",
"302 278 OFFCURVE",
"257 278 CURVE SMOOTH",
"251 278 OFFCURVE",
"237 278 OFFCURVE",
"237 288 CURVE SMOOTH",
"237 293 OFFCURVE",
"289 309 OFFCURVE",
"322 309 CURVE SMOOTH",
"329 309 OFFCURVE",
"337 306 OFFCURVE",
"346 306 CURVE SMOOTH",
"357 306 OFFCURVE",
"381 310 OFFCURVE",
"383 310 CURVE SMOOTH"
);
},
{
closed = 1;
nodes = (
"303 413 OFFCURVE",
"328 444 OFFCURVE",
"329 474 CURVE",
"342 478 LINE",
"318 449 OFFCURVE",
"320 417 OFFCURVE",
"308 417 CURVE SMOOTH",
"300 417 OFFCURVE",
"292 415 OFFCURVE",
"285 412 CURVE",
"261 409 OFFCURVE",
"250 394 OFFCURVE",
"247 371 CURVE SMOOTH",
"243 345 OFFCURVE",
"219 339 OFFCURVE",
"205 318 CURVE",
"202 346 OFFCURVE",
"202 370 OFFCURVE",
"202 396 CURVE SMOOTH",
"202 409 OFFCURVE",
"202 423 OFFCURVE",
"206 439 CURVE",
"210 440 OFFCURVE",
"216 441 OFFCURVE",
"221 444 CURVE",
"223 430 OFFCURVE",
"241 413 OFFCURVE",
"267 413 CURVE SMOOTH"
);
},
{
closed = 1;
nodes = (
"431 465 OFFCURVE",
"436 477 OFFCURVE",
"438 486 CURVE",
"454 486 OFFCURVE",
"481 480 OFFCURVE",
"481 469 CURVE SMOOTH",
"481 451 OFFCURVE",
"454 439 OFFCURVE",
"437 439 CURVE SMOOTH",
"418 439 OFFCURVE",
"391 448 OFFCURVE",
"391 463 CURVE SMOOTH",
"391 467 OFFCURVE",
"395 478 OFFCURVE",
"403 478 CURVE",
"404 473 OFFCURVE",
"408 465 OFFCURVE",
"419 465 CURVE SMOOTH"
);
},
{
closed = 1;
nodes = (
"252 427 OFFCURVE",
"237 435 OFFCURVE",
"234 451 CURVE",
"241 455 OFFCURVE",
"247 458 OFFCURVE",
"252 463 CURVE",
"257 458 OFFCURVE",
"262 458 OFFCURVE",
"267 458 CURVE SMOOTH",
"274 458 OFFCURVE",
"282 463 OFFCURVE",
"285 472 CURVE",
"292 471 OFFCURVE",
"297 471 OFFCURVE",
"303 471 CURVE SMOOTH",
"312 471 LINE",
"313 468 OFFCURVE",
"313 465 OFFCURVE",
"313 462 CURVE SMOOTH",
"313 444 OFFCURVE",
"285 427 OFFCURVE",
"267 427 CURVE SMOOTH"
);
},
{
closed = 1;
nodes = (
"300 295 OFFCURVE",
"336 297 OFFCURVE",
"373 297 CURVE SMOOTH",
"403 297 OFFCURVE",
"433 296 OFFCURVE",
"461 292 CURVE",
"462 292 OFFCURVE",
"464 293 OFFCURVE",
"464 295 CURVE SMOOTH",
"464 301 OFFCURVE",
"391 303 OFFCURVE",
"371 303 CURVE SMOOTH",
"347 303 OFFCURVE",
"264 300 OFFCURVE",
"264 291 CURVE SMOOTH",
"264 289 OFFCURVE",
"265 288 OFFCURVE",
"266 288 CURVE"
);
},
{
closed = 1;
nodes = (
"305 259 OFFCURVE",
"307 258 OFFCURVE",
"309 258 CURVE SMOOTH",
"315 258 OFFCURVE",
"323 264 OFFCURVE",
"331 264 CURVE SMOOTH",
"342 264 OFFCURVE",
"358 265 OFFCURVE",
"377 265 CURVE SMOOTH",
"385 265 OFFCURVE",
"389 261 OFFCURVE",
"397 261 CURVE SMOOTH",
"399 261 OFFCURVE",
"399 262 OFFCURVE",
"399 264 CURVE SMOOTH",
"399 272 OFFCURVE",
"369 272 OFFCURVE",
"368 272 CURVE SMOOTH",
"355 272 OFFCURVE",
"305 271 OFFCURVE",
"305 262 CURVE SMOOTH"
);
},
{
closed = 1;
nodes = (
"413 473 OFFCURVE",
"410 475 OFFCURVE",
"410 480 CURVE",
"415 482 OFFCURVE",
"421 486 OFFCURVE",
"426 486 CURVE",
"426 486 OFFCURVE",
"426 484 OFFCURVE",
"426 483 CURVE SMOOTH",
"426 477 OFFCURVE",
"422 473 OFFCURVE",
"417 473 CURVE SMOOTH"
);
},
{
closed = 1;
nodes = (
"263 466 OFFCURVE",
"260 467 OFFCURVE",
"259 469 CURVE",
"263 473 OFFCURVE",
"265 477 OFFCURVE",
"265 479 CURVE",
"269 477 OFFCURVE",
"272 476 OFFCURVE",
"276 475 CURVE",
"274 469 OFFCURVE",
"270 466 OFFCURVE",
"266 466 CURVE SMOOTH"
);
},
{
closed = 1;
nodes = (
"323 34 LINE",
"337 34 LINE",
"352 82 LINE",
"344 0 LINE",
"365 0 LINE",
"378 125 LINE",
"352 125 LINE",
"333 65 LINE",
"328 125 LINE",
"303 125 LINE",
"289 0 LINE",
"310 0 LINE",
"318 82 LINE"
);
},
{
closed = 1;
nodes = (
"74 104 LINE",
"75 118 OFFCURVE",
"68 125 OFFCURVE",
"56 125 CURVE SMOOTH",
"19 125 LINE",
"7 0 LINE",
"44 0 LINE SMOOTH",
"56 0 OFFCURVE",
"64 7 OFFCURVE",
"65 22 CURVE"
);
},
{
closed = 1;
nodes = (
"286 104 LINE SMOOTH",
"287 118 OFFCURVE",
"280 125 OFFCURVE",
"268 125 CURVE SMOOTH",
"231 125 LINE",
"218 0 LINE",
"241 0 LINE",
"244 23 LINE",
"250 23 LINE",
"257 0 LINE",
"278 0 LINE",
"270 27 LINE",
"275 30 OFFCURVE",
"279 36 OFFCURVE",
"280 44 CURVE SMOOTH"
);
},
{
closed = 1;
nodes = (
"182 0 LINE",
"205 0 LINE",
"216 104 LINE SMOOTH",
"217 118 OFFCURVE",
"210 125 OFFCURVE",
"198 125 CURVE SMOOTH",
"181 125 LINE SMOOTH",
"169 125 OFFCURVE",
"160 118 OFFCURVE",
"159 104 CURVE SMOOTH",
"148 0 LINE",
"169 0 LINE",
"172 23 LINE",
"186 23 LINE"
);
},
{
closed = 1;
nodes = (
"414 0 LINE",
"435 0 LINE",
"448 104 LINE",
"449 118 OFFCURVE",
"440 125 OFFCURVE",
"428 125 CURVE SMOOTH",
"413 125 LINE SMOOTH",
"401 125 OFFCURVE",
"390 118 OFFCURVE",
"389 104 CURVE SMOOTH",
"378 0 LINE",
"401 0 LINE",
"404 23 LINE",
"417 23 LINE"
);
},
{
closed = 1;
nodes = (
"590 0 LINE",
"613 0 LINE",
"616 23 LINE",
"630 23 LINE SMOOTH",
"642 23 OFFCURVE",
"653 30 OFFCURVE",
"654 44 CURVE SMOOTH",
"660 104 LINE SMOOTH",
"661 118 OFFCURVE",
"654 125 OFFCURVE",
"640 125 CURVE SMOOTH",
"605 125 LINE"
);
},
{
closed = 1;
nodes = (
"112 0 LINE",
"134 0 LINE",
"148 125 LINE",
"125 125 LINE",
"116 42 LINE",
"103 42 LINE",
"112 125 LINE",
"91 125 LINE",
"76 0 LINE",
"99 0 LINE",
"102 23 LINE",
"115 23 LINE"
);
},
{
closed = 1;
nodes = (
"533 125 LINE",
"525 44 LINE SMOOTH",
"524 31 OFFCURVE",
"530 24 OFFCURVE",
"540 23 CURVE",
"531 0 LINE",
"554 0 LINE",
"563 23 LINE",
"573 24 OFFCURVE",
"581 31 OFFCURVE",
"582 44 CURVE SMOOTH",
"590 125 LINE",
"569 125 LINE",
"561 46 LINE",
"561 43 OFFCURVE",
"559 42 OFFCURVE",
"556 42 CURVE SMOOTH",
"551 42 LINE SMOOTH",
"547 42 OFFCURVE",
"547 43 OFFCURVE",
"547 46 CURVE",
"556 125 LINE"
);
},
{
closed = 1;
nodes = (
"509 106 LINE",
"522 106 LINE",
"524 125 LINE",
"475 125 LINE",
"473 106 LINE",
"486 106 LINE",
"475 0 LINE",
"498 0 LINE"
);
},
{
closed = 1;
nodes = (
"44 22 LINE",
"44 20 OFFCURVE",
"43 18 OFFCURVE",
"41 18 CURVE SMOOTH",
"30 18 LINE",
"40 106 LINE",
"49 106 LINE SMOOTH",
"52 106 OFFCURVE",
"53 105 OFFCURVE",
"52 102 CURVE"
);
},
{
closed = 1;
nodes = (
"631 46 LINE",
"631 43 OFFCURVE",
"629 42 OFFCURVE",
"626 42 CURVE SMOOTH",
"617 42 LINE",
"624 106 LINE",
"633 106 LINE SMOOTH",
"636 106 OFFCURVE",
"637 105 OFFCURVE",
"636 102 CURVE"
);
},
{
closed = 1;
nodes = (
"173 42 LINE",
"179 102 LINE",
"179 105 OFFCURVE",
"181 106 OFFCURVE",
"185 106 CURVE SMOOTH",
"191 106 LINE SMOOTH",
"194 106 OFFCURVE",
"194 105 OFFCURVE",
"194 102 CURVE",
"187 42 LINE"
);
},
{
closed = 1;
nodes = (
"259 46 LINE",
"259 43 OFFCURVE",
"257 42 OFFCURVE",
"254 42 CURVE SMOOTH",
"245 42 LINE",
"252 106 LINE",
"261 106 LINE SMOOTH",
"264 106 OFFCURVE",
"264 105 OFFCURVE",
"264 102 CURVE"
);
},
{
closed = 1;
nodes = (
"405 42 LINE",
"411 102 LINE",
"411 105 OFFCURVE",
"413 106 OFFCURVE",
"416 106 CURVE SMOOTH",
"421 106 LINE SMOOTH",
"424 106 OFFCURVE",
"424 105 OFFCURVE",
"424 102 CURVE",
"418 42 LINE"
);
},
{
closed = 1;
nodes = (
"711 57 LINE",
"689 57 LINE",
"694 106 LINE",
"722 106 LINE",
"724 125 LINE",
"675 125 LINE",
"662 0 LINE",
"711 0 LINE",
"713 18 LINE",
"685 18 LINE",
"687 39 LINE",
"709 39 LINE"
);
}
);
width = 733;
}
);
note = .notdef;
},
{
glyphname = exclam;
lastChange = "2016-06-17 01:02:07 +0000";
layers = (
{
layerId = "26058A5B-27B8-4A86-A50F-6474302A7C9F";
paths = (
{
closed = 1;
nodes = (
"136 155 LINE",
"150 408 LINE",
"150 700 LINE",
"40 700 LINE",
"40 408 LINE",
"54 155 LINE"
);
},
{
closed = 1;
nodes = (
"42 106 LINE",
"42 0 LINE",
"148 0 LINE",
"148 106 LINE"
);
}
);
width = 190;
}
);
note = exclam;
unicode = 0021;
},
{
glyphname = quotedbl;
lastChange = "2016-06-17 01:02:07 +0000";
layers = (
{
layerId = "26058A5B-27B8-4A86-A50F-6474302A7C9F";
paths = (
{
closed = 1;
nodes = (
"55 494 LINE",
"130 494 LINE",
"146 700 LINE",
"40 700 LINE"
);
},
{
closed = 1;
nodes = (
"194 494 LINE",
"269 494 LINE",
"285 700 LINE",
"179 700 LINE"
);
}
);
width = 325;
}
);
note = quotedbl;
unicode = 0022;
},
{
glyphname = numbersign;
lastChange = "2016-06-17 01:02:07 +0000";
layers = (
{
layerId = "26058A5B-27B8-4A86-A50F-6474302A7C9F";
paths = (
{
closed = 1;
nodes = (
"198 0 LINE",
"288 0 LINE",
"309 200 LINE",
"360 200 LINE",
"368 278 LINE",
"317 278 LINE",
"336 461 LINE",
"387 461 LINE",
"395 539 LINE",
"344 539 LINE",
"361 700 LINE",
"271 700 LINE",
"254 539 LINE",
"189 539 LINE",
"206 700 LINE",
"116 700 LINE",
"99 539 LINE",
"49 539 LINE",
"41 461 LINE",
"91 461 LINE",
"72 278 LINE",
"23 278 LINE",
"15 200 LINE",
"64 200 LINE",
"43 0 LINE",
"133 0 LINE",
"154 200 LINE",
"219 200 LINE"
);
},
{
closed = 1;
nodes = (
"181 461 LINE",
"246 461 LINE",
"227 278 LINE",
"162 278 LINE"
);
}
);
width = 410;
}
);
note = numbersign;
unicode = 0023;
},
{
glyphname = dollar;
lastChange = "2016-06-17 01:02:07 +0000";
layers = (
{
layerId = "26058A5B-27B8-4A86-A50F-6474302A7C9F";
paths = (
{
closed = 1;
nodes = (
"37 442 OFFCURVE",
"68 386 OFFCURVE",
"158 315 CURVE SMOOTH",
"232 257 OFFCURVE",
"252 221 OFFCURVE",
"252 171 CURVE SMOOTH",
"252 121 OFFCURVE",
"230 103 OFFCURVE",
"195 103 CURVE SMOOTH",
"160 103 OFFCURVE",
"138 121 OFFCURVE",
"138 171 CURVE SMOOTH",
"138 226 LINE",
"34 226 LINE",
"34 178 LINE SMOOTH",
"34 83 OFFCURVE",
"74 22 OFFCURVE",
"153 6 CURVE",
"153 -45 LINE",
"243 -45 LINE",
"243 6 LINE",
"321 22 OFFCURVE",
"362 83 OFFCURVE",
"362 178 CURVE SMOOTH",
"362 258 OFFCURVE",
"331 313 OFFCURVE",
"241 385 CURVE SMOOTH",
"167 444 OFFCURVE",
"147 479 OFFCURVE",
"147 529 CURVE SMOOTH",
"147 579 OFFCURVE",
"167 598 OFFCURVE",
"202 598 CURVE SMOOTH",
"237 598 OFFCURVE",
"257 579 OFFCURVE",
"257 529 CURVE SMOOTH",
"257 500 LINE",
"361 500 LINE",
"361 522 LINE SMOOTH",
"361 617 OFFCURVE",
"321 677 OFFCURVE",
"243 693 CURVE",
"243 745 LINE",
"153 745 LINE",
"153 693 LINE",
"76 676 OFFCURVE",
"37 616 OFFCURVE",
"37 522 CURVE SMOOTH"
);
}
);
width = 396;
}
);
note = dollar;
unicode = 0024;
},
{
glyphname = percent;
lastChange = "2016-06-17 01:02:07 +0000";
layers = (
{
layerId = "26058A5B-27B8-4A86-A50F-6474302A7C9F";
paths = (
{
closed = 1;
nodes = (
"104 598 LINE SMOOTH",
"104 629 OFFCURVE",
"117 642 OFFCURVE",
"140 642 CURVE SMOOTH",
"162 642 OFFCURVE",
"176 629 OFFCURVE",
"176 598 CURVE SMOOTH",
"176 358 LINE SMOOTH",
"176 327 OFFCURVE",
"162 314 OFFCURVE",
"140 314 CURVE SMOOTH",
"117 314 OFFCURVE",
"104 327 OFFCURVE",
"104 358 CURVE SMOOTH"
);
},
{
closed = 1;
nodes = (
"34 363 LINE SMOOTH",
"34 291 OFFCURVE",
"71 251 OFFCURVE",
"140 251 CURVE SMOOTH",
"209 251 OFFCURVE",
"246 291 OFFCURVE",
"246 363 CURVE SMOOTH",
"246 593 LINE SMOOTH",
"246 665 OFFCURVE",
"209 705 OFFCURVE",
"140 705 CURVE SMOOTH",
"71 705 OFFCURVE",
"34 665 OFFCURVE",
"34 593 CURVE SMOOTH"
);
},
{
closed = 1;
nodes = (
"140 0 LINE",
"205 0 LINE",
"481 700 LINE",
"416 700 LINE"
);
},
{
closed = 1;
nodes = (
"451 342 LINE SMOOTH",
"451 373 OFFCURVE",
"464 386 OFFCURVE",
"487 386 CURVE SMOOTH",
"509 386 OFFCURVE",
"523 373 OFFCURVE",
"523 342 CURVE SMOOTH",
"523 102 LINE SMOOTH",
"523 71 OFFCURVE",
"509 58 OFFCURVE",
"487 58 CURVE SMOOTH",
"464 58 OFFCURVE",
"451 71 OFFCURVE",
"451 102 CURVE SMOOTH"
);
},
{
closed = 1;
nodes = (
"381 107 LINE SMOOTH",
"381 35 OFFCURVE",
"418 -5 OFFCURVE",
"487 -5 CURVE SMOOTH",
"556 -5 OFFCURVE",
"593 35 OFFCURVE",
"593 107 CURVE SMOOTH",
"593 337 LINE SMOOTH",
"593 409 OFFCURVE",
"556 449 OFFCURVE",
"487 449 CURVE SMOOTH",
"418 449 OFFCURVE",
"381 409 OFFCURVE",
"381 337 CURVE SMOOTH"
);
}
);
width = 627;
}
);
note = percent;
unicode = 0025;
},
{
glyphname = ampersand;
lastChange = "2016-06-17 01:02:07 +0000";
layers = (
{
layerId = "26058A5B-27B8-4A86-A50F-6474302A7C9F";
paths = (
{
closed = 1;
nodes = (
"41 152 LINE SMOOTH",
"41 49 OFFCURVE",
"82 -8 OFFCURVE",
"163 -8 CURVE SMOOTH",
"212 -8 OFFCURVE",
"244 14 OFFCURVE",
"263 55 CURVE",
"265 55 LINE",
"267 24 OFFCURVE",
"270 14 OFFCURVE",
"275 0 CURVE",
"387 0 LINE",
"376 26 OFFCURVE",
"375 51 OFFCURVE",
"375 85 CURVE SMOOTH",
"375 315 LINE",
"404 315 LINE",
"404 415 LINE",
"375 415 LINE",
"375 493 LINE",
"265 493 LINE",
"265 415 LINE",
"217 415 LINE SMOOTH",
"176 415 OFFCURVE",
"151 433 OFFCURVE",
"151 489 CURVE SMOOTH",
"151 532 LINE SMOOTH",
"151 582 OFFCURVE",
"172 600 OFFCURVE",
"207 600 CURVE SMOOTH",
"331 600 LINE",
"331 700 LINE",
"205 700 LINE SMOOTH",
"95 700 OFFCURVE",
"41 639 OFFCURVE",
"41 527 CURVE SMOOTH",
"41 514 LINE SMOOTH",
"41 439 OFFCURVE",
"65 393 OFFCURVE",
"117 371 CURVE",
"117 369 LINE",
"63 345 OFFCURVE",
"41 294 OFFCURVE",
"41 223 CURVE SMOOTH"
);
},
{
closed = 1;
nodes = (
"151 226 LINE SMOOTH",
"151 291 OFFCURVE",
"173 315 OFFCURVE",
"223 315 CURVE SMOOTH",
"265 315 LINE",
"265 153 LINE",
"263 109 OFFCURVE",
"241 92 OFFCURVE",
"208 92 CURVE SMOOTH",
"173 92 OFFCURVE",
"151 111 OFFCURVE",
"151 161 CURVE SMOOTH"
);
}
);
width = 414;
}
);
note = ampersand;
unicode = 0026;
},
{
glyphname = quotesingle;
lastChange = "2016-06-17 01:02:07 +0000";
layers = (
{
layerId = "26058A5B-27B8-4A86-A50F-6474302A7C9F";
paths = (
{
closed = 1;
nodes = (
"52 494 LINE",
"127 494 LINE",
"143 700 LINE",
"37 700 LINE"
);
}
);
width = 180;
}
);
note = quotesingle;
unicode = 0027;
},
{
glyphname = parenleft;
lastChange = "2016-06-17 01:02:07 +0000";
layers = (
{
layerId = "26058A5B-27B8-4A86-A50F-6474302A7C9F";
paths = (
{
closed = 1;
nodes = (
"201 700 LINE SMOOTH",
"91 700 OFFCURVE",
"47 659 OFFCURVE",
"47 547 CURVE SMOOTH",
"47 153 LINE SMOOTH",
"47 41 OFFCURVE",
"91 0 OFFCURVE",
"201 0 CURVE SMOOTH",
"235 0 LINE",
"235 90 LINE",
"208 90 LINE SMOOTH",
"173 90 OFFCURVE",
"157 103 OFFCURVE",
"157 153 CURVE SMOOTH",
"157 547 LINE SMOOTH",
"157 597 OFFCURVE",
"173 610 OFFCURVE",
"208 610 CURVE SMOOTH",
"235 610 LINE",
"235 700 LINE"
);
}
);
width = 251;
}
);
note = parenleft;
unicode = 0028;
},
{
glyphname = parenright;
lastChange = "2016-06-17 01:02:07 +0000";
layers = (
{
layerId = "26058A5B-27B8-4A86-A50F-6474302A7C9F";
paths = (
{
closed = 1;
nodes = (
"16 700 LINE",
"16 610 LINE",
"43 610 LINE SMOOTH",
"78 610 OFFCURVE",
"94 597 OFFCURVE",
"94 547 CURVE SMOOTH",
"94 153 LINE SMOOTH",
"94 103 OFFCURVE",
"78 90 OFFCURVE",
"43 90 CURVE SMOOTH",
"16 90 LINE",
"16 0 LINE",
"50 0 LINE SMOOTH",
"160 0 OFFCURVE",
"204 41 OFFCURVE",
"204 153 CURVE SMOOTH",
"204 547 LINE SMOOTH",
"204 659 OFFCURVE",
"160 700 OFFCURVE",
"50 700 CURVE SMOOTH"
);
}
);
width = 251;
}
);
note = parenright;
unicode = 0029;
},
{
glyphname = asterisk;
lastChange = "2016-06-17 01:02:07 +0000";
layers = (
{
layerId = "26058A5B-27B8-4A86-A50F-6474302A7C9F";
paths = (
{
closed = 1;
nodes = (
"30 610 LINE",
"2 525 LINE",
"166 497 LINE",
"49 380 LINE",
"121 327 LINE",
"198 475 LINE",
"275 327 LINE",
"347 380 LINE",
"230 497 LINE",
"394 525 LINE",
"366 610 LINE",
"217 535 LINE",
"243 700 LINE",
"153 700 LINE",
"179 535 LINE"
);
}
);
width = 396;
}
);
note = asterisk;
unicode = 002A;
},
{
glyphname = plus;
lastChange = "2016-06-17 01:02:07 +0000";
layers = (
{
layerId = "26058A5B-27B8-4A86-A50F-6474302A7C9F";
paths = (
{
closed = 1;
nodes = (
"237 524 LINE",
"159 524 LINE",
"159 389 LINE",
"25 389 LINE",
"25 311 LINE",
"159 311 LINE",
"159 174 LINE",
"237 174 LINE",
"237 311 LINE",
"371 311 LINE",
"371 389 LINE",
"237 389 LINE"
);
}
);
width = 396;
}
);
note = plus;
unicode = 002B;
},
{
glyphname = comma;
lastChange = "2016-06-17 01:02:07 +0000";
layers = (
{
layerId = "26058A5B-27B8-4A86-A50F-6474302A7C9F";
paths = (
{
closed = 1;
nodes = (
"82 0 LINE",
"53 -100 LINE",
"98 -100 LINE",
"146 11 LINE",
"146 106 LINE",
"40 106 LINE",
"40 0 LINE"
);
}
);
width = 186;
}
);
note = comma;
unicode = 002C;
},
{
glyphname = hyphen;
lastChange = "2016-06-17 01:02:07 +0000";
layers = (
{
layerId = "26058A5B-27B8-4A86-A50F-6474302A7C9F";
paths = (
{
closed = 1;
nodes = (
"35 300 LINE",
"235 300 LINE",
"235 400 LINE",
"35 400 LINE"
);
}
);
width = 270;
}
);
leftKerningGroup = hyphen;
note = hyphen;
rightKerningGroup = hyphen;
unicode = 002D;
},
{
glyphname = period;
lastChange = "2016-06-17 01:02:07 +0000";
layers = (
{
layerId = "26058A5B-27B8-4A86-A50F-6474302A7C9F";
paths = (
{
closed = 1;
nodes = (
"40 106 LINE",
"40 0 LINE",
"146 0 LINE",
"146 106 LINE"
);
}
);
width = 186;
}
);
note = period;
unicode = 002E;
},
{
glyphname = slash;
lastChange = "2016-06-17 01:02:07 +0000";
layers = (
{
layerId = "26058A5B-27B8-4A86-A50F-6474302A7C9F";
paths = (
{
closed = 1;
nodes = (
"5 0 LINE",
"100 0 LINE",
"376 700 LINE",
"281 700 LINE"
);
}
);
width = 381;
}
);
note = slash;
unicode = 002F;
},
{
glyphname = zero;
lastChange = "2016-06-17 01:02:07 +0000";
layers = (
{
layerId = "26058A5B-27B8-4A86-A50F-6474302A7C9F";
paths = (
{
closed = 1;
nodes = (
"141 539 LINE SMOOTH",
"141 589 OFFCURVE",
"163 608 OFFCURVE",
"198 608 CURVE SMOOTH",
"233 608 OFFCURVE",
"255 589 OFFCURVE",
"255 539 CURVE SMOOTH",
"255 161 LINE SMOOTH",
"255 111 OFFCURVE",
"233 92 OFFCURVE",
"198 92 CURVE SMOOTH",
"163 92 OFFCURVE",
"141 111 OFFCURVE",
"141 161 CURVE SMOOTH"
);
},
{
closed = 1;
nodes = (
"31 168 LINE SMOOTH",
"31 56 OFFCURVE",
"90 -8 OFFCURVE",
"198 -8 CURVE SMOOTH",
"306 -8 OFFCURVE",
"365 56 OFFCURVE",
"365 168 CURVE SMOOTH",
"365 532 LINE SMOOTH",
"365 644 OFFCURVE",
"306 708 OFFCURVE",
"198 708 CURVE SMOOTH",
"90 708 OFFCURVE",
"31 644 OFFCURVE",
"31 532 CURVE SMOOTH"
);
}
);
width = 396;
}
);
note = zero;
unicode = 0030;
},
{
glyphname = one;
lastChange = "2016-06-17 01:02:07 +0000";
layers = (
{
layerId = "26058A5B-27B8-4A86-A50F-6474302A7C9F";
paths = (
{
closed = 1;
nodes = (
"108 534 LINE",
"193 534 LINE",
"193 0 LINE",
"303 0 LINE",
"303 700 LINE",
"229 700 LINE",
"212 653 OFFCURVE",
"193 612 OFFCURVE",
"108 612 CURVE"
);
}
);
width = 396;
}
);
note = one;
unicode = 0031;
},
{
glyphname = two;
lastChange = "2016-06-17 01:02:07 +0000";
layers = (
{
layerId = "26058A5B-27B8-4A86-A50F-6474302A7C9F";
paths = (
{
closed = 1;
nodes = (
"258 453 OFFCURVE",
"234 398 OFFCURVE",
"150 309 CURVE SMOOTH",
"68 223 OFFCURVE",
"40 164 OFFCURVE",
"40 86 CURVE SMOOTH",
"40 0 LINE",
"358 0 LINE",
"358 100 LINE",
"150 100 LINE",
"149 105 OFFCURVE",
"149 110 OFFCURVE",
"149 115 CURVE SMOOTH",
"149 152 OFFCURVE",
"167 185 OFFCURVE",
"232 255 CURVE SMOOTH",
"334 364 OFFCURVE",
"368 439 OFFCURVE",
"368 532 CURVE SMOOTH",
"368 644 OFFCURVE",
"312 708 OFFCURVE",
"204 708 CURVE SMOOTH",
"96 708 OFFCURVE",
"40 644 OFFCURVE",
"40 532 CURVE SMOOTH",
"40 464 LINE",
"144 464 LINE",
"144 539 LINE SMOOTH",
"144 589 OFFCURVE",
"166 608 OFFCURVE",
"201 608 CURVE SMOOTH",
"236 608 OFFCURVE",
"258 591 OFFCURVE",
"258 528 CURVE SMOOTH"
);
}
);
width = 396;
}
);
note = two;
unicode = 0032;
},
{
glyphname = three;
lastChange = "2018-02-06 00:08:17 +0000";
layers = (
{
layerId = "26058A5B-27B8-4A86-A50F-6474302A7C9F";
paths = (
{
closed = 1;
nodes = (
"252 489 LINE SMOOTH",
"252 433 OFFCURVE",
"227 415 OFFCURVE",
"186 415 CURVE SMOOTH",
"143 415 LINE",
"143 315 LINE",
"180 315 LINE SMOOTH",
"230 315 OFFCURVE",
"252 291 OFFCURVE",
"252 226 CURVE SMOOTH",
"252 171 LINE SMOOTH",
"252 109 OFFCURVE",
"230 92 OFFCURVE",
"195 92 CURVE SMOOTH",
"160 92 OFFCURVE",
"138 111 OFFCURVE",
"138 161 CURVE SMOOTH",
"138 226 LINE",
"34 226 LINE",
"34 168 LINE SMOOTH",
"34 56 OFFCURVE",
"90 -8 OFFCURVE",
"198 -8 CURVE SMOOTH",
"306 -8 OFFCURVE",
"362 56 OFFCURVE",
"362 168 CURVE SMOOTH",
"362 223 LINE SMOOTH",
"362 294 OFFCURVE",
"340 345 OFFCURVE",
"285 369 CURVE",
"285 371 LINE",
"338 393 OFFCURVE",
"362 439 OFFCURVE",
"362 514 CURVE SMOOTH",
"362 532 LINE SMOOTH",
"362 644 OFFCURVE",
"306 708 OFFCURVE",
"198 708 CURVE SMOOTH",
"90 708 OFFCURVE",
"34 644 OFFCURVE",
"34 532 CURVE SMOOTH",
"34 494 LINE",
"138 494 LINE",
"138 539 LINE SMOOTH",
"138 589 OFFCURVE",
"160 608 OFFCURVE",
"195 608 CURVE SMOOTH",
"230 608 OFFCURVE",
"252 591 OFFCURVE",
"252 528 CURVE SMOOTH"
);
}
);
width = 396;
}
);
note = three;
unicode = 0033;
},
{
glyphname = four;
lastChange = "2016-06-17 01:02:07 +0000";
layers = (
{
layerId = "26058A5B-27B8-4A86-A50F-6474302A7C9F";
paths = (
{
closed = 1;
nodes = (
"14 127 LINE",
"224 127 LINE",
"224 0 LINE",
"334 0 LINE",
"334 127 LINE",
"386 127 LINE",
"386 227 LINE",
"334 227 LINE",
"334 700 LINE",
"214 700 LINE",
"14 227 LINE"
);
},
{
closed = 1;
nodes = (
"115 227 LINE",
"222 486 LINE",
"224 486 LINE",
"224 227 LINE"
);
}
);
width = 396;
}
);
note = four;
unicode = 0034;
},
{
glyphname = five;
lastChange = "2016-06-17 01:02:07 +0000";
layers = (
{
layerId = "26058A5B-27B8-4A86-A50F-6474302A7C9F";
paths = (
{
closed = 1;
nodes = (
"35 226 LINE",
"35 168 LINE SMOOTH",
"35 56 OFFCURVE",
"91 -8 OFFCURVE",
"199 -8 CURVE SMOOTH",
"307 -8 OFFCURVE",
"363 56 OFFCURVE",
"363 168 CURVE SMOOTH",
"363 324 LINE SMOOTH",
"363 427 OFFCURVE",
"322 484 OFFCURVE",
"241 484 CURVE SMOOTH",
"197 484 OFFCURVE",
"166 466 OFFCURVE",
"146 433 CURVE",
"144 433 LINE",
"153 600 LINE",
"345 600 LINE",
"345 700 LINE",
"55 700 LINE",
"35 294 LINE",
"139 294 LINE",
"139 315 LINE SMOOTH",
"139 365 OFFCURVE",
"161 384 OFFCURVE",
"196 384 CURVE SMOOTH",
"231 384 OFFCURVE",
"253 365 OFFCURVE",
"253 315 CURVE SMOOTH",
"253 161 LINE SMOOTH",
"253 111 OFFCURVE",
"231 93 OFFCURVE",
"196 93 CURVE SMOOTH",
"161 93 OFFCURVE",
"139 111 OFFCURVE",
"139 161 CURVE SMOOTH",
"139 226 LINE"
);
}
);
width = 396;
}
);
note = five;
unicode = 0035;
},
{
glyphname = six;
lastChange = "2016-06-17 01:02:07 +0000";
layers = (
{
layerId = "26058A5B-27B8-4A86-A50F-6474302A7C9F";
paths = (
{
closed = 1;
nodes = (
"33 168 LINE SMOOTH",
"33 56 OFFCURVE",
"92 -8 OFFCURVE",
"200 -8 CURVE SMOOTH",
"308 -8 OFFCURVE",
"367 56 OFFCURVE",
"367 168 CURVE SMOOTH",
"367 296 LINE SMOOTH",
"367 399 OFFCURVE",
"326 456 OFFCURVE",
"245 456 CURVE SMOOTH",
"196 456 OFFCURVE",
"164 435 OFFCURVE",
"145 395 CURVE",
"143 395 LINE",
"143 522 LINE SMOOTH",
"143 589 OFFCURVE",
"165 608 OFFCURVE",
"204 608 CURVE SMOOTH",
"239 608 OFFCURVE",
"261 589 OFFCURVE",
"261 539 CURVE SMOOTH",
"261 514 LINE",
"365 514 LINE",
"365 532 LINE SMOOTH",
"365 644 OFFCURVE",
"309 708 OFFCURVE",
"201 708 CURVE SMOOTH",
"87 708 OFFCURVE",
"33 644 OFFCURVE",
"33 526 CURVE SMOOTH"
);
},
{
closed = 1;
nodes = (
"235 356 OFFCURVE",
"257 337 OFFCURVE",
"257 287 CURVE SMOOTH",
"257 161 LINE SMOOTH",
"257 111 OFFCURVE",
"235 93 OFFCURVE",
"200 93 CURVE SMOOTH",
"165 93 OFFCURVE",
"143 111 OFFCURVE",
"143 161 CURVE SMOOTH",
"143 287 LINE SMOOTH",
"143 337 OFFCURVE",
"165 356 OFFCURVE",
"200 356 CURVE SMOOTH"
);
}
);
width = 396;
}
);
note = six;
unicode = 0036;
},
{
glyphname = seven;
lastChange = "2016-06-17 01:02:07 +0000";
layers = (
{
layerId = "26058A5B-27B8-4A86-A50F-6474302A7C9F";
paths = (
{
closed = 1;
nodes = (
"33 700 LINE",
"33 600 LINE",
"252 600 LINE",
"91 0 LINE",
"201 0 LINE",
"363 604 LINE",
"363 700 LINE"
);
}
);
width = 396;
}
);
note = seven;
unicode = 0037;
},
{
glyphname = eight;
lastChange = "2018-02-04 23:22:28 +0000";
layers = (
{
layerId = "26058A5B-27B8-4A86-A50F-6474302A7C9F";
paths = (
{
closed = 1;
nodes = (
"370 223 LINE SMOOTH",
"370 290 OFFCURVE",
"350 341 OFFCURVE",
"302 368 CURVE",
"302 370 LINE",
"347 395 OFFCURVE",
"370 441 OFFCURVE",
"370 510 CURVE SMOOTH",
"370 532 LINE SMOOTH",
"370 644 OFFCURVE",
"309 708 OFFCURVE",
"198 708 CURVE SMOOTH",
"87 708 OFFCURVE",
"26 644 OFFCURVE",
"26 532 CURVE SMOOTH",
"26 510 LINE SMOOTH",
"26 441 OFFCURVE",
"48 395 OFFCURVE",
"94 370 CURVE",
"94 368 LINE",
"46 341 OFFCURVE",
"26 290 OFFCURVE",
"26 223 CURVE SMOOTH",
"26 168 LINE SMOOTH",
"26 56 OFFCURVE",
"87 -8 OFFCURVE",
"198 -8 CURVE SMOOTH",
"309 -8 OFFCURVE",
"370 56 OFFCURVE",
"370 168 CURVE SMOOTH"
);
},
{
closed = 1;
nodes = (
"136 236 LINE SMOOTH",
"136 291 OFFCURVE",
"159 315 OFFCURVE",
"198 315 CURVE SMOOTH",
"237 315 OFFCURVE",
"260 291 OFFCURVE",
"260 236 CURVE SMOOTH",
"260 171 LINE SMOOTH",
"260 109 OFFCURVE",
"233 92 OFFCURVE",
"198 92 CURVE SMOOTH",
"163 92 OFFCURVE",
"136 109 OFFCURVE",
"136 171 CURVE SMOOTH"
);
},
{
closed = 1;
nodes = (
"136 528 LINE SMOOTH",
"136 591 OFFCURVE",
"163 608 OFFCURVE",
"198 608 CURVE SMOOTH",
"233 608 OFFCURVE",
"260 591 OFFCURVE",
"260 528 CURVE SMOOTH",
"260 489 LINE SMOOTH",
"260 433 OFFCURVE",
"233 415 OFFCURVE",
"198 415 CURVE SMOOTH",
"162 415 OFFCURVE",
"136 433 OFFCURVE",
"136 489 CURVE SMOOTH"
);
}
);
width = 396;
}
);
note = eight;
unicode = 0038;
},
{
glyphname = nine;
lastChange = "2016-06-17 01:02:07 +0000";
layers = (
{
layerId = "26058A5B-27B8-4A86-A50F-6474302A7C9F";
paths = (
{
closed = 1;
nodes = (
"363 532 LINE SMOOTH",
"363 644 OFFCURVE",
"304 708 OFFCURVE",
"196 708 CURVE SMOOTH",
"88 708 OFFCURVE",
"29 644 OFFCURVE",
"29 532 CURVE SMOOTH",
"29 404 LINE SMOOTH",
"29 301 OFFCURVE",
"70 244 OFFCURVE",
"151 244 CURVE SMOOTH",
"200 244 OFFCURVE",
"232 265 OFFCURVE",
"251 305 CURVE",
"253 305 LINE",
"253 178 LINE SMOOTH",
"253 111 OFFCURVE",
"231 92 OFFCURVE",
"192 92 CURVE SMOOTH",
"157 92 OFFCURVE",
"135 111 OFFCURVE",
"135 161 CURVE SMOOTH",
"135 186 LINE",
"31 186 LINE",
"31 168 LINE SMOOTH",
"31 56 OFFCURVE",
"87 -8 OFFCURVE",
"195 -8 CURVE SMOOTH",
"309 -8 OFFCURVE",
"363 56 OFFCURVE",
"363 174 CURVE SMOOTH"
);
},
{
closed = 1;
nodes = (
"161 344 OFFCURVE",
"139 363 OFFCURVE",
"139 413 CURVE SMOOTH",
"139 539 LINE SMOOTH",
"139 589 OFFCURVE",
"161 607 OFFCURVE",
"196 607 CURVE SMOOTH",
"231 607 OFFCURVE",
"253 589 OFFCURVE",
"253 539 CURVE SMOOTH",
"253 413 LINE SMOOTH",
"253 363 OFFCURVE",
"231 344 OFFCURVE",
"196 344 CURVE SMOOTH"
);
}
);
width = 396;
}
);
note = nine;
unicode = 0039;
},
{
glyphname = colon;
lastChange = "2016-06-17 01:02:07 +0000";
layers = (
{
layerId = "26058A5B-27B8-4A86-A50F-6474302A7C9F";
paths = (
{
closed = 1;
nodes = (
"40 106 LINE",
"40 0 LINE",
"146 0 LINE",
"146 106 LINE"
);
},
{
closed = 1;
nodes = (
"40 487 LINE",
"40 381 LINE",
"146 381 LINE",
"146 487 LINE"
);
}
);
width = 186;
}
);
note = colon;
unicode = 003A;
},
{
glyphname = semicolon;
lastChange = "2016-06-17 01:02:07 +0000";
layers = (
{
layerId = "26058A5B-27B8-4A86-A50F-6474302A7C9F";
paths = (
{
closed = 1;
nodes = (
"82 0 LINE",
"53 -100 LINE",
"98 -100 LINE",
"146 11 LINE",
"146 106 LINE",
"40 106 LINE",
"40 0 LINE"
);
},
{
closed = 1;
nodes = (
"40 487 LINE",
"40 381 LINE",
"146 381 LINE",
"146 487 LINE"
);
}
);
width = 186;
}
);
note = semicolon;
unicode = 003B;
},
{
glyphname = less;
lastChange = "2016-06-17 01:02:07 +0000";
layers = (
{
layerId = "26058A5B-27B8-4A86-A50F-6474302A7C9F";
paths = (
{
closed = 1;
nodes = (
"356 191 LINE",
"356 270 LINE",
"132 350 LINE",
"356 430 LINE",
"356 509 LINE",
"30 389 LINE",
"30 311 LINE"
);
}
);
width = 396;
}
);
note = less;
unicode = 003C;
},
{
glyphname = equal;
lastChange = "2016-06-17 01:02:07 +0000";
layers = (
{
layerId = "26058A5B-27B8-4A86-A50F-6474302A7C9F";
paths = (
{
closed = 1;
nodes = (
"35 308 LINE",
"35 230 LINE",
"361 230 LINE",
"361 308 LINE"
);
},
{
closed = 1;
nodes = (
"35 470 LINE",
"35 392 LINE",
"361 392 LINE",
"361 470 LINE"
);
}
);
width = 396;
}
);
note = equal;
unicode = 003D;
},
{
glyphname = greater;
lastChange = "2016-06-17 01:02:07 +0000";
layers = (
{
layerId = "26058A5B-27B8-4A86-A50F-6474302A7C9F";
paths = (
{
closed = 1;
nodes = (
"366 311 LINE",
"366 389 LINE",
"40 509 LINE",
"40 430 LINE",
"264 350 LINE",
"40 270 LINE",
"40 191 LINE"
);
}
);
width = 396;
}
);
note = greater;
unicode = 003E;
},
{
glyphname = question;
lastChange = "2016-06-17 01:02:07 +0000";
layers = (
{
layerId = "26058A5B-27B8-4A86-A50F-6474302A7C9F";
paths = (
{
closed = 1;
nodes = (
"218 155 LINE",
"215 168 OFFCURVE",
"214 181 OFFCURVE",
"214 194 CURVE SMOOTH",
"214 239 OFFCURVE",
"227 273 OFFCURVE",
"270 331 CURVE SMOOTH",
"324 403 OFFCURVE",
"344 457 OFFCURVE",
"344 532 CURVE SMOOTH",
"344 644 OFFCURVE",
"289 708 OFFCURVE",
"182 708 CURVE SMOOTH",
"75 708 OFFCURVE",
"20 644 OFFCURVE",
"20 532 CURVE SMOOTH",
"20 463 LINE",
"124 463 LINE",
"124 539 LINE SMOOTH",
"124 589 OFFCURVE",
"144 608 OFFCURVE",
"179 608 CURVE SMOOTH",
"214 608 OFFCURVE",
"234 589 OFFCURVE",
"234 539 CURVE SMOOTH",
"234 472 OFFCURVE",
"220 426 OFFCURVE",
"171 356 CURVE SMOOTH",
"128 295 OFFCURVE",
"114 254 OFFCURVE",
"114 198 CURVE SMOOTH",
"114 180 OFFCURVE",
"116 167 OFFCURVE",
"120 155 CURVE"
);
},
{
closed = 1;
nodes = (
"115 106 LINE",
"115 0 LINE",
"221 0 LINE",
"221 106 LINE"
);
}
);
width = 360;
}
);
note = question;
unicode = 003F;
},
{
glyphname = at;
lastChange = "2016-06-17 01:02:07 +0000";
layers = (
{
layerId = "26058A5B-27B8-4A86-A50F-6474302A7C9F";
paths = (
{
closed = 1;
nodes = (
"553 127 OFFCURVE",
"671 200 OFFCURVE",
"671 446 CURVE SMOOTH",
"671 608 OFFCURVE",
"604 740 OFFCURVE",
"393 740 CURVE SMOOTH",
"146 740 OFFCURVE",
"24 537 OFFCURVE",
"24 290 CURVE SMOOTH",
"24 83 OFFCURVE",
"120 -60 OFFCURVE",
"345 -60 CURVE SMOOTH",
"419 -60 OFFCURVE",
"484 -48 OFFCURVE",
"550 -4 CURVE",
"558 92 LINE",
"488 38 OFFCURVE",
"425 24 OFFCURVE",
"351 24 CURVE SMOOTH",
"192 24 OFFCURVE",
"118 124 OFFCURVE",
"118 285 CURVE SMOOTH",
"118 513 OFFCURVE",
"211 655 OFFCURVE",
"389 655 CURVE SMOOTH",
"528 655 OFFCURVE",
"588 569 OFFCURVE",
"588 444 CURVE SMOOTH",
"588 342 OFFCURVE",
"564 218 OFFCURVE",
"508 218 CURVE SMOOTH",
"492 218 OFFCURVE",
"486 226 OFFCURVE",
"488 243 CURVE SMOOTH",
"518 532 LINE",
"425 532 LINE",
"416 475 LINE",
"414 475 LINE",
"401 514 OFFCURVE",
"374 536 OFFCURVE",
"332 536 CURVE SMOOTH",
"262 536 OFFCURVE",
"222 486 OFFCURVE",
"212 388 CURVE SMOOTH",
"201 287 LINE SMOOTH",
"200 276 OFFCURVE",
"199 264 OFFCURVE",
"199 253 CURVE SMOOTH",
"199 177 OFFCURVE",
"232 133 OFFCURVE",
"293 133 CURVE SMOOTH",
"337 133 OFFCURVE",
"367 152 OFFCURVE",
"387 193 CURVE",
"389 193 LINE",
"393 146 OFFCURVE",
"425 127 OFFCURVE",
"476 127 CURVE SMOOTH"
);
},
{
closed = 1;
nodes = (
"307 377 LINE SMOOTH",
"312 424 OFFCURVE",
"333 440 OFFCURVE",
"364 440 CURVE SMOOTH",
"389 440 OFFCURVE",
"408 426 OFFCURVE",
"408 396 CURVE SMOOTH",
"408 393 OFFCURVE",
"408 390 OFFCURVE",
"407 384 CURVE",
"397 289 LINE SMOOTH",
"392 243 OFFCURVE",
"371 225 OFFCURVE",
"341 226 CURVE SMOOTH",
"314 227 OFFCURVE",
"297 242 OFFCURVE",
"297 277 CURVE SMOOTH",
"297 282 OFFCURVE",
"297 284 OFFCURVE",
"298 292 CURVE SMOOTH"
);
}
);
width = 689;
}
);
note = at;
unicode = 0040;
},
{
glyphname = A;
lastChange = "2016-06-17 01:02:07 +0000";
layers = (
{
layerId = "26058A5B-27B8-4A86-A50F-6474302A7C9F";
paths = (
{
closed = 1;
nodes = (
"284 700 LINE",
"123 700 LINE",
"11 0 LINE",
"112 0 LINE",
"131 127 LINE",
"266 127 LINE",
"285 0 LINE",
"396 0 LINE"
);
},
{
closed = 1;
nodes = (
"197 576 LINE",
"199 576 LINE",
"251 222 LINE",
"145 222 LINE"
);
}
);
width = 407;
}
);
leftKerningGroup = A;
note = A;
rightKerningGroup = A;
unicode = 0041;
},
{
glyphname = B;
lastChange = "2016-06-17 01:09:32 +0000";
layers = (
{
layerId = "26058A5B-27B8-4A86-A50F-6474302A7C9F";
paths = (
{
closed = 1;
nodes = (
"40 700 LINE",
"40 0 LINE",
"213 0 LINE SMOOTH",
"323 0 OFFCURVE",
"380 58 OFFCURVE",
"380 166 CURVE SMOOTH",
"380 223 LINE SMOOTH",
"380 297 OFFCURVE",
"357 349 OFFCURVE",
"298 372 CURVE",
"298 374 LINE",
"347 397 OFFCURVE",
"369 442 OFFCURVE",
"369 514 CURVE SMOOTH",
"369 539 LINE SMOOTH",
"369 647 OFFCURVE",
"320 700 OFFCURVE",
"206 700 CURVE SMOOTH"
);
},
{
closed = 1;
nodes = (
"199 315 LINE SMOOTH",
"249 315 OFFCURVE",
"270 295 OFFCURVE",
"270 230 CURVE SMOOTH",
"270 169 LINE SMOOTH",
"270 117 OFFCURVE",
"250 100 OFFCURVE",
"213 100 CURVE SMOOTH",
"150 100 LINE",
"150 315 LINE"
);
},
{
closed = 1;
nodes = (
"203 600 LINE SMOOTH",
"242 600 OFFCURVE",
"259 578 OFFCURVE",
"259 528 CURVE SMOOTH",
"259 489 LINE SMOOTH",
"259 433 OFFCURVE",
"234 415 OFFCURVE",
"193 415 CURVE SMOOTH",
"150 415 LINE",
"150 600 LINE"
);
}
);
width = 406;
}
);
note = B;
rightKerningGroup = B;
unicode = 0042;
},
{
glyphname = C;
lastChange = "2016-06-17 01:02:07 +0000";
layers = (
{
layerId = "26058A5B-27B8-4A86-A50F-6474302A7C9F";
paths = (
{
closed = 1;
nodes = (
"255 261 LINE",
"255 161 LINE SMOOTH",
"255 111 OFFCURVE",
"233 93 OFFCURVE",
"198 93 CURVE SMOOTH",
"163 93 OFFCURVE",
"141 111 OFFCURVE",
"141 161 CURVE SMOOTH",
"141 539 LINE SMOOTH",
"141 589 OFFCURVE",
"163 608 OFFCURVE",
"198 608 CURVE SMOOTH",
"233 608 OFFCURVE",
"255 589 OFFCURVE",
"255 539 CURVE SMOOTH",
"255 464 LINE",
"359 464 LINE",
"359 532 LINE SMOOTH",
"359 644 OFFCURVE",
"303 708 OFFCURVE",
"195 708 CURVE SMOOTH",
"87 708 OFFCURVE",
"31 644 OFFCURVE",
"31 532 CURVE SMOOTH",
"31 168 LINE SMOOTH",
"31 56 OFFCURVE",
"87 -8 OFFCURVE",
"195 -8 CURVE SMOOTH",
"303 -8 OFFCURVE",
"359 56 OFFCURVE",
"359 168 CURVE SMOOTH",
"359 261 LINE"
);
}
);
width = 386;
}
);
leftKerningGroup = C;
note = C;
rightKerningGroup = C;
unicode = 0043;
},
{
glyphname = D;
lastChange = "2016-06-17 01:02:07 +0000";
layers = (
{
layerId = "26058A5B-27B8-4A86-A50F-6474302A7C9F";
paths = (
{
closed = 1;
nodes = (
"40 0 LINE",
"214 0 LINE SMOOTH",
"324 0 OFFCURVE",
"378 61 OFFCURVE",
"378 173 CURVE SMOOTH",
"378 527 LINE SMOOTH",
"378 639 OFFCURVE",
"324 700 OFFCURVE",
"214 700 CURVE SMOOTH",
"40 700 LINE"
);
},
{
closed = 1;
nodes = (
"212 600 LINE SMOOTH",
"247 600 OFFCURVE",
"268 582 OFFCURVE",
"268 532 CURVE SMOOTH",
"268 168 LINE SMOOTH",
"268 118 OFFCURVE",
"247 100 OFFCURVE",
"212 100 CURVE SMOOTH",
"150 100 LINE",
"150 600 LINE"
);
}
);
width = 408;
}
);
note = D;
rightKerningGroup = D;
unicode = 0044;
},
{
glyphname = E;
lastChange = "2016-06-17 01:02:07 +0000";
layers = (
{
layerId = "26058A5B-27B8-4A86-A50F-6474302A7C9F";
paths = (
{
closed = 1;
nodes = (
"150 600 LINE",
"340 600 LINE",
"340 700 LINE",
"40 700 LINE",
"40 0 LINE",
"340 0 LINE",
"340 100 LINE",
"150 100 LINE",
"150 305 LINE",
"301 305 LINE",
"301 405 LINE",
"150 405 LINE"
);
}
);
width = 368;
}
);
note = E;
unicode = 0045;
},
{
glyphname = F;
lastChange = "2016-06-17 01:02:07 +0000";
layers = (
{
layerId = "26058A5B-27B8-4A86-A50F-6474302A7C9F";
paths = (
{
closed = 1;
nodes = (
"150 600 LINE",
"331 600 LINE",
"331 700 LINE",
"40 700 LINE",
"40 0 LINE",
"150 0 LINE",
"150 289 LINE",
"292 289 LINE",
"292 389 LINE",
"150 389 LINE"
);
}
);
width = 344;
}
);
note = F;
rightKerningGroup = F;
unicode = 0046;
},
{
glyphname = G;
lastChange = "2016-06-17 01:02:07 +0000";
layers = (
{
layerId = "26058A5B-27B8-4A86-A50F-6474302A7C9F";
paths = (
{
closed = 1;
nodes = (
"205 290 LINE",
"255 290 LINE",
"255 161 LINE SMOOTH",
"255 111 OFFCURVE",
"233 93 OFFCURVE",
"198 93 CURVE SMOOTH",
"163 93 OFFCURVE",
"141 111 OFFCURVE",
"141 161 CURVE SMOOTH",
"141 539 LINE SMOOTH",
"141 589 OFFCURVE",
"163 608 OFFCURVE",
"198 608 CURVE SMOOTH",
"233 608 OFFCURVE",
"255 589 OFFCURVE",
"255 539 CURVE SMOOTH",
"255 464 LINE",
"359 464 LINE",
"359 532 LINE SMOOTH",
"359 644 OFFCURVE",
"303 708 OFFCURVE",
"195 708 CURVE SMOOTH",
"87 708 OFFCURVE",
"31 644 OFFCURVE",
"31 532 CURVE SMOOTH",
"31 168 LINE SMOOTH",
"31 56 OFFCURVE",
"87 -8 OFFCURVE",
"195 -8 CURVE SMOOTH",
"303 -8 OFFCURVE",
"359 56 OFFCURVE",
"359 168 CURVE SMOOTH",
"359 390 LINE",
"205 390 LINE"
);
}
);
width = 390;
}
);
leftKerningGroup = G;
note = G;
rightKerningGroup = G;
unicode = 0047;
},
{
glyphname = H;
lastChange = "2016-06-17 01:02:07 +0000";
layers = (
{
layerId = "26058A5B-27B8-4A86-A50F-6474302A7C9F";
paths = (
{
closed = 1;
nodes = (
"150 300 LINE",
"275 300 LINE",
"275 0 LINE",
"387 0 LINE",
"387 700 LINE",
"275 700 LINE",
"275 400 LINE",
"150 400 LINE",
"150 700 LINE",
"40 700 LINE",
"40 0 LINE",
"150 0 LINE"
);
}
);
width = 427;
}
);
note = H;
unicode = 0048;
},
{
glyphname = I;
lastChange = "2016-06-17 01:02:07 +0000";
layers = (
{
layerId = "26058A5B-27B8-4A86-A50F-6474302A7C9F";
paths = (
{
closed = 1;
nodes = (
"40 0 LINE",
"150 0 LINE",
"150 700 LINE",
"40 700 LINE"
);
}
);
width = 190;
}
);
note = I;
unicode = 0049;
},
{
glyphname = J;
lastChange = "2016-06-17 01:02:07 +0000";
layers = (
{
layerId = "26058A5B-27B8-4A86-A50F-6474302A7C9F";
paths = (
{
closed = 1;
nodes = (
"10 0 LINE",
"28 -2 OFFCURVE",
"43 -2 OFFCURVE",
"63 -2 CURVE SMOOTH",
"146 -2 OFFCURVE",
"221 34 OFFCURVE",
"221 174 CURVE SMOOTH",
"221 700 LINE",
"111 700 LINE",
"111 166 LINE SMOOTH",
"111 112 OFFCURVE",
"83 99 OFFCURVE",
"48 99 CURVE SMOOTH",
"36 99 OFFCURVE",
"22 99 OFFCURVE",
"10 100 CURVE"
);
}
);
width = 256;
}
);
leftKerningGroup = J;
note = J;
rightKerningGroup = J;
unicode = 004A;
},
{
glyphname = K;
lastChange = "2016-06-17 01:02:07 +0000";
layers = (
{
layerId = "26058A5B-27B8-4A86-A50F-6474302A7C9F";
paths = (
{
closed = 1;
nodes = (
"291 0 LINE",
"404 0 LINE",
"251 388 LINE",
"404 700 LINE",
"294 700 LINE",
"152 397 LINE",
"150 397 LINE",
"150 700 LINE",
"40 700 LINE",
"40 0 LINE",
"150 0 LINE",
"150 215 LINE",
"184 279 LINE"
);
}
);
width = 414;
}
);
note = K;
rightKerningGroup = K;
unicode = 004B;
},
{
glyphname = L;
lastChange = "2016-06-17 01:02:07 +0000";
layers = (
{
layerId = "26058A5B-27B8-4A86-A50F-6474302A7C9F";
paths = (
{
closed = 1;
nodes = (
"40 0 LINE",
"331 0 LINE",
"331 100 LINE",
"150 100 LINE",
"150 700 LINE",
"40 700 LINE"
);
}
);
width = 339;
}
);
note = L;
rightKerningGroup = L;
unicode = 004C;
},
{
glyphname = M;
lastChange = "2016-06-17 01:02:07 +0000";
layers = (
{
layerId = "26058A5B-27B8-4A86-A50F-6474302A7C9F";
paths = (
{
closed = 1;
nodes = (
"192 700 LINE",
"39 700 LINE",
"39 0 LINE",
"135 0 LINE",
"135 495 LINE",
"137 495 LINE",
"217 0 LINE",
"321 0 LINE",
"395 502 LINE",
"397 502 LINE",
"397 0 LINE",
"501 0 LINE",
"501 700 LINE",
"348 700 LINE",
"274 203 LINE",
"272 203 LINE"
);
}
);
width = 541;
}
);
note = M;
unicode = 004D;
},
{
glyphname = N;
lastChange = "2016-06-17 01:02:07 +0000";
layers = (
{
layerId = "26058A5B-27B8-4A86-A50F-6474302A7C9F";
paths = (
{
closed = 1;
nodes = (
"275 0 LINE",
"388 0 LINE",
"388 700 LINE",
"290 700 LINE",
"290 281 LINE",
"288 281 LINE",
"177 700 LINE",
"39 700 LINE",
"39 0 LINE",
"138 0 LINE",
"138 507 LINE",
"140 507 LINE"
);
}
);
width = 427;
}
);
note = N;
unicode = 004E;
},
{
glyphname = O;
lastChange = "2016-06-17 01:02:07 +0000";
layers = (
{
layerId = "26058A5B-27B8-4A86-A50F-6474302A7C9F";
paths = (
{
closed = 1;
nodes = (
"141 539 LINE SMOOTH",
"141 589 OFFCURVE",
"163 608 OFFCURVE",
"198 608 CURVE SMOOTH",
"233 608 OFFCURVE",
"255 589 OFFCURVE",
"255 539 CURVE SMOOTH",
"255 161 LINE SMOOTH",
"255 111 OFFCURVE",
"233 92 OFFCURVE",
"198 92 CURVE SMOOTH",
"163 92 OFFCURVE",
"141 111 OFFCURVE",
"141 161 CURVE SMOOTH"
);
},
{
closed = 1;
nodes = (
"31 168 LINE SMOOTH",
"31 56 OFFCURVE",
"90 -8 OFFCURVE",
"198 -8 CURVE SMOOTH",
"306 -8 OFFCURVE",
"365 56 OFFCURVE",
"365 168 CURVE SMOOTH",
"365 532 LINE SMOOTH",
"365 644 OFFCURVE",
"306 708 OFFCURVE",
"198 708 CURVE SMOOTH",
"90 708 OFFCURVE",
"31 644 OFFCURVE",
"31 532 CURVE SMOOTH"
);
}
);
width = 396;
}
);
leftKerningGroup = O;
note = O;
rightKerningGroup = O;
unicode = 004F;
},
{
glyphname = P;
lastChange = "2016-06-17 01:02:07 +0000";
layers = (
{
layerId = "26058A5B-27B8-4A86-A50F-6474302A7C9F";
paths = (
{
closed = 1;
nodes = (
"40 700 LINE",
"40 0 LINE",
"150 0 LINE",
"150 263 LINE",
"202 263 LINE SMOOTH",
"312 263 OFFCURVE",
"366 324 OFFCURVE",
"366 436 CURVE SMOOTH",
"366 527 LINE SMOOTH",
"366 639 OFFCURVE",
"312 700 OFFCURVE",
"202 700 CURVE SMOOTH"
);
},
{
closed = 1;
nodes = (
"202 600 LINE SMOOTH",
"237 600 OFFCURVE",
"256 584 OFFCURVE",
"256 534 CURVE SMOOTH",
"256 429 LINE SMOOTH",
"256 379 OFFCURVE",
"237 363 OFFCURVE",
"202 363 CURVE SMOOTH",
"150 363 LINE",
"150 600 LINE"
);
}
);
width = 377;
}
);
note = P;
rightKerningGroup = P;
unicode = 0050;
},
{
glyphname = Q;
lastChange = "2016-06-17 01:02:07 +0000";
layers = (
{
layerId = "26058A5B-27B8-4A86-A50F-6474302A7C9F";
paths = (
{
closed = 1;
nodes = (
"31 168 LINE SMOOTH",
"31 56 OFFCURVE",
"90 -8 OFFCURVE",
"198 -8 CURVE SMOOTH",
"227 -8 OFFCURVE",
"253 -3 OFFCURVE",
"275 5 CURVE",
"290 -25 OFFCURVE",
"321 -43 OFFCURVE",
"370 -43 CURVE SMOOTH",
"385 -43 LINE",
"385 55 LINE",
"375 55 LINE SMOOTH",
"357 55 OFFCURVE",
"349 57 OFFCURVE",
"344 70 CURVE",
"358 96 OFFCURVE",
"365 129 OFFCURVE",
"365 168 CURVE SMOOTH",
"365 532 LINE SMOOTH",
"365 644 OFFCURVE",
"306 708 OFFCURVE",
"198 708 CURVE SMOOTH",
"90 708 OFFCURVE",
"31 644 OFFCURVE",
"31 532 CURVE SMOOTH"
);
},
{
closed = 1;
nodes = (
"141 539 LINE SMOOTH",
"141 589 OFFCURVE",
"163 608 OFFCURVE",
"198 608 CURVE SMOOTH",
"233 608 OFFCURVE",
"255 589 OFFCURVE",
"255 539 CURVE SMOOTH",
"255 161 LINE SMOOTH",
"255 111 OFFCURVE",
"233 92 OFFCURVE",
"198 92 CURVE SMOOTH",
"163 92 OFFCURVE",
"141 111 OFFCURVE",
"141 161 CURVE SMOOTH"
);
}
);
width = 396;
}
);
note = Q;
unicode = 0051;
},
{
glyphname = R;
lastChange = "2016-06-17 01:02:07 +0000";
layers = (
{
layerId = "26058A5B-27B8-4A86-A50F-6474302A7C9F";
paths = (
{
closed = 1;
nodes = (
"382 0 LINE",
"371 26 OFFCURVE",
"370 51 OFFCURVE",
"370 85 CURVE SMOOTH",
"370 193 LINE SMOOTH",
"370 266 OFFCURVE",
"352 318 OFFCURVE",
"297 341 CURVE",
"297 343 LINE",
"346 366 OFFCURVE",
"369 412 OFFCURVE",
"369 484 CURVE SMOOTH",
"369 539 LINE SMOOTH",
"369 647 OFFCURVE",
"320 700 OFFCURVE",
"206 700 CURVE SMOOTH",
"40 700 LINE",
"40 0 LINE",
"150 0 LINE",
"150 285 LINE",
"188 285 LINE SMOOTH",
"238 285 OFFCURVE",
"260 261 OFFCURVE",
"260 196 CURVE SMOOTH",
"260 86 LINE SMOOTH",
"260 29 OFFCURVE",
"264 18 OFFCURVE",
"270 0 CURVE"
);
},
{
closed = 1;
nodes = (
"203 600 LINE SMOOTH",
"242 600 OFFCURVE",
"259 578 OFFCURVE",
"259 528 CURVE SMOOTH",
"259 459 LINE SMOOTH",
"259 403 OFFCURVE",
"234 385 OFFCURVE",
"193 385 CURVE SMOOTH",
"150 385 LINE",
"150 600 LINE"
);
}
);
width = 402;
}
);
note = R;
rightKerningGroup = R;
unicode = 0052;
},
{
glyphname = S;
lastChange = "2016-06-17 01:02:07 +0000";
layers = (
{
layerId = "26058A5B-27B8-4A86-A50F-6474302A7C9F";
paths = (
{
closed = 1;
nodes = (
"26 452 OFFCURVE",
"55 394 OFFCURVE",
"147 313 CURVE SMOOTH",
"219 250 OFFCURVE",
"241 212 OFFCURVE",
"241 161 CURVE SMOOTH",
"241 111 OFFCURVE",
"219 93 OFFCURVE",
"184 93 CURVE SMOOTH",
"149 93 OFFCURVE",
"127 111 OFFCURVE",
"127 161 CURVE SMOOTH",
"127 211 LINE",
"23 211 LINE",
"23 168 LINE SMOOTH",
"23 56 OFFCURVE",
"79 -8 OFFCURVE",
"187 -8 CURVE SMOOTH",
"295 -8 OFFCURVE",
"351 56 OFFCURVE",
"351 168 CURVE SMOOTH",
"351 248 OFFCURVE",
"322 306 OFFCURVE",
"230 387 CURVE SMOOTH",
"158 450 OFFCURVE",
"136 488 OFFCURVE",
"136 539 CURVE SMOOTH",
"136 589 OFFCURVE",
"156 608 OFFCURVE",
"191 608 CURVE SMOOTH",
"226 608 OFFCURVE",
"246 589 OFFCURVE",
"246 539 CURVE SMOOTH",
"246 510 LINE",
"350 510 LINE",
"350 532 LINE SMOOTH",
"350 644 OFFCURVE",
"295 708 OFFCURVE",
"188 708 CURVE SMOOTH",
"81 708 OFFCURVE",
"26 644 OFFCURVE",
"26 532 CURVE SMOOTH"
);
}
);
width = 374;
}
);
leftKerningGroup = S;
note = S;
rightKerningGroup = S;
unicode = 0053;
},
{
glyphname = T;
lastChange = "2016-06-17 01:02:07 +0000";
layers = (
{
layerId = "26058A5B-27B8-4A86-A50F-6474302A7C9F";
paths = (
{
closed = 1;
nodes = (
"8 600 LINE",
"123 600 LINE",
"123 0 LINE",
"233 0 LINE",
"233 600 LINE",
"348 600 LINE",
"348 700 LINE",
"8 700 LINE"
);
}
);
width = 356;
}
);
leftKerningGroup = T;
note = T;
rightKerningGroup = T;
unicode = 0054;
},
{
glyphname = U;
lastChange = "2016-06-17 01:02:07 +0000";
layers = (
{
layerId = "26058A5B-27B8-4A86-A50F-6474302A7C9F";
paths = (
{
closed = 1;
nodes = (
"35 700 LINE",
"35 167 LINE SMOOTH",
"35 55 OFFCURVE",
"91 -9 OFFCURVE",
"199 -9 CURVE SMOOTH",
"307 -9 OFFCURVE",
"363 55 OFFCURVE",
"363 167 CURVE SMOOTH",
"363 700 LINE",
"259 700 LINE",
"259 160 LINE SMOOTH",
"259 110 OFFCURVE",
"237 92 OFFCURVE",
"202 92 CURVE SMOOTH",
"167 92 OFFCURVE",
"145 110 OFFCURVE",
"145 160 CURVE SMOOTH",
"145 700 LINE"
);
}
);
width = 398;
}
);
leftKerningGroup = U;
note = U;
rightKerningGroup = U;
unicode = 0055;
},
{
glyphname = V;
lastChange = "2016-06-17 01:02:07 +0000";
layers = (
{
layerId = "26058A5B-27B8-4A86-A50F-6474302A7C9F";
paths = (
{
closed = 1;
nodes = (
"122 700 LINE",
"11 700 LINE",
"119 0 LINE",
"283 0 LINE",
"391 700 LINE",
"290 700 LINE",
"207 129 LINE",
"205 129 LINE"
);
}
);
width = 402;
}
);
note = V;
unicode = 0056;
},
{
glyphname = W;
lastChange = "2016-06-17 01:02:07 +0000";
layers = (
{
layerId = "26058A5B-27B8-4A86-A50F-6474302A7C9F";
paths = (
{
closed = 1;
nodes = (
"324 0 LINE",
"470 0 LINE",
"548 700 LINE",
"452 700 LINE",
"396 144 LINE",
"394 144 LINE",
"340 700 LINE",
"234 700 LINE",
"182 148 LINE",
"180 148 LINE",
"122 700 LINE",
"15 700 LINE",
"93 0 LINE",
"244 0 LINE",
"283 373 LINE",
"285 373 LINE"
);
}
);
width = 563;
}
);
leftKerningGroup = W;
note = W;
rightKerningGroup = W;
unicode = 0057;
},
{
glyphname = X;
lastChange = "2016-06-17 01:02:07 +0000";
layers = (
{
layerId = "26058A5B-27B8-4A86-A50F-6474302A7C9F";
paths = (
{
closed = 1;
nodes = (
"305 700 LINE",
"221 442 LINE",
"219 442 LINE",
"137 700 LINE",
"23 700 LINE",
"138 360 LINE",
"15 0 LINE",
"118 0 LINE",
"208 277 LINE",
"210 277 LINE",
"299 0 LINE",
"415 0 LINE",
"292 360 LINE",
"407 700 LINE"
);
}
);
width = 430;
}
);
note = X;
unicode = 0058;
},
{
glyphname = Y;
lastChange = "2016-06-17 01:02:07 +0000";
layers = (
{
layerId = "26058A5B-27B8-4A86-A50F-6474302A7C9F";
paths = (
{
closed = 1;
nodes = (
"143 0 LINE",
"253 0 LINE",
"253 232 LINE",
"392 700 LINE",
"287 700 LINE",
"204 381 LINE",
"202 381 LINE",
"119 700 LINE",
"4 700 LINE",
"143 232 LINE"
);
}
);
width = 396;
}
);
leftKerningGroup = Y;
note = Y;
rightKerningGroup = Y;
unicode = 0059;
},
{
glyphname = Z;
lastChange = "2016-06-17 01:02:07 +0000";
layers = (
{
layerId = "26058A5B-27B8-4A86-A50F-6474302A7C9F";
paths = (
{
closed = 1;
nodes = (
"33 700 LINE",
"33 600 LINE",
"232 600 LINE",
"23 98 LINE",
"23 0 LINE",
"345 0 LINE",
"345 100 LINE",
"136 100 LINE",
"345 602 LINE",
"345 700 LINE"
);
}
);
width = 370;
}
);
leftKerningGroup = Z;
note = Z;
rightKerningGroup = Z;
unicode = 005A;
},
{
glyphname = bracketleft;
lastChange = "2016-06-17 01:02:07 +0000";
layers = (
{
layerId = "26058A5B-27B8-4A86-A50F-6474302A7C9F";
paths = (
{
closed = 1;
nodes = (
"47 0 LINE",
"229 0 LINE",
"229 90 LINE",
"157 90 LINE",
"157 610 LINE",
"229 610 LINE",
"229 700 LINE",
"47 700 LINE"
);
}
);
width = 251;
}
);
note = bracketleft;
unicode = 005B;
},
{
glyphname = backslash;
lastChange = "2016-06-17 01:02:07 +0000";
layers = (
{
layerId = "26058A5B-27B8-4A86-A50F-6474302A7C9F";
paths = (
{
closed = 1;
nodes = (
"100 700 LINE",
"5 700 LINE",
"281 0 LINE",
"376 0 LINE"
);
}
);
width = 381;
}
);
note = backslash;
unicode = 005C;
},
{
glyphname = bracketright;
lastChange = "2016-06-17 01:02:07 +0000";
layers = (
{
layerId = "26058A5B-27B8-4A86-A50F-6474302A7C9F";
paths = (
{
closed = 1;
nodes = (
"204 700 LINE",
"22 700 LINE",
"22 610 LINE",
"94 610 LINE",
"94 90 LINE",
"22 90 LINE",
"22 0 LINE",
"204 0 LINE"
);
}
);
width = 251;
}
);
note = bracketright;
unicode = 005D;
},
{
glyphname = asciicircum;
lastChange = "2016-06-17 01:02:07 +0000";
layers = (
{
layerId = "26058A5B-27B8-4A86-A50F-6474302A7C9F";
paths = (
{
closed = 1;
nodes = (
"20 390 LINE",
"108 390 LINE",
"198 600 LINE",
"288 390 LINE",
"376 390 LINE",
"237 700 LINE",
"159 700 LINE"
);
}
);
width = 396;
}
);
note = asciicircum;
unicode = 005E;
},
{
glyphname = underscore;
lastChange = "2016-06-17 01:02:07 +0000";
layers = (
{
layerId = "26058A5B-27B8-4A86-A50F-6474302A7C9F";
paths = (
{
closed = 1;
nodes = (
"0 -90 LINE",
"500 -90 LINE",
"500 -10 LINE",
"0 -10 LINE"
);
}
);
width = 500;
}
);
note = underscore;
unicode = 005F;
},
{
glyphname = grave;
lastChange = "2016-06-17 01:02:07 +0000";
layers = (
{
layerId = "26058A5B-27B8-4A86-A50F-6474302A7C9F";
paths = (
{
closed = 1;
nodes = (
"44 848 LINE",
"146 737 LINE",
"225 737 LINE",
"157 848 LINE"
);
}
);
width = 250;
}
);
note = grave;
unicode = 0060;
},
{
glyphname = a;
lastChange = "2016-06-17 01:02:07 +0000";
layers = (
{
layerId = "26058A5B-27B8-4A86-A50F-6474302A7C9F";
paths = (
{
closed = 1;
nodes = (
"284 700 LINE",
"123 700 LINE",
"11 0 LINE",
"112 0 LINE",
"131 127 LINE",
"266 127 LINE",
"285 0 LINE",
"396 0 LINE"
);
},
{
closed = 1;
nodes = (
"197 576 LINE",
"199 576 LINE",
"251 222 LINE",
"145 222 LINE"
);
}
);
width = 407;
}
);
leftKerningGroup = a;
note = a;
rightKerningGroup = a;
unicode = 0061;
},
{
glyphname = b;
lastChange = "2016-06-17 01:02:07 +0000";
layers = (
{
layerId = "26058A5B-27B8-4A86-A50F-6474302A7C9F";
paths = (
{
closed = 1;
nodes = (
"40 700 LINE",
"40 0 LINE",
"213 0 LINE SMOOTH",
"323 0 OFFCURVE",
"380 58 OFFCURVE",
"380 166 CURVE SMOOTH",
"380 223 LINE SMOOTH",
"380 297 OFFCURVE",
"357 349 OFFCURVE",
"298 372 CURVE",
"298 374 LINE",
"347 397 OFFCURVE",
"369 442 OFFCURVE",
"369 514 CURVE SMOOTH",
"369 539 LINE SMOOTH",
"369 647 OFFCURVE",
"320 700 OFFCURVE",
"206 700 CURVE SMOOTH"
);
},
{
closed = 1;
nodes = (
"199 315 LINE SMOOTH",
"249 315 OFFCURVE",
"270 295 OFFCURVE",
"270 230 CURVE SMOOTH",
"270 169 LINE SMOOTH",
"270 117 OFFCURVE",
"250 100 OFFCURVE",
"213 100 CURVE SMOOTH",
"150 100 LINE",
"150 315 LINE"
);
},
{
closed = 1;
nodes = (
"203 600 LINE SMOOTH",
"242 600 OFFCURVE",
"259 578 OFFCURVE",
"259 528 CURVE SMOOTH",
"259 489 LINE SMOOTH",
"259 433 OFFCURVE",
"234 415 OFFCURVE",
"193 415 CURVE SMOOTH",
"150 415 LINE",
"150 600 LINE"
);
}
);
width = 406;
}
);
note = b;
rightKerningGroup = b;
unicode = 0062;
},
{
glyphname = c;
lastChange = "2016-06-17 01:02:07 +0000";
layers = (
{
layerId = "26058A5B-27B8-4A86-A50F-6474302A7C9F";
paths = (
{
closed = 1;
nodes = (
"255 261 LINE",
"255 161 LINE SMOOTH",
"255 111 OFFCURVE",
"233 93 OFFCURVE",
"198 93 CURVE SMOOTH",
"163 93 OFFCURVE",
"141 111 OFFCURVE",
"141 161 CURVE SMOOTH",
"141 539 LINE SMOOTH",
"141 589 OFFCURVE",
"163 608 OFFCURVE",
"198 608 CURVE SMOOTH",
"233 608 OFFCURVE",
"255 589 OFFCURVE",
"255 539 CURVE SMOOTH",
"255 464 LINE",
"359 464 LINE",
"359 532 LINE SMOOTH",
"359 644 OFFCURVE",
"303 708 OFFCURVE",
"195 708 CURVE SMOOTH",
"87 708 OFFCURVE",
"31 644 OFFCURVE",
"31 532 CURVE SMOOTH",
"31 168 LINE SMOOTH",
"31 56 OFFCURVE",
"87 -8 OFFCURVE",
"195 -8 CURVE SMOOTH",
"303 -8 OFFCURVE",
"359 56 OFFCURVE",
"359 168 CURVE SMOOTH",
"359 261 LINE"
);
}
);
width = 386;
}
);
leftKerningGroup = c;
note = c;
rightKerningGroup = c;
unicode = 0063;
},
{
glyphname = d;
lastChange = "2016-06-17 01:02:07 +0000";
layers = (
{
layerId = "26058A5B-27B8-4A86-A50F-6474302A7C9F";
paths = (
{
closed = 1;
nodes = (
"40 0 LINE",
"214 0 LINE SMOOTH",
"324 0 OFFCURVE",
"378 61 OFFCURVE",
"378 173 CURVE SMOOTH",
"378 527 LINE SMOOTH",
"378 639 OFFCURVE",
"324 700 OFFCURVE",
"214 700 CURVE SMOOTH",
"40 700 LINE"
);
},
{
closed = 1;
nodes = (
"212 600 LINE SMOOTH",
"247 600 OFFCURVE",
"268 582 OFFCURVE",
"268 532 CURVE SMOOTH",
"268 168 LINE SMOOTH",
"268 118 OFFCURVE",
"247 100 OFFCURVE",
"212 100 CURVE SMOOTH",
"150 100 LINE",
"150 600 LINE"
);
}
);
width = 408;
}
);
note = d;
rightKerningGroup = d;
unicode = 0064;
},
{
glyphname = e;
lastChange = "2016-06-17 01:02:07 +0000";
layers = (
{
layerId = "26058A5B-27B8-4A86-A50F-6474302A7C9F";
paths = (
{
closed = 1;
nodes = (
"150 600 LINE",
"340 600 LINE",
"340 700 LINE",
"40 700 LINE",
"40 0 LINE",
"340 0 LINE",
"340 100 LINE",
"150 100 LINE",
"150 305 LINE",
"301 305 LINE",
"301 405 LINE",
"150 405 LINE"
);
}
);
width = 368;
}
);
note = e;
unicode = 0065;
},
{
glyphname = f;
lastChange = "2016-06-17 01:02:07 +0000";
layers = (
{
layerId = "26058A5B-27B8-4A86-A50F-6474302A7C9F";
paths = (
{
closed = 1;
nodes = (
"150 600 LINE",
"331 600 LINE",
"331 700 LINE",
"40 700 LINE",
"40 0 LINE",
"150 0 LINE",
"150 289 LINE",
"292 289 LINE",
"292 389 LINE",
"150 389 LINE"
);
}
);
width = 344;
}
);
note = f;
rightKerningGroup = f;
unicode = 0066;
},
{
glyphname = g;
lastChange = "2016-06-17 01:02:07 +0000";
layers = (
{
layerId = "26058A5B-27B8-4A86-A50F-6474302A7C9F";
paths = (
{
closed = 1;
nodes = (
"205 290 LINE",
"255 290 LINE",
"255 161 LINE SMOOTH",
"255 111 OFFCURVE",
"233 93 OFFCURVE",
"198 93 CURVE SMOOTH",
"163 93 OFFCURVE",
"141 111 OFFCURVE",
"141 161 CURVE SMOOTH",
"141 539 LINE SMOOTH",
"141 589 OFFCURVE",
"163 608 OFFCURVE",
"198 608 CURVE SMOOTH",
"233 608 OFFCURVE",
"255 589 OFFCURVE",
"255 539 CURVE SMOOTH",
"255 464 LINE",
"359 464 LINE",
"359 532 LINE SMOOTH",
"359 644 OFFCURVE",
"303 708 OFFCURVE",
"195 708 CURVE SMOOTH",
"87 708 OFFCURVE",
"31 644 OFFCURVE",
"31 532 CURVE SMOOTH",
"31 168 LINE SMOOTH",
"31 56 OFFCURVE",
"87 -8 OFFCURVE",
"195 -8 CURVE SMOOTH",
"303 -8 OFFCURVE",
"359 56 OFFCURVE",
"359 168 CURVE SMOOTH",
"359 390 LINE",
"205 390 LINE"
);
}
);
width = 390;
}
);
leftKerningGroup = g;
note = g;
rightKerningGroup = g;
unicode = 0067;
},
{
glyphname = h;
lastChange = "2016-06-17 01:02:07 +0000";
layers = (
{
layerId = "26058A5B-27B8-4A86-A50F-6474302A7C9F";
paths = (
{
closed = 1;
nodes = (
"150 300 LINE",
"275 300 LINE",
"275 0 LINE",
"387 0 LINE",
"387 700 LINE",
"275 700 LINE",
"275 400 LINE",
"150 400 LINE",
"150 700 LINE",
"40 700 LINE",
"40 0 LINE",
"150 0 LINE"
);
}
);
width = 427;
}
);
note = h;
unicode = 0068;
},
{
glyphname = i;
lastChange = "2016-06-17 01:02:07 +0000";
layers = (
{
layerId = "26058A5B-27B8-4A86-A50F-6474302A7C9F";
paths = (
{
closed = 1;
nodes = (
"40 0 LINE",
"150 0 LINE",
"150 700 LINE",
"40 700 LINE"
);
}
);
width = 190;
}
);
note = i;
unicode = 0069;
},
{
glyphname = j;
lastChange = "2016-06-17 01:02:07 +0000";
layers = (
{
layerId = "26058A5B-27B8-4A86-A50F-6474302A7C9F";
paths = (
{
closed = 1;
nodes = (
"10 0 LINE",
"28 -2 OFFCURVE",
"43 -2 OFFCURVE",
"63 -2 CURVE SMOOTH",
"146 -2 OFFCURVE",
"221 34 OFFCURVE",
"221 174 CURVE SMOOTH",
"221 700 LINE",
"111 700 LINE",
"111 166 LINE SMOOTH",
"111 112 OFFCURVE",
"83 99 OFFCURVE",
"48 99 CURVE SMOOTH",
"36 99 OFFCURVE",
"22 99 OFFCURVE",
"10 100 CURVE"
);
}
);
width = 256;
}
);
leftKerningGroup = j;
note = j;
rightKerningGroup = j;
unicode = 006A;
},
{
glyphname = k;
lastChange = "2016-06-17 01:02:07 +0000";
layers = (
{
layerId = "26058A5B-27B8-4A86-A50F-6474302A7C9F";
paths = (
{
closed = 1;
nodes = (
"291 0 LINE",
"404 0 LINE",
"251 388 LINE",
"404 700 LINE",
"294 700 LINE",
"152 397 LINE",
"150 397 LINE",
"150 700 LINE",
"40 700 LINE",
"40 0 LINE",
"150 0 LINE",
"150 215 LINE",
"184 279 LINE"
);
}
);
width = 414;
}
);
note = k;
rightKerningGroup = k;
unicode = 006B;
},
{
glyphname = l;
lastChange = "2016-06-17 01:02:07 +0000";
layers = (
{
layerId = "26058A5B-27B8-4A86-A50F-6474302A7C9F";
paths = (
{
closed = 1;
nodes = (
"40 0 LINE",
"331 0 LINE",
"331 100 LINE",
"150 100 LINE",
"150 700 LINE",
"40 700 LINE"
);
}
);
width = 339;
}
);
note = l;
rightKerningGroup = l;
unicode = 006C;
},
{
glyphname = m;
lastChange = "2016-06-17 01:02:07 +0000";
layers = (
{
layerId = "26058A5B-27B8-4A86-A50F-6474302A7C9F";
paths = (
{
closed = 1;
nodes = (
"192 700 LINE",
"39 700 LINE",
"39 0 LINE",
"135 0 LINE",
"135 495 LINE",
"137 495 LINE",
"217 0 LINE",
"321 0 LINE",
"395 502 LINE",
"397 502 LINE",
"397 0 LINE",
"501 0 LINE",
"501 700 LINE",
"348 700 LINE",
"274 203 LINE",
"272 203 LINE"
);
}
);
width = 541;
}
);
note = m;
unicode = 006D;
},
{
glyphname = n;
lastChange = "2016-06-17 01:02:07 +0000";
layers = (
{
layerId = "26058A5B-27B8-4A86-A50F-6474302A7C9F";
paths = (
{
closed = 1;
nodes = (
"275 0 LINE",
"388 0 LINE",
"388 700 LINE",
"290 700 LINE",
"290 281 LINE",
"288 281 LINE",
"177 700 LINE",
"39 700 LINE",
"39 0 LINE",
"138 0 LINE",
"138 507 LINE",
"140 507 LINE"
);
}
);
width = 427;
}
);
note = n;
unicode = 006E;
},
{
glyphname = o;
lastChange = "2016-06-17 01:02:07 +0000";
layers = (
{
layerId = "26058A5B-27B8-4A86-A50F-6474302A7C9F";
paths = (
{
closed = 1;
nodes = (
"141 539 LINE SMOOTH",
"141 589 OFFCURVE",
"163 608 OFFCURVE",
"198 608 CURVE SMOOTH",
"233 608 OFFCURVE",
"255 589 OFFCURVE",
"255 539 CURVE SMOOTH",
"255 161 LINE SMOOTH",
"255 111 OFFCURVE",
"233 92 OFFCURVE",
"198 92 CURVE SMOOTH",
"163 92 OFFCURVE",
"141 111 OFFCURVE",
"141 161 CURVE SMOOTH"
);
},
{
closed = 1;
nodes = (
"31 168 LINE SMOOTH",
"31 56 OFFCURVE",
"90 -8 OFFCURVE",
"198 -8 CURVE SMOOTH",
"306 -8 OFFCURVE",
"365 56 OFFCURVE",
"365 168 CURVE SMOOTH",
"365 532 LINE SMOOTH",
"365 644 OFFCURVE",
"306 708 OFFCURVE",
"198 708 CURVE SMOOTH",
"90 708 OFFCURVE",
"31 644 OFFCURVE",
"31 532 CURVE SMOOTH"
);
}
);
width = 396;
}
);
leftKerningGroup = o;
note = o;
rightKerningGroup = o;
unicode = 006F;
},
{
glyphname = p;
lastChange = "2016-06-17 01:02:07 +0000";
layers = (
{
layerId = "26058A5B-27B8-4A86-A50F-6474302A7C9F";
paths = (
{
closed = 1;
nodes = (
"40 700 LINE",
"40 0 LINE",
"150 0 LINE",
"150 263 LINE",
"202 263 LINE SMOOTH",
"312 263 OFFCURVE",
"366 324 OFFCURVE",
"366 436 CURVE SMOOTH",
"366 527 LINE SMOOTH",
"366 639 OFFCURVE",
"312 700 OFFCURVE",
"202 700 CURVE SMOOTH"
);
},
{
closed = 1;
nodes = (
"202 600 LINE SMOOTH",
"237 600 OFFCURVE",
"256 584 OFFCURVE",
"256 534 CURVE SMOOTH",
"256 429 LINE SMOOTH",
"256 379 OFFCURVE",
"237 363 OFFCURVE",
"202 363 CURVE SMOOTH",
"150 363 LINE",
"150 600 LINE"
);
}
);
width = 377;
}
);
note = p;
rightKerningGroup = p;
unicode = 0070;
},
{
glyphname = q;
lastChange = "2016-06-17 01:02:07 +0000";
layers = (
{
layerId = "26058A5B-27B8-4A86-A50F-6474302A7C9F";
paths = (
{
closed = 1;
nodes = (
"31 168 LINE SMOOTH",
"31 56 OFFCURVE",
"90 -8 OFFCURVE",
"198 -8 CURVE SMOOTH",
"227 -8 OFFCURVE",
"253 -3 OFFCURVE",
"275 5 CURVE",
"290 -25 OFFCURVE",
"321 -43 OFFCURVE",
"370 -43 CURVE SMOOTH",
"385 -43 LINE",
"385 55 LINE",
"375 55 LINE SMOOTH",
"357 55 OFFCURVE",
"349 57 OFFCURVE",
"344 70 CURVE",
"358 96 OFFCURVE",
"365 129 OFFCURVE",
"365 168 CURVE SMOOTH",
"365 532 LINE SMOOTH",
"365 644 OFFCURVE",
"306 708 OFFCURVE",
"198 708 CURVE SMOOTH",
"90 708 OFFCURVE",
"31 644 OFFCURVE",
"31 532 CURVE SMOOTH"
);
},
{
closed = 1;
nodes = (
"141 539 LINE SMOOTH",
"141 589 OFFCURVE",
"163 608 OFFCURVE",
"198 608 CURVE SMOOTH",
"233 608 OFFCURVE",
"255 589 OFFCURVE",
"255 539 CURVE SMOOTH",
"255 161 LINE SMOOTH",
"255 111 OFFCURVE",
"233 92 OFFCURVE",
"198 92 CURVE SMOOTH",
"163 92 OFFCURVE",
"141 111 OFFCURVE",
"141 161 CURVE SMOOTH"
);
}
);
width = 396;
}
);
note = q;
unicode = 0071;
},
{
glyphname = r;
lastChange = "2016-06-17 01:02:07 +0000";
layers = (
{
layerId = "26058A5B-27B8-4A86-A50F-6474302A7C9F";
paths = (
{
closed = 1;
nodes = (
"382 0 LINE",
"371 26 OFFCURVE",
"370 51 OFFCURVE",
"370 85 CURVE SMOOTH",
"370 193 LINE SMOOTH",
"370 266 OFFCURVE",
"352 318 OFFCURVE",
"297 341 CURVE",
"297 343 LINE",
"346 366 OFFCURVE",
"369 412 OFFCURVE",
"369 484 CURVE SMOOTH",
"369 539 LINE SMOOTH",
"369 647 OFFCURVE",
"320 700 OFFCURVE",
"206 700 CURVE SMOOTH",
"40 700 LINE",
"40 0 LINE",
"150 0 LINE",
"150 285 LINE",
"188 285 LINE SMOOTH",
"238 285 OFFCURVE",
"260 261 OFFCURVE",
"260 196 CURVE SMOOTH",
"260 86 LINE SMOOTH",
"260 29 OFFCURVE",
"264 18 OFFCURVE",
"270 0 CURVE"
);
},
{
closed = 1;
nodes = (
"203 600 LINE SMOOTH",
"242 600 OFFCURVE",
"259 578 OFFCURVE",
"259 528 CURVE SMOOTH",
"259 459 LINE SMOOTH",
"259 403 OFFCURVE",
"234 385 OFFCURVE",
"193 385 CURVE SMOOTH",
"150 385 LINE",
"150 600 LINE"
);
}
);
width = 402;
}
);
note = r;
rightKerningGroup = r;
unicode = 0072;
},
{
glyphname = s;
lastChange = "2016-06-17 01:02:07 +0000";
layers = (
{
layerId = "26058A5B-27B8-4A86-A50F-6474302A7C9F";
paths = (
{
closed = 1;
nodes = (
"26 452 OFFCURVE",
"55 394 OFFCURVE",
"147 313 CURVE SMOOTH",
"219 250 OFFCURVE",
"241 212 OFFCURVE",
"241 161 CURVE SMOOTH",
"241 111 OFFCURVE",
"219 93 OFFCURVE",
"184 93 CURVE SMOOTH",
"149 93 OFFCURVE",
"127 111 OFFCURVE",
"127 161 CURVE SMOOTH",
"127 211 LINE",
"23 211 LINE",
"23 168 LINE SMOOTH",
"23 56 OFFCURVE",
"79 -8 OFFCURVE",
"187 -8 CURVE SMOOTH",
"295 -8 OFFCURVE",
"351 56 OFFCURVE",
"351 168 CURVE SMOOTH",
"351 248 OFFCURVE",
"322 306 OFFCURVE",
"230 387 CURVE SMOOTH",
"158 450 OFFCURVE",
"136 488 OFFCURVE",
"136 539 CURVE SMOOTH",
"136 589 OFFCURVE",
"156 608 OFFCURVE",
"191 608 CURVE SMOOTH",
"226 608 OFFCURVE",
"246 589 OFFCURVE",
"246 539 CURVE SMOOTH",
"246 510 LINE",
"350 510 LINE",
"350 532 LINE SMOOTH",
"350 644 OFFCURVE",
"295 708 OFFCURVE",
"188 708 CURVE SMOOTH",
"81 708 OFFCURVE",
"26 644 OFFCURVE",
"26 532 CURVE SMOOTH"
);
}
);
width = 374;
}
);
leftKerningGroup = s;
note = s;
rightKerningGroup = s;
unicode = 0073;
},
{
glyphname = t;
lastChange = "2016-06-17 01:02:07 +0000";
layers = (
{
layerId = "26058A5B-27B8-4A86-A50F-6474302A7C9F";
paths = (
{
closed = 1;
nodes = (
"8 600 LINE",
"123 600 LINE",
"123 0 LINE",
"233 0 LINE",
"233 600 LINE",
"348 600 LINE",
"348 700 LINE",
"8 700 LINE"
);
}
);
width = 356;
}
);
leftKerningGroup = t;
note = t;
rightKerningGroup = t;
unicode = 0074;
},
{
glyphname = u;
lastChange = "2016-06-17 01:02:07 +0000";
layers = (
{
layerId = "26058A5B-27B8-4A86-A50F-6474302A7C9F";
paths = (
{
closed = 1;
nodes = (
"35 700 LINE",
"35 167 LINE SMOOTH",
"35 55 OFFCURVE",
"91 -9 OFFCURVE",
"199 -9 CURVE SMOOTH",
"307 -9 OFFCURVE",
"363 55 OFFCURVE",
"363 167 CURVE SMOOTH",
"363 700 LINE",
"259 700 LINE",
"259 160 LINE SMOOTH",
"259 110 OFFCURVE",
"237 92 OFFCURVE",
"202 92 CURVE SMOOTH",
"167 92 OFFCURVE",
"145 110 OFFCURVE",
"145 160 CURVE SMOOTH",
"145 700 LINE"
);
}
);
width = 398;
}
);
leftKerningGroup = u;
note = u;
rightKerningGroup = u;
unicode = 0075;
},
{
glyphname = v;
lastChange = "2016-06-17 01:02:07 +0000";
layers = (
{
layerId = "26058A5B-27B8-4A86-A50F-6474302A7C9F";
paths = (
{
closed = 1;
nodes = (
"122 700 LINE",
"11 700 LINE",
"119 0 LINE",
"283 0 LINE",
"391 700 LINE",
"290 700 LINE",
"207 129 LINE",
"205 129 LINE"
);
}
);
width = 402;
}
);
note = v;
unicode = 0076;
},
{
glyphname = w;
lastChange = "2016-06-17 01:02:07 +0000";
layers = (
{
layerId = "26058A5B-27B8-4A86-A50F-6474302A7C9F";
paths = (
{
closed = 1;
nodes = (
"324 0 LINE",
"470 0 LINE",
"548 700 LINE",
"452 700 LINE",
"396 144 LINE",
"394 144 LINE",
"340 700 LINE",
"234 700 LINE",
"182 148 LINE",
"180 148 LINE",
"122 700 LINE",
"15 700 LINE",
"93 0 LINE",
"244 0 LINE",
"283 373 LINE",
"285 373 LINE"
);
}
);
width = 563;
}
);
leftKerningGroup = w;
note = w;
rightKerningGroup = w;
unicode = 0077;
},
{
glyphname = x;
lastChange = "2016-06-17 01:02:07 +0000";
layers = (
{
layerId = "26058A5B-27B8-4A86-A50F-6474302A7C9F";
paths = (
{
closed = 1;
nodes = (
"305 700 LINE",
"221 442 LINE",
"219 442 LINE",
"137 700 LINE",
"23 700 LINE",
"138 360 LINE",
"15 0 LINE",
"118 0 LINE",
"208 277 LINE",
"210 277 LINE",
"299 0 LINE",
"415 0 LINE",
"292 360 LINE",
"407 700 LINE"
);
}
);
width = 430;
}
);
note = x;
unicode = 0078;
},
{
glyphname = y;
lastChange = "2016-06-17 01:02:07 +0000";
layers = (
{
layerId = "26058A5B-27B8-4A86-A50F-6474302A7C9F";
paths = (
{
closed = 1;
nodes = (
"143 0 LINE",
"253 0 LINE",
"253 232 LINE",
"392 700 LINE",
"287 700 LINE",
"204 381 LINE",
"202 381 LINE",
"119 700 LINE",
"4 700 LINE",
"143 232 LINE"
);
}
);
width = 396;
}
);
leftKerningGroup = y;
note = y;
rightKerningGroup = y;
unicode = 0079;
},
{
glyphname = z;
lastChange = "2016-06-17 01:02:07 +0000";
layers = (
{
layerId = "26058A5B-27B8-4A86-A50F-6474302A7C9F";
paths = (
{
closed = 1;
nodes = (
"33 700 LINE",
"33 600 LINE",
"232 600 LINE",
"23 98 LINE",
"23 0 LINE",
"345 0 LINE",
"345 100 LINE",
"136 100 LINE",
"345 602 LINE",
"345 700 LINE"
);
}
);
width = 370;
}
);
leftKerningGroup = z;
note = z;
rightKerningGroup = z;
unicode = 007A;
},
{
glyphname = braceleft;
lastChange = "2016-06-17 01:02:07 +0000";
layers = (
{
layerId = "26058A5B-27B8-4A86-A50F-6474302A7C9F";
paths = (
{
closed = 1;
nodes = (
"153 363 OFFCURVE",
"165 402 OFFCURVE",
"167 439 CURVE SMOOTH",
"172 539 LINE SMOOTH",
"175 594 OFFCURVE",
"190 610 OFFCURVE",
"225 610 CURVE SMOOTH",
"241 610 LINE",
"241 700 LINE",
"185 700 LINE SMOOTH",
"123 700 OFFCURVE",
"79 665 OFFCURVE",
"74 589 CURVE SMOOTH",
"66 455 LINE SMOOTH",
"63 409 OFFCURVE",
"53 395 OFFCURVE",
"11 395 CURVE",
"11 305 LINE",
"53 305 OFFCURVE",
"63 291 OFFCURVE",
"66 245 CURVE SMOOTH",
"74 111 LINE SMOOTH",
"79 35 OFFCURVE",
"123 0 OFFCURVE",
"185 0 CURVE SMOOTH",
"241 0 LINE",
"241 90 LINE",
"225 90 LINE SMOOTH",
"190 90 OFFCURVE",
"175 106 OFFCURVE",
"172 161 CURVE SMOOTH",
"167 261 LINE SMOOTH",
"165 298 OFFCURVE",
"153 337 OFFCURVE",
"102 350 CURVE"
);
}
);
width = 257;
}
);
note = braceleft;
unicode = 007B;
},
{
glyphname = bar;
lastChange = "2016-06-17 01:02:07 +0000";
layers = (
{
layerId = "26058A5B-27B8-4A86-A50F-6474302A7C9F";
paths = (
{
closed = 1;
nodes = (
"210 -65 LINE",
"300 -65 LINE",
"300 765 LINE",
"210 765 LINE"
);
}
);
width = 500;
}
);
note = bar;
unicode = 007C;
},
{
glyphname = braceright;
lastChange = "2016-06-17 01:02:07 +0000";
layers = (
{
layerId = "26058A5B-27B8-4A86-A50F-6474302A7C9F";
paths = (
{
closed = 1;
nodes = (
"104 337 OFFCURVE",
"92 298 OFFCURVE",
"90 261 CURVE SMOOTH",
"85 161 LINE SMOOTH",
"82 106 OFFCURVE",
"67 90 OFFCURVE",
"32 90 CURVE SMOOTH",
"16 90 LINE",
"16 0 LINE",
"72 0 LINE SMOOTH",
"134 0 OFFCURVE",
"178 35 OFFCURVE",
"183 111 CURVE SMOOTH",
"191 245 LINE SMOOTH",
"194 291 OFFCURVE",
"204 305 OFFCURVE",
"246 305 CURVE",
"246 395 LINE",
"204 395 OFFCURVE",
"194 409 OFFCURVE",
"191 455 CURVE SMOOTH",
"183 589 LINE SMOOTH",
"178 665 OFFCURVE",
"134 700 OFFCURVE",
"72 700 CURVE SMOOTH",
"16 700 LINE",
"16 610 LINE",
"32 610 LINE SMOOTH",
"67 610 OFFCURVE",
"82 594 OFFCURVE",
"85 539 CURVE SMOOTH",
"90 439 LINE SMOOTH",
"92 402 OFFCURVE",
"104 363 OFFCURVE",
"155 350 CURVE"
);
}
);
width = 257;
}
);
note = braceright;
unicode = 007D;
},
{
glyphname = asciitilde;
lastChange = "2016-06-17 01:02:07 +0000";
layers = (
{
layerId = "26058A5B-27B8-4A86-A50F-6474302A7C9F";
paths = (
{
closed = 1;
nodes = (
"60 282 LINE",
"92 328 OFFCURVE",
"105 339 OFFCURVE",
"126 339 CURVE SMOOTH",
"141 339 OFFCURVE",
"156 333 OFFCURVE",
"189 311 CURVE SMOOTH",
"227 286 OFFCURVE",
"248 278 OFFCURVE",
"269 278 CURVE SMOOTH",
"313 278 OFFCURVE",
"346 302 OFFCURVE",
"388 364 CURVE",
"336 418 LINE",
"302 371 OFFCURVE",
"291 361 OFFCURVE",
"270 361 CURVE SMOOTH",
"255 361 OFFCURVE",
"240 367 OFFCURVE",
"207 389 CURVE SMOOTH",
"169 414 OFFCURVE",
"148 422 OFFCURVE",
"127 422 CURVE SMOOTH",
"85 422 OFFCURVE",
"52 397 OFFCURVE",
"8 332 CURVE"
);
}
);
width = 396;
}
);
note = asciitilde;
unicode = 007E;
},
{
glyphname = exclamdown;
lastChange = "2016-06-17 01:02:07 +0000";
layers = (
{
layerId = "26058A5B-27B8-4A86-A50F-6474302A7C9F";
paths = (
{
closed = 1;
nodes = (
"54 545 LINE",
"40 292 LINE",
"40 0 LINE",
"150 0 LINE",
"150 292 LINE",
"136 545 LINE"
);
},
{
closed = 1;
nodes = (
"148 594 LINE",
"148 700 LINE",
"42 700 LINE",
"42 594 LINE"
);
}
);
width = 190;
}
);
note = exclamdown;
unicode = 00A1;
},
{
glyphname = cent;
lastChange = "2016-06-17 01:02:07 +0000";
layers = (
{
layerId = "26058A5B-27B8-4A86-A50F-6474302A7C9F";
paths = (
{
closed = 1;
nodes = (
"153 -15 LINE",
"243 -15 LINE",
"243 36 LINE",
"323 51 OFFCURVE",
"364 112 OFFCURVE",
"364 208 CURVE SMOOTH",
"364 281 LINE",
"260 281 LINE",
"260 201 LINE SMOOTH",
"260 151 OFFCURVE",
"238 133 OFFCURVE",
"203 133 CURVE SMOOTH",
"168 133 OFFCURVE",
"146 151 OFFCURVE",
"146 201 CURVE SMOOTH",
"146 499 LINE SMOOTH",
"146 549 OFFCURVE",
"168 568 OFFCURVE",
"203 568 CURVE SMOOTH",
"238 568 OFFCURVE",
"260 549 OFFCURVE",
"260 499 CURVE SMOOTH",
"260 444 LINE",
"364 444 LINE",
"364 492 LINE SMOOTH",
"364 588 OFFCURVE",
"323 648 OFFCURVE",
"243 664 CURVE",
"243 715 LINE",
"153 715 LINE",
"153 663 LINE",
"76 646 OFFCURVE",
"36 586 OFFCURVE",
"36 492 CURVE SMOOTH",
"36 208 LINE SMOOTH",
"36 113 OFFCURVE",
"76 53 OFFCURVE",
"153 37 CURVE"
);
}
);
width = 396;
}
);
note = cent;
unicode = 00A2;
},
{
glyphname = sterling;
lastChange = "2016-06-17 01:02:07 +0000";
layers = (
{
layerId = "26058A5B-27B8-4A86-A50F-6474302A7C9F";
paths = (
{
closed = 1;
nodes = (
"125 210 LINE",
"123 138 OFFCURVE",
"82 96 OFFCURVE",
"30 96 CURVE",
"30 0 LINE",
"357 0 LINE",
"357 100 LINE",
"168 100 LINE",
"198 124 OFFCURVE",
"219 159 OFFCURVE",
"224 210 CURVE",
"338 210 LINE",
"338 295 LINE",
"217 295 LINE",
"213 312 OFFCURVE",
"210 325 OFFCURVE",
"191 366 CURVE SMOOTH",
"159 434 OFFCURVE",
"150 479 OFFCURVE",
"150 539 CURVE SMOOTH",
"150 589 OFFCURVE",
"170 608 OFFCURVE",
"205 608 CURVE SMOOTH",
"240 608 OFFCURVE",
"260 589 OFFCURVE",
"260 539 CURVE SMOOTH",
"260 463 LINE",
"364 463 LINE",
"364 532 LINE SMOOTH",
"364 644 OFFCURVE",
"309 708 OFFCURVE",
"202 708 CURVE SMOOTH",
"95 708 OFFCURVE",
"40 644 OFFCURVE",
"40 532 CURVE SMOOTH",
"40 467 OFFCURVE",
"51 422 OFFCURVE",
"86 351 CURVE SMOOTH",
"99 326 OFFCURVE",
"106 311 OFFCURVE",
"111 295 CURVE",
"44 295 LINE",
"44 210 LINE"
);
}
);
width = 396;
}
);
note = sterling;
unicode = 00A3;
},
{
glyphname = currency;
lastChange = "2016-06-17 01:02:07 +0000";
layers = (
{
layerId = "26058A5B-27B8-4A86-A50F-6474302A7C9F";
paths = (
{
closed = 1;
nodes = (
"134 385 OFFCURVE",
"163 414 OFFCURVE",
"198 414 CURVE SMOOTH",
"233 414 OFFCURVE",
"262 385 OFFCURVE",
"262 350 CURVE SMOOTH",
"262 315 OFFCURVE",
"233 286 OFFCURVE",
"198 286 CURVE SMOOTH",
"163 286 OFFCURVE",
"134 315 OFFCURVE",
"134 350 CURVE SMOOTH"
);
},
{
closed = 1;
nodes = (
"32 227 LINE",
"75 184 LINE",
"130 239 LINE",
"150 227 OFFCURVE",
"173 221 OFFCURVE",
"198 221 CURVE SMOOTH",
"222 221 OFFCURVE",
"246 227 OFFCURVE",
"265 239 CURVE",
"321 184 LINE",
"364 227 LINE",
"308 283 LINE",
"320 302 OFFCURVE",
"327 325 OFFCURVE",
"327 350 CURVE SMOOTH",
"327 374 OFFCURVE",
"320 397 OFFCURVE",
"308 417 CURVE",
"364 473 LINE",
"321 516 LINE",
"265 460 LINE",
"245 472 OFFCURVE",
"222 479 OFFCURVE",
"198 479 CURVE SMOOTH",
"173 479 OFFCURVE",
"150 472 OFFCURVE",
"131 460 CURVE",
"75 516 LINE",
"32 473 LINE",
"87 417 LINE",
"75 398 OFFCURVE",
"69 374 OFFCURVE",
"69 350 CURVE SMOOTH",
"69 325 OFFCURVE",
"75 302 OFFCURVE",
"87 282 CURVE"
);
}
);
width = 396;
}
);
note = currency;
unicode = 00A4;
},
{
glyphname = yen;
lastChange = "2016-06-17 01:02:07 +0000";
layers = (
{
layerId = "26058A5B-27B8-4A86-A50F-6474302A7C9F";
paths = (
{
closed = 1;
nodes = (
"284 700 LINE",
"204 391 LINE",
"202 391 LINE",
"122 700 LINE",
"7 700 LINE",
"134 271 LINE",
"52 271 LINE",
"52 216 LINE",
"143 216 LINE",
"143 171 LINE",
"52 171 LINE",
"52 116 LINE",
"143 116 LINE",
"143 0 LINE",
"253 0 LINE",
"253 116 LINE",
"344 116 LINE",
"344 171 LINE",
"253 171 LINE",
"253 216 LINE",
"344 216 LINE",
"344 271 LINE",
"261 271 LINE",
"389 700 LINE"
);
}
);
width = 396;
}
);
note = yen;
unicode = 00A5;
},
{
glyphname = brokenbar;
lastChange = "2016-06-17 01:02:07 +0000";
layers = (
{
layerId = "26058A5B-27B8-4A86-A50F-6474302A7C9F";
paths = (
{
closed = 1;
nodes = (
"210 410 LINE",
"300 410 LINE",
"300 765 LINE",
"210 765 LINE"
);
},
{
closed = 1;
nodes = (
"210 -65 LINE",
"300 -65 LINE",
"300 290 LINE",
"210 290 LINE"
);
}
);
width = 500;
}
);
note = brokenbar;
unicode = 00A6;
},
{
glyphname = section;
lastChange = "2016-06-17 01:02:07 +0000";
layers = (
{
layerId = "26058A5B-27B8-4A86-A50F-6474302A7C9F";
paths = (
{
closed = 1;
nodes = (
"35 235 OFFCURVE",
"73 184 OFFCURVE",
"174 142 CURVE SMOOTH",
"234 117 OFFCURVE",
"250 99 OFFCURVE",
"250 74 CURVE SMOOTH",
"250 38 OFFCURVE",
"230 18 OFFCURVE",
"195 18 CURVE SMOOTH",
"160 18 OFFCURVE",
"140 42 OFFCURVE",
"140 78 CURVE SMOOTH",
"140 113 LINE",
"36 113 LINE",
"36 63 LINE SMOOTH",
"36 -17 OFFCURVE",
"91 -73 OFFCURVE",
"198 -73 CURVE SMOOTH",
"305 -73 OFFCURVE",
"360 -11 OFFCURVE",
"360 69 CURVE SMOOTH",
"360 137 OFFCURVE",
"329 173 OFFCURVE",
"290 197 CURVE",
"290 199 LINE",
"336 225 OFFCURVE",
"360 270 OFFCURVE",
"360 321 CURVE SMOOTH",
"360 400 OFFCURVE",
"322 452 OFFCURVE",
"221 493 CURVE SMOOTH",
"162 517 OFFCURVE",
"145 536 OFFCURVE",
"145 561 CURVE SMOOTH",
"145 597 OFFCURVE",
"165 617 OFFCURVE",
"200 617 CURVE SMOOTH",
"235 617 OFFCURVE",
"255 593 OFFCURVE",
"255 557 CURVE SMOOTH",
"255 536 LINE",
"359 536 LINE",
"359 572 LINE SMOOTH",
"359 652 OFFCURVE",
"304 708 OFFCURVE",
"197 708 CURVE SMOOTH",
"90 708 OFFCURVE",
"35 646 OFFCURVE",
"35 566 CURVE SMOOTH",
"35 497 OFFCURVE",
"66 462 OFFCURVE",
"104 437 CURVE",
"104 435 LINE",
"58 409 OFFCURVE",
"35 365 OFFCURVE",
"35 314 CURVE SMOOTH"
);
},
{
closed = 1;
nodes = (
"140 357 OFFCURVE",
"162 388 OFFCURVE",
"193 393 CURVE",
"236 373 OFFCURVE",
"255 350 OFFCURVE",
"255 317 CURVE SMOOTH",
"255 278 OFFCURVE",
"232 246 OFFCURVE",
"201 241 CURVE",
"158 262 OFFCURVE",
"140 284 OFFCURVE",
"140 318 CURVE SMOOTH"
);
}
);
width = 396;
}
);
note = section;
unicode = 00A7;
},
{
glyphname = dieresis;
lastChange = "2016-06-17 01:02:07 +0000";
layers = (
{
layerId = "26058A5B-27B8-4A86-A50F-6474302A7C9F";
paths = (
{
closed = 1;
nodes = (
"1 833 LINE",
"1 737 LINE",
"97 737 LINE",
"97 833 LINE"
);
},
{
closed = 1;
nodes = (
"153 833 LINE",
"153 737 LINE",
"249 737 LINE",
"249 833 LINE"
);
}
);
width = 250;
}
);
note = dieresis;
unicode = 00A8;
},
{
glyphname = copyright;
lastChange = "2016-06-17 01:02:07 +0000";
layers = (
{
layerId = "26058A5B-27B8-4A86-A50F-6474302A7C9F";
paths = (
{
closed = 1;
nodes = (
"405 308 LINE",
"405 248 LINE SMOOTH",
"405 213 OFFCURVE",
"390 201 OFFCURVE",
"366 201 CURVE SMOOTH",
"342 201 OFFCURVE",
"327 213 OFFCURVE",
"327 248 CURVE SMOOTH",
"327 452 LINE SMOOTH",
"327 487 OFFCURVE",
"342 500 OFFCURVE",
"366 500 CURVE SMOOTH",
"390 500 OFFCURVE",
"405 487 OFFCURVE",
"405 452 CURVE SMOOTH",
"405 410 LINE",
"477 410 LINE",
"477 446 LINE SMOOTH",
"477 526 OFFCURVE",
"439 570 OFFCURVE",
"364 570 CURVE SMOOTH",
"289 570 OFFCURVE",
"251 526 OFFCURVE",
"251 446 CURVE SMOOTH",
"251 252 LINE SMOOTH",
"251 174 OFFCURVE",
"289 130 OFFCURVE",
"364 130 CURVE SMOOTH",
"439 130 OFFCURVE",
"477 174 OFFCURVE",
"477 252 CURVE SMOOTH",
"477 308 LINE"
);
},
{
closed = 1;
nodes = (
"20 142 OFFCURVE",
"170 -8 OFFCURVE",
"368 -8 CURVE SMOOTH",
"566 -8 OFFCURVE",
"716 142 OFFCURVE",
"716 350 CURVE SMOOTH",
"716 558 OFFCURVE",
"566 708 OFFCURVE",
"368 708 CURVE SMOOTH",
"170 708 OFFCURVE",
"20 558 OFFCURVE",
"20 350 CURVE SMOOTH"
);
},
{
closed = 1;
nodes = (
"92 517 OFFCURVE",
"210 638 OFFCURVE",
"368 638 CURVE SMOOTH",
"526 638 OFFCURVE",
"644 517 OFFCURVE",
"644 350 CURVE SMOOTH",
"644 183 OFFCURVE",
"526 62 OFFCURVE",
"368 62 CURVE SMOOTH",
"210 62 OFFCURVE",
"92 183 OFFCURVE",
"92 350 CURVE SMOOTH"
);
}
);
width = 736;
}
);
note = copyright;
unicode = 00A9;
},
{
glyphname = ordfeminine;
lastChange = "2016-06-17 01:02:07 +0000";
layers = (
{
layerId = "26058A5B-27B8-4A86-A50F-6474302A7C9F";
paths = (
{
closed = 1;
nodes = (
"30 429 LINE SMOOTH",
"30 363 OFFCURVE",
"56 328 OFFCURVE",
"108 328 CURVE SMOOTH",
"144 328 OFFCURVE",
"167 346 OFFCURVE",
"178 381 CURVE",
"180 381 LINE",
"183 333 LINE",
"242 333 LINE",
"242 594 LINE SMOOTH",
"242 664 OFFCURVE",
"214 705 OFFCURVE",
"147 705 CURVE SMOOTH",
"78 705 OFFCURVE",
"44 664 OFFCURVE",
"44 594 CURVE SMOOTH",
"44 575 LINE",
"110 575 LINE",
"110 598 LINE SMOOTH",
"110 630 OFFCURVE",
"122 641 OFFCURVE",
"144 641 CURVE SMOOTH",
"163 641 OFFCURVE",
"172 630 OFFCURVE",
"172 604 CURVE SMOOTH",
"172 558 LINE",
"89 555 OFFCURVE",
"30 528 OFFCURVE",
"30 433 CURVE SMOOTH"
);
},
{
closed = 1;
nodes = (
"30 287 LINE",
"30 218 LINE",
"242 218 LINE",
"242 287 LINE"
);
},
{
closed = 1;
nodes = (
"100 444 LINE SMOOTH",
"100 471 OFFCURVE",
"110 503 OFFCURVE",
"172 506 CURVE",
"172 428 LINE",
"170 401 OFFCURVE",
"157 392 OFFCURVE",
"136 392 CURVE SMOOTH",
"114 392 OFFCURVE",
"100 403 OFFCURVE",
"100 435 CURVE SMOOTH"
);
}
);
width = 278;
}
);
note = ordfeminine;
unicode = 00AA;
},
{
glyphname = guillemotleft;
lastChange = "2016-06-17 01:02:07 +0000";
layers = (
{
layerId = "26058A5B-27B8-4A86-A50F-6474302A7C9F";
paths = (
{
closed = 1;
nodes = (
"78 608 LINE",
"16 351 LINE",
"78 78 LINE",
"177 78 LINE",
"116 351 LINE",
"177 608 LINE"
);
},
{
closed = 1;
nodes = (
"240 608 LINE",
"178 351 LINE",
"240 78 LINE",
"339 78 LINE",
"278 351 LINE",
"339 608 LINE"
);
}
);
width = 355;
}
);
note = guillemotleft;
unicode = 00AB;
},
{
glyphname = logicalnot;
lastChange = "2016-06-17 01:02:07 +0000";
layers = (
{
layerId = "26058A5B-27B8-4A86-A50F-6474302A7C9F";
paths = (
{
closed = 1;
nodes = (
"25 389 LINE",
"25 311 LINE",
"293 311 LINE",
"293 174 LINE",
"371 174 LINE",
"371 389 LINE"
);
}
);
width = 396;
}
);
note = logicalnot;
unicode = 00AC;
},
{
glyphname = uni00AD;
lastChange = "2016-06-17 01:02:07 +0000";
layers = (
{
layerId = "26058A5B-27B8-4A86-A50F-6474302A7C9F";
paths = (
{
closed = 1;
nodes = (
"35 300 LINE",
"235 300 LINE",
"235 400 LINE",
"35 400 LINE"
);
}
);
width = 270;
}
);
leftKerningGroup = hyphen;
note = uni00AD;
rightKerningGroup = hyphen;
unicode = 00AD;
},
{
glyphname = registered;
lastChange = "2016-06-17 01:02:07 +0000";
layers = (
{
layerId = "26058A5B-27B8-4A86-A50F-6474302A7C9F";
paths = (
{
closed = 1;
nodes = (
"20 142 OFFCURVE",
"170 -8 OFFCURVE",
"368 -8 CURVE SMOOTH",
"566 -8 OFFCURVE",
"716 142 OFFCURVE",
"716 350 CURVE SMOOTH",
"716 558 OFFCURVE",
"566 708 OFFCURVE",
"368 708 CURVE SMOOTH",
"170 708 OFFCURVE",
"20 558 OFFCURVE",
"20 350 CURVE SMOOTH"
);
},
{
closed = 1;
nodes = (
"92 517 OFFCURVE",
"210 638 OFFCURVE",
"368 638 CURVE SMOOTH",
"526 638 OFFCURVE",
"644 517 OFFCURVE",
"644 350 CURVE SMOOTH",
"644 183 OFFCURVE",
"526 62 OFFCURVE",
"368 62 CURVE SMOOTH",
"210 62 OFFCURVE",
"92 183 OFFCURVE",
"92 350 CURVE SMOOTH"
);
},
{
closed = 1;
nodes = (
"496 136 LINE",
"488 154 OFFCURVE",
"487 172 OFFCURVE",
"487 195 CURVE SMOOTH",
"487 241 LINE SMOOTH",
"487 292 OFFCURVE",
"474 327 OFFCURVE",
"435 343 CURVE",
"435 345 LINE",
"471 361 OFFCURVE",
"487 392 OFFCURVE",
"487 443 CURVE SMOOTH",
"487 452 LINE SMOOTH",
"487 527 OFFCURVE",
"452 564 OFFCURVE",
"374 564 CURVE SMOOTH",
"258 564 LINE",
"258 136 LINE",
"334 136 LINE",
"334 304 LINE",
"360 304 LINE SMOOTH",
"395 304 OFFCURVE",
"411 288 OFFCURVE",
"411 242 CURVE SMOOTH",
"411 196 LINE SMOOTH",
"411 156 OFFCURVE",
"413 149 OFFCURVE",
"418 136 CURVE"
);
},
{
closed = 1;
nodes = (
"370 494 LINE SMOOTH",
"399 494 OFFCURVE",
"411 478 OFFCURVE",
"411 443 CURVE SMOOTH",
"411 425 LINE SMOOTH",
"411 386 OFFCURVE",
"393 374 OFFCURVE",
"365 374 CURVE SMOOTH",
"334 374 LINE",
"334 494 LINE"
);
}
);
width = 736;
}
);
note = registered;
unicode = 00AE;
},
{
glyphname = macron;
lastChange = "2016-06-17 01:02:07 +0000";
layers = (
{
layerId = "26058A5B-27B8-4A86-A50F-6474302A7C9F";
paths = (
{
closed = 1;
nodes = (
"10 819 LINE",
"10 741 LINE",
"240 741 LINE",
"240 819 LINE"
);
}
);
width = 250;
}
);
note = macron;
unicode = 00AF;
},
{
glyphname = degree;
lastChange = "2016-06-17 01:02:07 +0000";
layers = (
{
layerId = "26058A5B-27B8-4A86-A50F-6474302A7C9F";
paths = (
{
closed = 1;
nodes = (
"15 554 OFFCURVE",
"59 510 OFFCURVE",
"114 510 CURVE SMOOTH",
"169 510 OFFCURVE",
"213 554 OFFCURVE",
"213 609 CURVE SMOOTH",
"213 664 OFFCURVE",
"169 708 OFFCURVE",
"114 708 CURVE SMOOTH",
"59 708 OFFCURVE",
"15 664 OFFCURVE",
"15 609 CURVE SMOOTH"
);
},
{
closed = 1;
nodes = (
"65 636 OFFCURVE",
"87 658 OFFCURVE",
"114 658 CURVE SMOOTH",
"141 658 OFFCURVE",
"163 636 OFFCURVE",
"163 609 CURVE SMOOTH",
"163 582 OFFCURVE",
"141 560 OFFCURVE",
"114 560 CURVE SMOOTH",
"87 560 OFFCURVE",
"65 582 OFFCURVE",
"65 609 CURVE SMOOTH"
);
}
);
width = 228;
}
);
note = degree;
unicode = 00B0;
},
{
glyphname = plusminus;
lastChange = "2016-06-17 01:02:07 +0000";
layers = (
{
layerId = "26058A5B-27B8-4A86-A50F-6474302A7C9F";
paths = (
{
closed = 1;
nodes = (
"237 252 LINE",
"237 332 LINE",
"361 332 LINE",
"361 410 LINE",
"237 410 LINE",
"237 524 LINE",
"159 524 LINE",
"159 410 LINE",
"35 410 LINE",
"35 332 LINE",
"159 332 LINE",
"159 252 LINE",
"35 252 LINE",
"35 174 LINE",
"361 174 LINE",
"361 252 LINE"
);
}
);
width = 396;
}
);
note = plusminus;
unicode = 00B1;
},
{
glyphname = twosuperior;
lastChange = "2016-06-17 01:02:07 +0000";
layers = (
{
layerId = "26058A5B-27B8-4A86-A50F-6474302A7C9F";
paths = (
{
closed = 1;
nodes = (
"180 639 OFFCURVE",
"163 601 OFFCURVE",
"111 547 CURVE SMOOTH",
"58 491 OFFCURVE",
"42 454 OFFCURVE",
"42 405 CURVE SMOOTH",
"42 351 LINE",
"244 351 LINE",
"244 414 LINE",
"112 414 LINE",
"111 416 OFFCURVE",
"111 418 OFFCURVE",
"111 424 CURVE SMOOTH",
"111 447 OFFCURVE",
"121 467 OFFCURVE",
"164 513 CURVE SMOOTH",
"229 582 OFFCURVE",
"250 631 OFFCURVE",
"250 690 CURVE SMOOTH",
"250 762 OFFCURVE",
"214 801 OFFCURVE",
"146 801 CURVE SMOOTH",
"78 801 OFFCURVE",
"42 762 OFFCURVE",
"42 690 CURVE SMOOTH",
"42 647 LINE",
"108 647 LINE",
"108 694 LINE SMOOTH",
"108 723 OFFCURVE",
"120 738 OFFCURVE",
"144 738 CURVE SMOOTH",
"169 738 OFFCURVE",
"180 723 OFFCURVE",
"180 688 CURVE SMOOTH"
);
}
);
width = 280;
}
);
note = twosuperior;
unicode = 00B2;
},
{
glyphname = threesuperior;
lastChange = "2016-06-17 01:02:07 +0000";
layers = (
{
layerId = "26058A5B-27B8-4A86-A50F-6474302A7C9F";
paths = (
{
closed = 1;
nodes = (
"174 460 LINE SMOOTH",
"174 420 OFFCURVE",
"160 409 OFFCURVE",
"138 409 CURVE SMOOTH",
"116 409 OFFCURVE",
"102 422 OFFCURVE",
"102 453 CURVE SMOOTH",
"102 494 LINE",
"36 494 LINE",
"36 458 LINE SMOOTH",
"36 386 OFFCURVE",
"71 346 OFFCURVE",
"140 346 CURVE SMOOTH",
"209 346 OFFCURVE",
"244 386 OFFCURVE",
"244 458 CURVE SMOOTH",
"244 493 LINE SMOOTH",
"244 538 OFFCURVE",
"230 570 OFFCURVE",
"195 585 CURVE",
"195 587 LINE",
"229 601 OFFCURVE",
"244 629 OFFCURVE",
"244 677 CURVE SMOOTH",
"244 688 LINE SMOOTH",
"244 760 OFFCURVE",
"209 800 OFFCURVE",
"140 800 CURVE SMOOTH",
"71 800 OFFCURVE",
"36 760 OFFCURVE",
"36 688 CURVE SMOOTH",
"36 665 LINE",
"102 665 LINE",
"102 693 LINE SMOOTH",
"102 724 OFFCURVE",
"116 737 OFFCURVE",
"138 737 CURVE SMOOTH",
"160 737 OFFCURVE",
"174 726 OFFCURVE",
"174 686 CURVE SMOOTH",
"174 661 LINE SMOOTH",
"174 626 OFFCURVE",
"158 613 OFFCURVE",
"132 613 CURVE SMOOTH",
"105 613 LINE",
"105 550 LINE",
"129 550 LINE SMOOTH",
"160 550 OFFCURVE",
"174 536 OFFCURVE",
"174 494 CURVE SMOOTH"
);
}
);
width = 280;
}
);
note = threesuperior;
unicode = 00B3;
},
{
glyphname = acute;
lastChange = "2016-06-17 01:02:07 +0000";
layers = (
{
layerId = "26058A5B-27B8-4A86-A50F-6474302A7C9F";
paths = (
{
closed = 1;
nodes = (
"95 848 LINE",
"27 737 LINE",
"101 737 LINE",
"203 848 LINE"
);
}
);
width = 250;
}
);
note = acute;
unicode = 00B4;
},
{
glyphname = uni00B5;
lastChange = "2016-06-17 01:02:07 +0000";
layers = (
{
layerId = "26058A5B-27B8-4A86-A50F-6474302A7C9F";
paths = (
{
closed = 1;
nodes = (
"141 500 LINE",
"31 500 LINE",
"31 -93 LINE",
"141 -93 LINE",
"141 -6 LINE",
"148 -7 OFFCURVE",
"156 -8 OFFCURVE",
"165 -8 CURVE SMOOTH",
"210 -8 OFFCURVE",
"245 13 OFFCURVE",
"265 52 CURVE",
"265 0 LINE",
"365 0 LINE",
"365 500 LINE",
"255 500 LINE",
"255 161 LINE SMOOTH",
"255 111 OFFCURVE",
"233 92 OFFCURVE",
"198 92 CURVE SMOOTH",
"163 92 OFFCURVE",
"141 111 OFFCURVE",
"141 161 CURVE SMOOTH"
);
}
);
width = 396;
}
);
note = uni00B5;
unicode = 00B5;
},
{
glyphname = paragraph;
lastChange = "2016-06-17 01:02:07 +0000";
layers = (
{
layerId = "26058A5B-27B8-4A86-A50F-6474302A7C9F";
paths = (
{
closed = 1;
nodes = (
"356 700 LINE",
"178 700 LINE SMOOTH",
"68 700 OFFCURVE",
"14 639 OFFCURVE",
"14 527 CURVE SMOOTH",
"14 436 LINE SMOOTH",
"14 336 OFFCURVE",
"58 265 OFFCURVE",
"142 265 CURVE",
"142 -65 LINE",
"222 -65 LINE",
"222 620 LINE",
"276 620 LINE",
"276 -65 LINE",
"356 -65 LINE"
);
}
);
width = 396;
}
);
note = paragraph;
unicode = 00B6;
},
{
glyphname = periodcentered;
lastChange = "2016-06-17 01:02:07 +0000";
layers = (
{
layerId = "26058A5B-27B8-4A86-A50F-6474302A7C9F";
paths = (
{
closed = 1;
nodes = (
"40 403 LINE",
"40 297 LINE",
"146 297 LINE",
"146 403 LINE"
);
}
);
width = 186;
}
);
note = periodcentered;
unicode = 00B7;
},
{
glyphname = cedilla;
lastChange = "2016-06-17 01:02:07 +0000";
layers = (
{
layerId = "26058A5B-27B8-4A86-A50F-6474302A7C9F";
paths = (
{
closed = 1;
nodes = (
"26 -89 LINE SMOOTH",
"26 -135 OFFCURVE",
"67 -147 OFFCURVE",
"122 -147 CURVE SMOOTH",
"181 -147 OFFCURVE",
"223 -140 OFFCURVE",
"223 -86 CURVE SMOOTH",
"223 -51 OFFCURVE",
"198 -39 OFFCURVE",
"149 -39 CURVE",
"149 14 LINE",
"101 14 LINE",
"101 -57 LINE",
"111 -57 LINE SMOOTH",
"135 -57 OFFCURVE",
"147 -64 OFFCURVE",
"147 -83 CURVE SMOOTH",
"147 -100 OFFCURVE",
"139 -107 OFFCURVE",
"122 -107 CURVE SMOOTH",
"111 -107 OFFCURVE",
"100 -102 OFFCURVE",
"100 -87 CURVE SMOOTH",
"100 -79 LINE",
"26 -79 LINE"
);
}
);
width = 250;
}
);
note = cedilla;
unicode = 00B8;
},
{
glyphname = onesuperior;
lastChange = "2016-06-17 01:02:07 +0000";
layers = (
{
layerId = "26058A5B-27B8-4A86-A50F-6474302A7C9F";
paths = (
{
closed = 1;
nodes = (
"25 690 LINE",
"79 690 LINE",
"79 351 LINE",
"149 351 LINE",
"149 795 LINE",
"103 795 LINE",
"91 765 OFFCURVE",
"79 739 OFFCURVE",
"25 739 CURVE"
);
}
);
width = 200;
}
);
note = onesuperior;
unicode = 00B9;
},
{
glyphname = ordmasculine;
lastChange = "2016-06-17 01:02:07 +0000";
layers = (
{
layerId = "26058A5B-27B8-4A86-A50F-6474302A7C9F";
paths = (
{
closed = 1;
nodes = (
"104 598 LINE SMOOTH",
"104 630 OFFCURVE",
"117 641 OFFCURVE",
"140 641 CURVE SMOOTH",
"162 641 OFFCURVE",
"176 630 OFFCURVE",
"176 598 CURVE SMOOTH",
"176 435 LINE SMOOTH",
"176 403 OFFCURVE",
"162 392 OFFCURVE",
"140 392 CURVE SMOOTH",
"117 392 OFFCURVE",
"104 403 OFFCURVE",
"104 435 CURVE SMOOTH"
);
},
{
closed = 1;
nodes = (
"34 439 LINE SMOOTH",
"34 369 OFFCURVE",
"71 328 OFFCURVE",
"140 328 CURVE SMOOTH",
"209 328 OFFCURVE",
"246 369 OFFCURVE",
"246 439 CURVE SMOOTH",
"246 594 LINE SMOOTH",
"246 664 OFFCURVE",
"209 705 OFFCURVE",
"140 705 CURVE SMOOTH",
"71 705 OFFCURVE",
"34 664 OFFCURVE",
"34 594 CURVE SMOOTH"
);
},
{
closed = 1;
nodes = (
"34 287 LINE",
"34 218 LINE",
"246 218 LINE",
"246 287 LINE"
);
}
);
width = 280;
}
);
note = ordmasculine;
unicode = 00BA;
},
{
glyphname = guillemotright;
lastChange = "2016-06-17 01:02:07 +0000";
layers = (
{
layerId = "26058A5B-27B8-4A86-A50F-6474302A7C9F";
paths = (
{
closed = 1;
nodes = (
"178 608 LINE",
"239 351 LINE",
"178 78 LINE",
"277 78 LINE",
"339 351 LINE",
"277 608 LINE"
);
},
{
closed = 1;
nodes = (
"16 608 LINE",
"77 351 LINE",
"16 78 LINE",
"115 78 LINE",
"177 351 LINE",
"115 608 LINE"
);
}
);
width = 355;
}
);
note = guillemotright;
unicode = 00BB;
},
{
glyphname = onequarter;
lastChange = "2016-06-17 01:02:07 +0000";
layers = (
{
layerId = "26058A5B-27B8-4A86-A50F-6474302A7C9F";
paths = (
{
closed = 1;
nodes = (
"65 595 LINE",
"119 595 LINE",
"119 256 LINE",
"189 256 LINE",
"189 700 LINE",
"143 700 LINE",
"131 670 OFFCURVE",
"119 644 OFFCURVE",
"65 644 CURVE"
);
},
{
closed = 1;
nodes = (
"160 0 LINE",
"225 0 LINE",
"501 700 LINE",
"436 700 LINE"
);
},
{
closed = 1;
nodes = (
"371 80 LINE",
"505 80 LINE",
"505 0 LINE",
"574 0 LINE",
"574 80 LINE",
"607 80 LINE",
"607 144 LINE",
"574 144 LINE",
"574 444 LINE",
"498 444 LINE",
"371 144 LINE"
);
},
{
closed = 1;
nodes = (
"434 144 LINE",
"503 308 LINE",
"505 308 LINE",
"505 144 LINE"
);
}
);
width = 627;
}
);
note = onequarter;
unicode = 00BC;
},
{
glyphname = onehalf;
lastChange = "2016-06-17 01:02:07 +0000";
layers = (
{
layerId = "26058A5B-27B8-4A86-A50F-6474302A7C9F";
paths = (
{
closed = 1;
nodes = (
"65 595 LINE",
"119 595 LINE",
"119 256 LINE",
"189 256 LINE",
"189 700 LINE",
"143 700 LINE",
"131 670 OFFCURVE",
"119 644 OFFCURVE",
"65 644 CURVE"
);
},
{
closed = 1;
nodes = (
"130 0 LINE",
"195 0 LINE",
"471 700 LINE",
"406 700 LINE"
);
},
{
closed = 1;
nodes = (
"527 288 OFFCURVE",
"510 250 OFFCURVE",
"458 196 CURVE SMOOTH",
"405 140 OFFCURVE",
"389 103 OFFCURVE",
"389 54 CURVE SMOOTH",
"389 0 LINE",
"591 0 LINE",
"591 63 LINE",
"459 63 LINE",
"458 65 OFFCURVE",
"458 67 OFFCURVE",
"458 73 CURVE SMOOTH",
"458 96 OFFCURVE",
"468 116 OFFCURVE",
"511 162 CURVE SMOOTH",
"576 231 OFFCURVE",
"597 280 OFFCURVE",
"597 339 CURVE SMOOTH",
"597 411 OFFCURVE",
"561 450 OFFCURVE",
"493 450 CURVE SMOOTH",
"425 450 OFFCURVE",
"389 411 OFFCURVE",
"389 339 CURVE SMOOTH",
"389 296 LINE",
"455 296 LINE",
"455 343 LINE SMOOTH",
"455 372 OFFCURVE",
"467 387 OFFCURVE",
"491 387 CURVE SMOOTH",
"516 387 OFFCURVE",
"527 372 OFFCURVE",
"527 337 CURVE SMOOTH"
);
}
);
width = 627;
}
);
note = onehalf;
unicode = 00BD;
},
{
glyphname = threequarters;
lastChange = "2016-06-17 01:02:07 +0000";
layers = (
{
layerId = "26058A5B-27B8-4A86-A50F-6474302A7C9F";
paths = (
{
closed = 1;
nodes = (
"174 365 LINE SMOOTH",
"174 325 OFFCURVE",
"160 314 OFFCURVE",
"138 314 CURVE SMOOTH",
"116 314 OFFCURVE",
"102 327 OFFCURVE",
"102 358 CURVE SMOOTH",
"102 399 LINE",
"36 399 LINE",
"36 363 LINE SMOOTH",
"36 291 OFFCURVE",
"71 251 OFFCURVE",
"140 251 CURVE SMOOTH",
"209 251 OFFCURVE",
"244 291 OFFCURVE",
"244 363 CURVE SMOOTH",
"244 398 LINE SMOOTH",
"244 443 OFFCURVE",
"230 475 OFFCURVE",
"195 490 CURVE",
"195 492 LINE",
"229 506 OFFCURVE",
"244 534 OFFCURVE",
"244 582 CURVE SMOOTH",
"244 593 LINE SMOOTH",
"244 665 OFFCURVE",
"209 705 OFFCURVE",
"140 705 CURVE SMOOTH",
"71 705 OFFCURVE",
"36 665 OFFCURVE",
"36 593 CURVE SMOOTH",
"36 570 LINE",
"102 570 LINE",
"102 598 LINE SMOOTH",
"102 629 OFFCURVE",
"116 642 OFFCURVE",
"138 642 CURVE SMOOTH",
"160 642 OFFCURVE",
"174 631 OFFCURVE",
"174 591 CURVE SMOOTH",
"174 566 LINE SMOOTH",
"174 531 OFFCURVE",
"158 518 OFFCURVE",
"132 518 CURVE SMOOTH",
"105 518 LINE",
"105 455 LINE",
"129 455 LINE SMOOTH",
"160 455 OFFCURVE",
"174 441 OFFCURVE",
"174 399 CURVE SMOOTH"
);
},
{
closed = 1;
nodes = (
"170 0 LINE",
"235 0 LINE",
"511 700 LINE",
"446 700 LINE"
);
},
{
closed = 1;
nodes = (
"371 80 LINE",
"505 80 LINE",
"505 0 LINE",
"574 0 LINE",
"574 80 LINE",
"607 80 LINE",
"607 144 LINE",
"574 144 LINE",
"574 444 LINE",
"498 444 LINE",
"371 144 LINE"
);
},
{
closed = 1;
nodes = (
"434 144 LINE",
"503 308 LINE",
"505 308 LINE",
"505 144 LINE"
);
}
);
width = 627;
}
);
note = threequarters;
unicode = 00BE;
},
{
glyphname = questiondown;
lastChange = "2016-06-17 01:02:07 +0000";
layers = (
{
layerId = "26058A5B-27B8-4A86-A50F-6474302A7C9F";
paths = (
{
closed = 1;
nodes = (
"142 545 LINE",
"145 532 OFFCURVE",
"146 519 OFFCURVE",
"146 506 CURVE SMOOTH",
"146 461 OFFCURVE",
"133 427 OFFCURVE",
"90 369 CURVE SMOOTH",
"36 297 OFFCURVE",
"16 243 OFFCURVE",
"16 168 CURVE SMOOTH",
"16 56 OFFCURVE",
"71 -8 OFFCURVE",
"178 -8 CURVE SMOOTH",
"285 -8 OFFCURVE",
"340 56 OFFCURVE",
"340 168 CURVE SMOOTH",
"340 237 LINE",
"236 237 LINE",
"236 161 LINE SMOOTH",
"236 111 OFFCURVE",
"216 92 OFFCURVE",
"181 92 CURVE SMOOTH",
"146 92 OFFCURVE",
"126 111 OFFCURVE",
"126 161 CURVE SMOOTH",
"126 228 OFFCURVE",
"140 274 OFFCURVE",
"189 344 CURVE SMOOTH",
"232 405 OFFCURVE",
"246 446 OFFCURVE",
"246 502 CURVE SMOOTH",
"246 520 OFFCURVE",
"244 533 OFFCURVE",
"240 545 CURVE"
);
},
{
closed = 1;
nodes = (
"245 594 LINE",
"245 700 LINE",
"139 700 LINE",
"139 594 LINE"
);
}
);
width = 360;
}
);
note = questiondown;
unicode = 00BF;
},
{
glyphname = Agrave;
lastChange = "2016-06-17 01:02:07 +0000";
layers = (
{
layerId = "26058A5B-27B8-4A86-A50F-6474302A7C9F";
paths = (
{
closed = 1;
nodes = (
"284 700 LINE",
"123 700 LINE",
"11 0 LINE",
"112 0 LINE",
"131 127 LINE",
"266 127 LINE",
"285 0 LINE",
"396 0 LINE"
);
},
{
closed = 1;
nodes = (
"197 576 LINE",
"199 576 LINE",
"251 222 LINE",
"145 222 LINE"
);
},
{
closed = 1;
nodes = (
"83 848 LINE",
"185 737 LINE",
"264 737 LINE",
"196 848 LINE"
);
}
);
width = 407;
}
);
leftKerningGroup = A;
note = Agrave;
rightKerningGroup = A;
unicode = 00C0;
},
{
glyphname = Aacute;
lastChange = "2016-06-17 01:02:07 +0000";
layers = (
{
layerId = "26058A5B-27B8-4A86-A50F-6474302A7C9F";
paths = (
{
closed = 1;
nodes = (
"284 700 LINE",
"123 700 LINE",
"11 0 LINE",
"112 0 LINE",
"131 127 LINE",
"266 127 LINE",
"285 0 LINE",
"396 0 LINE"
);
},
{
closed = 1;
nodes = (
"197 576 LINE",
"199 576 LINE",
"251 222 LINE",
"145 222 LINE"
);
},
{
closed = 1;
nodes = (
"213 848 LINE",
"145 737 LINE",
"219 737 LINE",
"321 848 LINE"
);
}
);
width = 407;
}
);
leftKerningGroup = A;
note = Aacute;
rightKerningGroup = A;
unicode = 00C1;
},
{
glyphname = Acircumflex;
lastChange = "2016-06-17 01:02:07 +0000";
layers = (
{
layerId = "26058A5B-27B8-4A86-A50F-6474302A7C9F";
paths = (
{
closed = 1;
nodes = (
"284 700 LINE",
"123 700 LINE",
"11 0 LINE",
"112 0 LINE",
"131 127 LINE",
"266 127 LINE",
"285 0 LINE",
"396 0 LINE"
);
},
{
closed = 1;
nodes = (
"197 576 LINE",
"199 576 LINE",
"251 222 LINE",
"145 222 LINE"
);
},
{
closed = 1;
nodes = (
"159 737 LINE",
"203 792 LINE",
"248 737 LINE",
"342 737 LINE",
"253 848 LINE",
"154 848 LINE",
"65 737 LINE"
);
}
);
width = 407;
}
);
leftKerningGroup = A;
note = Acircumflex;
rightKerningGroup = A;
unicode = 00C2;
},
{
glyphname = Atilde;
lastChange = "2016-06-17 01:02:07 +0000";
layers = (
{
layerId = "26058A5B-27B8-4A86-A50F-6474302A7C9F";
paths = (
{
closed = 1;
nodes = (
"284 700 LINE",
"123 700 LINE",
"11 0 LINE",
"112 0 LINE",
"131 127 LINE",
"266 127 LINE",
"285 0 LINE",
"396 0 LINE"
);
},
{
closed = 1;
nodes = (
"197 576 LINE",
"199 576 LINE",
"251 222 LINE",
"145 222 LINE"
);
},
{
closed = 1;
nodes = (
"232 813 OFFCURVE",
"222 816 OFFCURVE",
"206 824 CURVE SMOOTH",
"186 834 OFFCURVE",
"171 838 OFFCURVE",
"153 838 CURVE SMOOTH",
"113 838 OFFCURVE",
"85 815 OFFCURVE",
"68 770 CURVE",
"121 733 LINE",
"131 754 OFFCURVE",
"142 762 OFFCURVE",
"164 762 CURVE SMOOTH",
"175 762 OFFCURVE",
"185 759 OFFCURVE",
"201 751 CURVE SMOOTH",
"224 740 OFFCURVE",
"238 737 OFFCURVE",
"254 737 CURVE SMOOTH",
"294 737 OFFCURVE",
"322 760 OFFCURVE",
"339 805 CURVE",
"286 842 LINE",
"276 821 OFFCURVE",
"265 813 OFFCURVE",
"243 813 CURVE SMOOTH"
);
}
);
width = 407;
}
);
leftKerningGroup = A;
note = Atilde;
rightKerningGroup = A;
unicode = 00C3;
},
{
glyphname = Adieresis;
lastChange = "2016-06-17 01:02:07 +0000";
layers = (
{
layerId = "26058A5B-27B8-4A86-A50F-6474302A7C9F";
paths = (
{
closed = 1;
nodes = (
"284 700 LINE",
"123 700 LINE",
"11 0 LINE",
"112 0 LINE",
"131 127 LINE",
"266 127 LINE",
"285 0 LINE",
"396 0 LINE"
);
},
{
closed = 1;
nodes = (
"197 576 LINE",
"199 576 LINE",
"251 222 LINE",
"145 222 LINE"
);
},
{
closed = 1;
nodes = (
"79 833 LINE",
"79 737 LINE",
"175 737 LINE",
"175 833 LINE"
);
},
{
closed = 1;
nodes = (
"231 833 LINE",
"231 737 LINE",
"327 737 LINE",
"327 833 LINE"
);
}
);
width = 407;
}
);
leftKerningGroup = A;
note = Adieresis;
rightKerningGroup = A;
unicode = 00C4;
},
{
glyphname = Aring;
lastChange = "2016-06-17 01:02:07 +0000";
layers = (
{
layerId = "26058A5B-27B8-4A86-A50F-6474302A7C9F";
paths = (
{
closed = 1;
nodes = (
"284 700 LINE",
"123 700 LINE",
"11 0 LINE",
"112 0 LINE",
"131 127 LINE",
"266 127 LINE",
"285 0 LINE",
"396 0 LINE"
);
},
{
closed = 1;
nodes = (
"197 576 LINE",
"199 576 LINE",
"251 222 LINE",
"145 222 LINE"
);
},
{
closed = 1;
nodes = (
"123 769 OFFCURVE",
"158 734 OFFCURVE",
"203 734 CURVE SMOOTH",
"248 734 OFFCURVE",
"283 769 OFFCURVE",
"283 814 CURVE SMOOTH",
"283 859 OFFCURVE",
"248 894 OFFCURVE",
"203 894 CURVE SMOOTH",
"158 894 OFFCURVE",
"123 859 OFFCURVE",
"123 814 CURVE SMOOTH"
);
},
{
closed = 1;
nodes = (
"173 831 OFFCURVE",
"186 844 OFFCURVE",
"203 844 CURVE SMOOTH",
"220 844 OFFCURVE",
"233 831 OFFCURVE",
"233 814 CURVE SMOOTH",
"233 797 OFFCURVE",
"220 784 OFFCURVE",
"203 784 CURVE SMOOTH",
"186 784 OFFCURVE",
"173 797 OFFCURVE",
"173 814 CURVE SMOOTH"
);
}
);
width = 407;
}
);
leftKerningGroup = A;
note = Aring;
rightKerningGroup = A;
unicode = 00C5;
},
{
glyphname = AE;
lastChange = "2016-06-17 01:02:07 +0000";
layers = (
{
layerId = "26058A5B-27B8-4A86-A50F-6474302A7C9F";
paths = (
{
closed = 1;
nodes = (
"252 0 LINE",
"552 0 LINE",
"552 100 LINE",
"362 100 LINE",
"362 305 LINE",
"513 305 LINE",
"513 405 LINE",
"362 405 LINE",
"362 600 LINE",
"552 600 LINE",
"552 700 LINE",
"191 700 LINE",
"4 0 LINE",
"109 0 LINE",
"141 127 LINE",
"252 127 LINE"
);
},
{
closed = 1;
nodes = (
"166 222 LINE",
"250 559 LINE",
"252 559 LINE",
"252 222 LINE"
);
}
);
width = 580;
}
);
leftKerningGroup = AE;
note = AE;
unicode = 00C6;
},
{
glyphname = Ccedilla;
lastChange = "2016-06-17 01:02:07 +0000";
layers = (
{
layerId = "26058A5B-27B8-4A86-A50F-6474302A7C9F";
paths = (
{
closed = 1;
nodes = (
"255 261 LINE",
"255 161 LINE SMOOTH",
"255 111 OFFCURVE",
"233 93 OFFCURVE",
"198 93 CURVE SMOOTH",
"163 93 OFFCURVE",
"141 111 OFFCURVE",
"141 161 CURVE SMOOTH",
"141 539 LINE SMOOTH",
"141 589 OFFCURVE",
"163 608 OFFCURVE",
"198 608 CURVE SMOOTH",
"233 608 OFFCURVE",
"255 589 OFFCURVE",
"255 539 CURVE SMOOTH",
"255 464 LINE",
"359 464 LINE",
"359 532 LINE SMOOTH",
"359 644 OFFCURVE",
"303 708 OFFCURVE",
"195 708 CURVE SMOOTH",
"87 708 OFFCURVE",
"31 644 OFFCURVE",
"31 532 CURVE SMOOTH",
"31 168 LINE SMOOTH",
"31 65 OFFCURVE",
"78 3 OFFCURVE",
"169 -6 CURVE",
"169 -57 LINE",
"179 -57 LINE SMOOTH",
"203 -57 OFFCURVE",
"215 -64 OFFCURVE",
"215 -83 CURVE SMOOTH",
"215 -100 OFFCURVE",
"207 -107 OFFCURVE",
"190 -107 CURVE SMOOTH",
"179 -107 OFFCURVE",
"168 -102 OFFCURVE",
"168 -87 CURVE SMOOTH",
"168 -79 LINE",
"94 -79 LINE",
"94 -89 LINE SMOOTH",
"94 -135 OFFCURVE",
"135 -147 OFFCURVE",
"190 -147 CURVE SMOOTH",
"249 -147 OFFCURVE",
"291 -140 OFFCURVE",
"291 -86 CURVE SMOOTH",
"291 -51 OFFCURVE",
"266 -39 OFFCURVE",
"217 -39 CURVE",
"217 -7 LINE",
"310 1 OFFCURVE",
"359 64 OFFCURVE",
"359 168 CURVE SMOOTH",
"359 261 LINE"
);
}
);
width = 386;
}
);
leftKerningGroup = C;
note = Ccedilla;
rightKerningGroup = C;
unicode = 00C7;
},
{
glyphname = Egrave;
lastChange = "2016-06-17 01:02:07 +0000";
layers = (
{
layerId = "26058A5B-27B8-4A86-A50F-6474302A7C9F";
paths = (
{
closed = 1;
nodes = (
"150 600 LINE",
"340 600 LINE",
"340 700 LINE",
"40 700 LINE",
"40 0 LINE",
"340 0 LINE",
"340 100 LINE",
"150 100 LINE",
"150 305 LINE",
"301 305 LINE",
"301 405 LINE",
"150 405 LINE"
);
},
{
closed = 1;
nodes = (
"68 848 LINE",
"170 737 LINE",
"249 737 LINE",
"181 848 LINE"
);
}
);
width = 368;
}
);
note = Egrave;
unicode = 00C8;
},
{
glyphname = Eacute;
lastChange = "2016-06-17 01:02:07 +0000";
layers = (
{
layerId = "26058A5B-27B8-4A86-A50F-6474302A7C9F";
paths = (
{
closed = 1;
nodes = (
"150 600 LINE",
"340 600 LINE",
"340 700 LINE",
"40 700 LINE",
"40 0 LINE",
"340 0 LINE",
"340 100 LINE",
"150 100 LINE",
"150 305 LINE",
"301 305 LINE",
"301 405 LINE",
"150 405 LINE"
);
},
{
closed = 1;
nodes = (
"199 848 LINE",
"131 737 LINE",
"205 737 LINE",
"307 848 LINE"
);
}
);
width = 368;
}
);
note = Eacute;
unicode = 00C9;
},
{
glyphname = Ecircumflex;
lastChange = "2016-06-17 01:02:07 +0000";
layers = (
{
layerId = "26058A5B-27B8-4A86-A50F-6474302A7C9F";
paths = (
{
closed = 1;
nodes = (
"150 600 LINE",
"340 600 LINE",
"340 700 LINE",
"40 700 LINE",
"40 0 LINE",
"340 0 LINE",
"340 100 LINE",
"150 100 LINE",
"150 305 LINE",
"301 305 LINE",
"301 405 LINE",
"150 405 LINE"
);
},
{
closed = 1;
nodes = (
"144 737 LINE",
"188 792 LINE",
"233 737 LINE",
"327 737 LINE",
"238 848 LINE",
"139 848 LINE",
"50 737 LINE"
);
}
);
width = 368;
}
);
note = Ecircumflex;
unicode = 00CA;
},
{
glyphname = Edieresis;
lastChange = "2016-06-17 01:02:07 +0000";
layers = (
{
layerId = "26058A5B-27B8-4A86-A50F-6474302A7C9F";
paths = (
{
closed = 1;
nodes = (
"150 600 LINE",
"340 600 LINE",
"340 700 LINE",
"40 700 LINE",
"40 0 LINE",
"340 0 LINE",
"340 100 LINE",
"150 100 LINE",
"150 305 LINE",
"301 305 LINE",
"301 405 LINE",
"150 405 LINE"
);
},
{
closed = 1;
nodes = (
"65 833 LINE",
"65 737 LINE",
"161 737 LINE",
"161 833 LINE"
);
},
{
closed = 1;
nodes = (
"217 833 LINE",
"217 737 LINE",
"313 737 LINE",
"313 833 LINE"
);
}
);
width = 368;
}
);
note = Edieresis;
unicode = 00CB;
},
{
glyphname = Igrave;
lastChange = "2016-06-17 01:02:07 +0000";
layers = (
{
layerId = "26058A5B-27B8-4A86-A50F-6474302A7C9F";
paths = (
{
closed = 1;
nodes = (
"40 0 LINE",
"150 0 LINE",
"150 700 LINE",
"40 700 LINE"
);
},
{
closed = 1;
nodes = (
"-25 848 LINE",
"77 737 LINE",
"156 737 LINE",
"88 848 LINE"
);
}
);
width = 190;
}
);
note = Igrave;
unicode = 00CC;
},
{
glyphname = Iacute;
lastChange = "2016-06-17 01:02:07 +0000";
layers = (
{
layerId = "26058A5B-27B8-4A86-A50F-6474302A7C9F";
paths = (
{
closed = 1;
nodes = (
"40 0 LINE",
"150 0 LINE",
"150 700 LINE",
"40 700 LINE"
);
},
{
closed = 1;
nodes = (
"105 848 LINE",
"37 737 LINE",
"111 737 LINE",
"213 848 LINE"
);
}
);
width = 190;
}
);
note = Iacute;
unicode = 00CD;
},
{
glyphname = Icircumflex;
lastChange = "2016-06-17 01:02:07 +0000";
layers = (
{
layerId = "26058A5B-27B8-4A86-A50F-6474302A7C9F";
paths = (
{
closed = 1;
nodes = (
"40 0 LINE",
"150 0 LINE",
"150 700 LINE",
"40 700 LINE"
);
},
{
closed = 1;
nodes = (
"51 737 LINE",
"95 792 LINE",
"140 737 LINE",
"234 737 LINE",
"145 848 LINE",
"46 848 LINE",
"-43 737 LINE"
);
}
);
width = 190;
}
);
note = Icircumflex;
unicode = 00CE;
},
{
glyphname = Idieresis;
lastChange = "2016-06-17 01:02:07 +0000";
layers = (
{
layerId = "26058A5B-27B8-4A86-A50F-6474302A7C9F";
paths = (
{
closed = 1;
nodes = (
"40 0 LINE",
"150 0 LINE",
"150 700 LINE",
"40 700 LINE"
);
},
{
closed = 1;
nodes = (
"-29 833 LINE",
"-29 737 LINE",
"67 737 LINE",
"67 833 LINE"
);
},
{
closed = 1;
nodes = (
"123 833 LINE",
"123 737 LINE",
"219 737 LINE",
"219 833 LINE"
);
}
);
width = 190;
}
);
note = Idieresis;
unicode = 00CF;
},
{
glyphname = Eth;
lastChange = "2016-06-17 01:02:07 +0000";
layers = (
{
layerId = "26058A5B-27B8-4A86-A50F-6474302A7C9F";
paths = (
{
closed = 1;
nodes = (
"40 0 LINE",
"214 0 LINE SMOOTH",
"324 0 OFFCURVE",
"378 61 OFFCURVE",
"378 173 CURVE SMOOTH",
"378 527 LINE SMOOTH",
"378 639 OFFCURVE",
"324 700 OFFCURVE",
"214 700 CURVE SMOOTH",
"40 700 LINE",
"40 395 LINE",
"4 395 LINE",
"4 305 LINE",
"40 305 LINE"
);
},
{
closed = 1;
nodes = (
"212 600 LINE SMOOTH",
"247 600 OFFCURVE",
"268 582 OFFCURVE",
"268 532 CURVE SMOOTH",
"268 168 LINE SMOOTH",
"268 118 OFFCURVE",
"247 100 OFFCURVE",
"212 100 CURVE SMOOTH",
"150 100 LINE",
"150 305 LINE",
"218 305 LINE",
"218 395 LINE",
"150 395 LINE",
"150 600 LINE"
);
}
);
width = 408;
}
);
note = Eth;
rightKerningGroup = D;
unicode = 00D0;
},
{
glyphname = Ntilde;
lastChange = "2016-06-17 01:02:07 +0000";
layers = (
{
layerId = "26058A5B-27B8-4A86-A50F-6474302A7C9F";
paths = (
{
closed = 1;
nodes = (
"275 0 LINE",
"388 0 LINE",
"388 700 LINE",
"290 700 LINE",
"290 281 LINE",
"288 281 LINE",
"177 700 LINE",
"39 700 LINE",
"39 0 LINE",
"138 0 LINE",
"138 507 LINE",
"140 507 LINE"
);
},
{
closed = 1;
nodes = (
"242 813 OFFCURVE",
"232 816 OFFCURVE",
"216 824 CURVE SMOOTH",
"196 834 OFFCURVE",
"181 838 OFFCURVE",
"163 838 CURVE SMOOTH",
"123 838 OFFCURVE",
"95 815 OFFCURVE",
"78 770 CURVE",
"131 733 LINE",
"141 754 OFFCURVE",
"152 762 OFFCURVE",
"174 762 CURVE SMOOTH",
"185 762 OFFCURVE",
"195 759 OFFCURVE",
"211 751 CURVE SMOOTH",
"234 740 OFFCURVE",
"248 737 OFFCURVE",
"264 737 CURVE SMOOTH",
"304 737 OFFCURVE",
"332 760 OFFCURVE",
"349 805 CURVE",
"296 842 LINE",
"286 821 OFFCURVE",
"275 813 OFFCURVE",
"253 813 CURVE SMOOTH"
);
}
);
width = 427;
}
);
note = Ntilde;
unicode = 00D1;
},
{
glyphname = Ograve;
lastChange = "2016-06-17 01:02:07 +0000";
layers = (
{
layerId = "26058A5B-27B8-4A86-A50F-6474302A7C9F";
paths = (
{
closed = 1;
nodes = (
"141 539 LINE SMOOTH",
"141 589 OFFCURVE",
"163 608 OFFCURVE",
"198 608 CURVE SMOOTH",
"233 608 OFFCURVE",
"255 589 OFFCURVE",
"255 539 CURVE SMOOTH",
"255 161 LINE SMOOTH",
"255 111 OFFCURVE",
"233 92 OFFCURVE",
"198 92 CURVE SMOOTH",
"163 92 OFFCURVE",
"141 111 OFFCURVE",
"141 161 CURVE SMOOTH"
);
},
{
closed = 1;
nodes = (
"31 168 LINE SMOOTH",
"31 56 OFFCURVE",
"90 -8 OFFCURVE",
"198 -8 CURVE SMOOTH",
"306 -8 OFFCURVE",
"365 56 OFFCURVE",
"365 168 CURVE SMOOTH",
"365 532 LINE SMOOTH",
"365 644 OFFCURVE",
"306 708 OFFCURVE",
"198 708 CURVE SMOOTH",
"90 708 OFFCURVE",
"31 644 OFFCURVE",
"31 532 CURVE SMOOTH"
);
},
{
closed = 1;
nodes = (
"77 848 LINE",
"179 737 LINE",
"258 737 LINE",
"190 848 LINE"
);
}
);
width = 396;
}
);
leftKerningGroup = O;
note = Ograve;
rightKerningGroup = O;
unicode = 00D2;
},
{
glyphname = Oacute;
lastChange = "2016-06-17 01:02:07 +0000";
layers = (
{
layerId = "26058A5B-27B8-4A86-A50F-6474302A7C9F";
paths = (
{
closed = 1;
nodes = (
"141 539 LINE SMOOTH",
"141 589 OFFCURVE",
"163 608 OFFCURVE",
"198 608 CURVE SMOOTH",
"233 608 OFFCURVE",
"255 589 OFFCURVE",
"255 539 CURVE SMOOTH",
"255 161 LINE SMOOTH",
"255 111 OFFCURVE",
"233 92 OFFCURVE",
"198 92 CURVE SMOOTH",
"163 92 OFFCURVE",
"141 111 OFFCURVE",
"141 161 CURVE SMOOTH"
);
},
{
closed = 1;
nodes = (
"31 168 LINE SMOOTH",
"31 56 OFFCURVE",
"90 -8 OFFCURVE",
"198 -8 CURVE SMOOTH",
"306 -8 OFFCURVE",
"365 56 OFFCURVE",
"365 168 CURVE SMOOTH",
"365 532 LINE SMOOTH",
"365 644 OFFCURVE",
"306 708 OFFCURVE",
"198 708 CURVE SMOOTH",
"90 708 OFFCURVE",
"31 644 OFFCURVE",
"31 532 CURVE SMOOTH"
);
},
{
closed = 1;
nodes = (
"208 848 LINE",
"140 737 LINE",
"214 737 LINE",
"316 848 LINE"
);
}
);
width = 396;
}
);
leftKerningGroup = O;
note = Oacute;
rightKerningGroup = O;
unicode = 00D3;
},
{
glyphname = Ocircumflex;
lastChange = "2016-06-17 01:02:07 +0000";
layers = (
{
layerId = "26058A5B-27B8-4A86-A50F-6474302A7C9F";
paths = (
{
closed = 1;
nodes = (
"141 539 LINE SMOOTH",
"141 589 OFFCURVE",
"163 608 OFFCURVE",
"198 608 CURVE SMOOTH",
"233 608 OFFCURVE",
"255 589 OFFCURVE",
"255 539 CURVE SMOOTH",
"255 161 LINE SMOOTH",
"255 111 OFFCURVE",
"233 92 OFFCURVE",
"198 92 CURVE SMOOTH",
"163 92 OFFCURVE",
"141 111 OFFCURVE",
"141 161 CURVE SMOOTH"
);
},
{
closed = 1;
nodes = (
"31 168 LINE SMOOTH",
"31 56 OFFCURVE",
"90 -8 OFFCURVE",
"198 -8 CURVE SMOOTH",
"306 -8 OFFCURVE",
"365 56 OFFCURVE",
"365 168 CURVE SMOOTH",
"365 532 LINE SMOOTH",
"365 644 OFFCURVE",
"306 708 OFFCURVE",
"198 708 CURVE SMOOTH",
"90 708 OFFCURVE",
"31 644 OFFCURVE",
"31 532 CURVE SMOOTH"
);
},
{
closed = 1;
nodes = (
"153 737 LINE",
"197 792 LINE",
"242 737 LINE",
"336 737 LINE",
"247 848 LINE",
"148 848 LINE",
"59 737 LINE"
);
}
);
width = 396;
}
);
leftKerningGroup = O;
note = Ocircumflex;
rightKerningGroup = O;
unicode = 00D4;
},
{
glyphname = Otilde;
lastChange = "2016-06-17 01:02:07 +0000";
layers = (
{
layerId = "26058A5B-27B8-4A86-A50F-6474302A7C9F";
paths = (
{
closed = 1;
nodes = (
"141 539 LINE SMOOTH",
"141 589 OFFCURVE",
"163 608 OFFCURVE",
"198 608 CURVE SMOOTH",
"233 608 OFFCURVE",
"255 589 OFFCURVE",
"255 539 CURVE SMOOTH",
"255 161 LINE SMOOTH",
"255 111 OFFCURVE",
"233 92 OFFCURVE",
"198 92 CURVE SMOOTH",
"163 92 OFFCURVE",
"141 111 OFFCURVE",
"141 161 CURVE SMOOTH"
);
},
{
closed = 1;
nodes = (
"31 168 LINE SMOOTH",
"31 56 OFFCURVE",
"90 -8 OFFCURVE",
"198 -8 CURVE SMOOTH",
"306 -8 OFFCURVE",
"365 56 OFFCURVE",
"365 168 CURVE SMOOTH",
"365 532 LINE SMOOTH",
"365 644 OFFCURVE",
"306 708 OFFCURVE",
"198 708 CURVE SMOOTH",
"90 708 OFFCURVE",
"31 644 OFFCURVE",
"31 532 CURVE SMOOTH"
);
},
{
closed = 1;
nodes = (
"227 813 OFFCURVE",
"217 816 OFFCURVE",
"201 824 CURVE SMOOTH",
"181 834 OFFCURVE",
"166 838 OFFCURVE",
"148 838 CURVE SMOOTH",
"108 838 OFFCURVE",
"80 815 OFFCURVE",
"63 770 CURVE",
"116 733 LINE",
"126 754 OFFCURVE",
"137 762 OFFCURVE",
"159 762 CURVE SMOOTH",
"170 762 OFFCURVE",
"180 759 OFFCURVE",
"196 751 CURVE SMOOTH",
"219 740 OFFCURVE",
"233 737 OFFCURVE",
"249 737 CURVE SMOOTH",
"289 737 OFFCURVE",
"317 760 OFFCURVE",
"334 805 CURVE",
"281 842 LINE",
"271 821 OFFCURVE",
"260 813 OFFCURVE",
"238 813 CURVE SMOOTH"
);
}
);
width = 396;
}
);
leftKerningGroup = O;
note = Otilde;
rightKerningGroup = O;
unicode = 00D5;
},
{
glyphname = Odieresis;
lastChange = "2016-06-17 01:02:07 +0000";
layers = (
{
layerId = "26058A5B-27B8-4A86-A50F-6474302A7C9F";
paths = (
{
closed = 1;
nodes = (
"141 539 LINE SMOOTH",
"141 589 OFFCURVE",
"163 608 OFFCURVE",
"198 608 CURVE SMOOTH",
"233 608 OFFCURVE",
"255 589 OFFCURVE",
"255 539 CURVE SMOOTH",
"255 161 LINE SMOOTH",
"255 111 OFFCURVE",
"233 92 OFFCURVE",
"198 92 CURVE SMOOTH",
"163 92 OFFCURVE",
"141 111 OFFCURVE",
"141 161 CURVE SMOOTH"
);
},
{
closed = 1;
nodes = (
"31 168 LINE SMOOTH",
"31 56 OFFCURVE",
"90 -8 OFFCURVE",
"198 -8 CURVE SMOOTH",
"306 -8 OFFCURVE",
"365 56 OFFCURVE",
"365 168 CURVE SMOOTH",
"365 532 LINE SMOOTH",
"365 644 OFFCURVE",
"306 708 OFFCURVE",
"198 708 CURVE SMOOTH",
"90 708 OFFCURVE",
"31 644 OFFCURVE",
"31 532 CURVE SMOOTH"
);
},
{
closed = 1;
nodes = (
"74 833 LINE",
"74 737 LINE",
"170 737 LINE",
"170 833 LINE"
);
},
{
closed = 1;
nodes = (
"226 833 LINE",
"226 737 LINE",
"322 737 LINE",
"322 833 LINE"
);
}
);
width = 396;
}
);
leftKerningGroup = O;
note = Odieresis;
rightKerningGroup = O;
unicode = 00D6;
},
{
glyphname = multiply;
lastChange = "2016-06-17 01:02:07 +0000";
layers = (
{
layerId = "26058A5B-27B8-4A86-A50F-6474302A7C9F";
paths = (
{
closed = 1;
nodes = (
"92 508 LINE",
"39 455 LINE",
"144 350 LINE",
"38 244 LINE",
"91 191 LINE",
"198 297 LINE",
"304 191 LINE",
"357 244 LINE",
"251 350 LINE",
"357 456 LINE",
"304 509 LINE",
"198 403 LINE"
);
}
);
width = 396;
}
);
note = multiply;
unicode = 00D7;
},
{
glyphname = Oslash;
lastChange = "2016-06-17 01:02:07 +0000";
layers = (
{
layerId = "26058A5B-27B8-4A86-A50F-6474302A7C9F";
paths = (
{
closed = 1;
nodes = (
"31 168 LINE SMOOTH",
"31 117 OFFCURVE",
"43 76 OFFCURVE",
"66 46 CURVE",
"41 -24 LINE",
"78 -37 LINE",
"98 17 LINE",
"124 0 OFFCURVE",
"158 -8 OFFCURVE",
"198 -8 CURVE SMOOTH",
"306 -8 OFFCURVE",
"365 56 OFFCURVE",
"365 168 CURVE SMOOTH",
"365 532 LINE SMOOTH",
"365 583 OFFCURVE",
"353 624 OFFCURVE",
"329 653 CURVE",
"355 724 LINE",
"318 737 LINE",
"298 682 LINE",
"272 699 OFFCURVE",
"238 708 OFFCURVE",
"198 708 CURVE SMOOTH",
"90 708 OFFCURVE",
"31 644 OFFCURVE",
"31 532 CURVE SMOOTH"
);
},
{
closed = 1;
nodes = (
"253 443 LINE",
"255 443 LINE",
"255 161 LINE SMOOTH",
"255 111 OFFCURVE",
"233 92 OFFCURVE",
"198 92 CURVE SMOOTH",
"168 92 OFFCURVE",
"148 105 OFFCURVE",
"142 140 CURVE"
);
},
{
closed = 1;
nodes = (
"141 539 LINE SMOOTH",
"141 589 OFFCURVE",
"163 608 OFFCURVE",
"198 608 CURVE SMOOTH",
"227 608 OFFCURVE",
"248 594 OFFCURVE",
"253 560 CURVE",
"143 257 LINE",
"141 257 LINE"
);
}
);
width = 396;
}
);
leftKerningGroup = O;
note = Oslash;
rightKerningGroup = O;
unicode = 00D8;
},
{
glyphname = Ugrave;
lastChange = "2016-06-17 01:02:07 +0000";
layers = (
{
layerId = "26058A5B-27B8-4A86-A50F-6474302A7C9F";
paths = (
{
closed = 1;
nodes = (
"35 700 LINE",
"35 167 LINE SMOOTH",
"35 55 OFFCURVE",
"91 -9 OFFCURVE",
"199 -9 CURVE SMOOTH",
"307 -9 OFFCURVE",
"363 55 OFFCURVE",
"363 167 CURVE SMOOTH",
"363 700 LINE",
"259 700 LINE",
"259 160 LINE SMOOTH",
"259 110 OFFCURVE",
"237 92 OFFCURVE",
"202 92 CURVE SMOOTH",
"167 92 OFFCURVE",
"145 110 OFFCURVE",
"145 160 CURVE SMOOTH",
"145 700 LINE"
);
},
{
closed = 1;
nodes = (
"79 848 LINE",
"181 737 LINE",
"260 737 LINE",
"192 848 LINE"
);
}
);
width = 398;
}
);
leftKerningGroup = U;
note = Ugrave;
rightKerningGroup = U;
unicode = 00D9;
},
{
glyphname = Uacute;
lastChange = "2016-06-17 01:02:07 +0000";
layers = (
{
layerId = "26058A5B-27B8-4A86-A50F-6474302A7C9F";
paths = (
{
closed = 1;
nodes = (
"35 700 LINE",
"35 167 LINE SMOOTH",
"35 55 OFFCURVE",
"91 -9 OFFCURVE",
"199 -9 CURVE SMOOTH",
"307 -9 OFFCURVE",
"363 55 OFFCURVE",
"363 167 CURVE SMOOTH",
"363 700 LINE",
"259 700 LINE",
"259 160 LINE SMOOTH",
"259 110 OFFCURVE",
"237 92 OFFCURVE",
"202 92 CURVE SMOOTH",
"167 92 OFFCURVE",
"145 110 OFFCURVE",
"145 160 CURVE SMOOTH",
"145 700 LINE"
);
},
{
closed = 1;
nodes = (
"210 848 LINE",
"142 737 LINE",
"216 737 LINE",
"318 848 LINE"
);
}
);
width = 398;
}
);
leftKerningGroup = U;
note = Uacute;
rightKerningGroup = U;
unicode = 00DA;
},
{
glyphname = Ucircumflex;
lastChange = "2016-06-17 01:02:07 +0000";
layers = (
{
layerId = "26058A5B-27B8-4A86-A50F-6474302A7C9F";
paths = (
{
closed = 1;
nodes = (
"35 700 LINE",
"35 167 LINE SMOOTH",
"35 55 OFFCURVE",
"91 -9 OFFCURVE",
"199 -9 CURVE SMOOTH",
"307 -9 OFFCURVE",
"363 55 OFFCURVE",
"363 167 CURVE SMOOTH",
"363 700 LINE",
"259 700 LINE",
"259 160 LINE SMOOTH",
"259 110 OFFCURVE",
"237 92 OFFCURVE",
"202 92 CURVE SMOOTH",
"167 92 OFFCURVE",
"145 110 OFFCURVE",
"145 160 CURVE SMOOTH",
"145 700 LINE"
);
},
{
closed = 1;
nodes = (
"156 737 LINE",
"200 792 LINE",
"245 737 LINE",
"339 737 LINE",
"250 848 LINE",
"151 848 LINE",
"62 737 LINE"
);
}
);
width = 398;
}
);
leftKerningGroup = U;
note = Ucircumflex;
rightKerningGroup = U;
unicode = 00DB;
},
{
glyphname = Udieresis;
lastChange = "2016-06-17 01:02:07 +0000";
layers = (
{
layerId = "26058A5B-27B8-4A86-A50F-6474302A7C9F";
paths = (
{
closed = 1;
nodes = (
"35 700 LINE",
"35 167 LINE SMOOTH",
"35 55 OFFCURVE",
"91 -9 OFFCURVE",
"199 -9 CURVE SMOOTH",
"307 -9 OFFCURVE",
"363 55 OFFCURVE",
"363 167 CURVE SMOOTH",
"363 700 LINE",
"259 700 LINE",
"259 160 LINE SMOOTH",
"259 110 OFFCURVE",
"237 92 OFFCURVE",
"202 92 CURVE SMOOTH",
"167 92 OFFCURVE",
"145 110 OFFCURVE",
"145 160 CURVE SMOOTH",
"145 700 LINE"
);
},
{
closed = 1;
nodes = (
"77 833 LINE",
"77 737 LINE",
"173 737 LINE",
"173 833 LINE"
);
},
{
closed = 1;
nodes = (
"229 833 LINE",
"229 737 LINE",
"325 737 LINE",
"325 833 LINE"
);
}
);
width = 398;
}
);
leftKerningGroup = U;
note = Udieresis;
rightKerningGroup = U;
unicode = 00DC;
},
{
glyphname = Yacute;
lastChange = "2016-06-17 01:02:07 +0000";
layers = (
{
layerId = "26058A5B-27B8-4A86-A50F-6474302A7C9F";
paths = (
{
closed = 1;
nodes = (
"143 0 LINE",
"253 0 LINE",
"253 232 LINE",
"392 700 LINE",
"287 700 LINE",
"204 381 LINE",
"202 381 LINE",
"119 700 LINE",
"4 700 LINE",
"143 232 LINE"
);
},
{
closed = 1;
nodes = (
"212 848 LINE",
"144 737 LINE",
"218 737 LINE",
"320 848 LINE"
);
}
);
width = 396;
}
);
leftKerningGroup = Y;
note = Yacute;
rightKerningGroup = Y;
unicode = 00DD;
},
{
glyphname = Thorn;
lastChange = "2016-06-17 01:02:07 +0000";
layers = (
{
layerId = "26058A5B-27B8-4A86-A50F-6474302A7C9F";
paths = (
{
closed = 1;
nodes = (
"40 0 LINE",
"150 0 LINE",
"150 183 LINE",
"202 183 LINE SMOOTH",
"312 183 OFFCURVE",
"366 244 OFFCURVE",
"366 356 CURVE SMOOTH",
"366 447 LINE SMOOTH",
"366 559 OFFCURVE",
"312 620 OFFCURVE",
"202 620 CURVE SMOOTH",
"150 620 LINE",
"150 700 LINE",
"40 700 LINE"
);
},
{
closed = 1;
nodes = (
"202 520 LINE SMOOTH",
"237 520 OFFCURVE",
"256 504 OFFCURVE",
"256 454 CURVE SMOOTH",
"256 349 LINE SMOOTH",
"256 299 OFFCURVE",
"237 283 OFFCURVE",
"202 283 CURVE SMOOTH",
"150 283 LINE",
"150 520 LINE"
);
}
);
width = 377;
}
);
note = Thorn;
unicode = 00DE;
},
{
glyphname = germandbls;
lastChange = "2016-06-17 01:10:36 +0000";
layers = (
{
background = {
paths = (
{
closed = 1;
nodes = (
"368 335 LINE",
"473 604 LINE",
"473 702 LINE",
"168 702 LINE",
"168 602 LINE",
"368 602 LINE",
"296 409 LINE"
);
}
);
};
layerId = "26058A5B-27B8-4A86-A50F-6474302A7C9F";
paths = (
{
closed = 1;
nodes = (
"368 602 LINE",
"368 700 LINE",
"40 700 LINE",
"40 0 LINE",
"150 0 LINE",
"150 600 LINE",
"258 600 LINE",
"191 412 LINE",
"191 315 LINE",
"218 315 LINE SMOOTH",
"253 315 OFFCURVE",
"272 299 OFFCURVE",
"272 249 CURVE SMOOTH",
"272 166 LINE SMOOTH",
"272 116 OFFCURVE",
"253 100 OFFCURVE",
"218 100 CURVE SMOOTH",
"191 100 LINE",
"191 0 LINE",
"218 0 LINE SMOOTH",
"328 0 OFFCURVE",
"382 61 OFFCURVE",
"382 173 CURVE SMOOTH",
"382 242 LINE SMOOTH",
"382 324 OFFCURVE",
"353 379 OFFCURVE",
"294 402 CURVE"
);
}
);
width = 402;
}
);
note = germandbls;
unicode = 00DF;
},
{
glyphname = agrave;
lastChange = "2016-06-17 01:02:07 +0000";
layers = (
{
layerId = "26058A5B-27B8-4A86-A50F-6474302A7C9F";
paths = (
{
closed = 1;
nodes = (
"284 700 LINE",
"123 700 LINE",
"11 0 LINE",
"112 0 LINE",
"131 127 LINE",
"266 127 LINE",
"285 0 LINE",
"396 0 LINE"
);
},
{
closed = 1;
nodes = (
"197 576 LINE",
"199 576 LINE",
"251 222 LINE",
"145 222 LINE"
);
},
{
closed = 1;
nodes = (
"83 848 LINE",
"185 737 LINE",
"264 737 LINE",
"196 848 LINE"
);
}
);
width = 407;
}
);
leftKerningGroup = a;
note = agrave;
rightKerningGroup = a;
unicode = 00E0;
},
{
glyphname = aacute;
lastChange = "2016-06-17 01:02:07 +0000";
layers = (
{
layerId = "26058A5B-27B8-4A86-A50F-6474302A7C9F";
paths = (
{
closed = 1;
nodes = (
"284 700 LINE",
"123 700 LINE",
"11 0 LINE",
"112 0 LINE",
"131 127 LINE",
"266 127 LINE",
"285 0 LINE",
"396 0 LINE"
);
},
{
closed = 1;
nodes = (
"197 576 LINE",
"199 576 LINE",
"251 222 LINE",
"145 222 LINE"
);
},
{
closed = 1;
nodes = (
"213 848 LINE",
"145 737 LINE",
"219 737 LINE",
"321 848 LINE"
);
}
);
width = 407;
}
);
leftKerningGroup = a;
note = aacute;
rightKerningGroup = a;
unicode = 00E1;
},
{
glyphname = acircumflex;
lastChange = "2016-06-17 01:02:07 +0000";
layers = (
{
layerId = "26058A5B-27B8-4A86-A50F-6474302A7C9F";
paths = (
{
closed = 1;
nodes = (
"284 700 LINE",
"123 700 LINE",
"11 0 LINE",
"112 0 LINE",
"131 127 LINE",
"266 127 LINE",
"285 0 LINE",
"396 0 LINE"
);
},
{
closed = 1;
nodes = (
"197 576 LINE",
"199 576 LINE",
"251 222 LINE",
"145 222 LINE"
);
},
{
closed = 1;
nodes = (
"159 737 LINE",
"203 792 LINE",
"248 737 LINE",
"342 737 LINE",
"253 848 LINE",
"154 848 LINE",
"65 737 LINE"
);
}
);
width = 407;
}
);
leftKerningGroup = a;
note = acircumflex;
rightKerningGroup = a;
unicode = 00E2;
},
{
glyphname = atilde;
lastChange = "2016-06-17 01:02:07 +0000";
layers = (
{
layerId = "26058A5B-27B8-4A86-A50F-6474302A7C9F";
paths = (
{
closed = 1;
nodes = (
"284 700 LINE",
"123 700 LINE",
"11 0 LINE",
"112 0 LINE",
"131 127 LINE",
"266 127 LINE",
"285 0 LINE",
"396 0 LINE"
);
},
{
closed = 1;
nodes = (
"197 576 LINE",
"199 576 LINE",
"251 222 LINE",
"145 222 LINE"
);
},
{
closed = 1;
nodes = (
"232 813 OFFCURVE",
"222 816 OFFCURVE",
"206 824 CURVE SMOOTH",
"186 834 OFFCURVE",
"171 838 OFFCURVE",
"153 838 CURVE SMOOTH",
"113 838 OFFCURVE",
"85 815 OFFCURVE",
"68 770 CURVE",
"121 733 LINE",
"131 754 OFFCURVE",
"142 762 OFFCURVE",
"164 762 CURVE SMOOTH",
"175 762 OFFCURVE",
"185 759 OFFCURVE",
"201 751 CURVE SMOOTH",
"224 740 OFFCURVE",
"238 737 OFFCURVE",
"254 737 CURVE SMOOTH",
"294 737 OFFCURVE",
"322 760 OFFCURVE",
"339 805 CURVE",
"286 842 LINE",
"276 821 OFFCURVE",
"265 813 OFFCURVE",
"243 813 CURVE SMOOTH"
);
}
);
width = 407;
}
);
leftKerningGroup = a;
note = atilde;
rightKerningGroup = a;
unicode = 00E3;
},
{
glyphname = adieresis;
lastChange = "2016-06-17 01:02:07 +0000";
layers = (
{
layerId = "26058A5B-27B8-4A86-A50F-6474302A7C9F";
paths = (
{
closed = 1;
nodes = (
"284 700 LINE",
"123 700 LINE",
"11 0 LINE",
"112 0 LINE",
"131 127 LINE",
"266 127 LINE",
"285 0 LINE",
"396 0 LINE"
);
},
{
closed = 1;
nodes = (
"197 576 LINE",
"199 576 LINE",
"251 222 LINE",
"145 222 LINE"
);
},
{
closed = 1;
nodes = (
"79 833 LINE",
"79 737 LINE",
"175 737 LINE",
"175 833 LINE"
);
},
{
closed = 1;
nodes = (
"231 833 LINE",
"231 737 LINE",
"327 737 LINE",
"327 833 LINE"
);
}
);
width = 407;
}
);
leftKerningGroup = a;
note = adieresis;
rightKerningGroup = a;
unicode = 00E4;
},
{
glyphname = aring;
lastChange = "2016-06-17 01:02:07 +0000";
layers = (
{
layerId = "26058A5B-27B8-4A86-A50F-6474302A7C9F";
paths = (
{
closed = 1;
nodes = (
"284 700 LINE",
"123 700 LINE",
"11 0 LINE",
"112 0 LINE",
"131 127 LINE",
"266 127 LINE",
"285 0 LINE",
"396 0 LINE"
);
},
{
closed = 1;
nodes = (
"197 576 LINE",
"199 576 LINE",
"251 222 LINE",
"145 222 LINE"
);
},
{
closed = 1;
nodes = (
"123 769 OFFCURVE",
"158 734 OFFCURVE",
"203 734 CURVE SMOOTH",
"248 734 OFFCURVE",
"283 769 OFFCURVE",
"283 814 CURVE SMOOTH",
"283 859 OFFCURVE",
"248 894 OFFCURVE",
"203 894 CURVE SMOOTH",
"158 894 OFFCURVE",
"123 859 OFFCURVE",
"123 814 CURVE SMOOTH"
);
},
{
closed = 1;
nodes = (
"173 831 OFFCURVE",
"186 844 OFFCURVE",
"203 844 CURVE SMOOTH",
"220 844 OFFCURVE",
"233 831 OFFCURVE",
"233 814 CURVE SMOOTH",
"233 797 OFFCURVE",
"220 784 OFFCURVE",
"203 784 CURVE SMOOTH",
"186 784 OFFCURVE",
"173 797 OFFCURVE",
"173 814 CURVE SMOOTH"
);
}
);
width = 407;
}
);
leftKerningGroup = a;
note = aring;
rightKerningGroup = a;
unicode = 00E5;
},
{
glyphname = ae;
lastChange = "2016-06-17 01:02:07 +0000";
layers = (
{
layerId = "26058A5B-27B8-4A86-A50F-6474302A7C9F";
paths = (
{
closed = 1;
nodes = (
"362 600 LINE",
"552 600 LINE",
"552 700 LINE",
"191 700 LINE",
"4 0 LINE",
"109 0 LINE",
"141 127 LINE",
"252 127 LINE",
"252 0 LINE",
"552 0 LINE",
"552 100 LINE",
"362 100 LINE",
"362 305 LINE",
"513 305 LINE",
"513 405 LINE",
"362 405 LINE"
);
},
{
closed = 1;
nodes = (
"166 222 LINE",
"250 559 LINE",
"252 559 LINE",
"252 222 LINE"
);
}
);
width = 580;
}
);
leftKerningGroup = ae;
note = ae;
unicode = 00E6;
},
{
glyphname = ccedilla;
lastChange = "2016-06-17 01:02:07 +0000";
layers = (
{
layerId = "26058A5B-27B8-4A86-A50F-6474302A7C9F";
paths = (
{
closed = 1;
nodes = (
"255 261 LINE",
"255 161 LINE SMOOTH",
"255 111 OFFCURVE",
"233 93 OFFCURVE",
"198 93 CURVE SMOOTH",
"163 93 OFFCURVE",
"141 111 OFFCURVE",
"141 161 CURVE SMOOTH",
"141 539 LINE SMOOTH",
"141 589 OFFCURVE",
"163 608 OFFCURVE",
"198 608 CURVE SMOOTH",
"233 608 OFFCURVE",
"255 589 OFFCURVE",
"255 539 CURVE SMOOTH",
"255 464 LINE",
"359 464 LINE",
"359 532 LINE SMOOTH",
"359 644 OFFCURVE",
"303 708 OFFCURVE",
"195 708 CURVE SMOOTH",
"87 708 OFFCURVE",
"31 644 OFFCURVE",
"31 532 CURVE SMOOTH",
"31 168 LINE SMOOTH",
"31 65 OFFCURVE",
"78 3 OFFCURVE",
"169 -6 CURVE",
"169 -57 LINE",
"179 -57 LINE SMOOTH",
"203 -57 OFFCURVE",
"215 -64 OFFCURVE",
"215 -83 CURVE SMOOTH",
"215 -100 OFFCURVE",
"207 -107 OFFCURVE",
"190 -107 CURVE SMOOTH",
"179 -107 OFFCURVE",
"168 -102 OFFCURVE",
"168 -87 CURVE SMOOTH",
"168 -79 LINE",
"94 -79 LINE",
"94 -89 LINE SMOOTH",
"94 -135 OFFCURVE",
"135 -147 OFFCURVE",
"190 -147 CURVE SMOOTH",
"249 -147 OFFCURVE",
"291 -140 OFFCURVE",
"291 -86 CURVE SMOOTH",
"291 -51 OFFCURVE",
"266 -39 OFFCURVE",
"217 -39 CURVE",
"217 -7 LINE",
"310 1 OFFCURVE",
"359 64 OFFCURVE",
"359 168 CURVE SMOOTH",
"359 261 LINE"
);
}
);
width = 386;
}
);
leftKerningGroup = c;
note = ccedilla;
rightKerningGroup = c;
unicode = 00E7;
},
{
glyphname = egrave;
lastChange = "2016-06-17 01:02:07 +0000";
layers = (
{
layerId = "26058A5B-27B8-4A86-A50F-6474302A7C9F";
paths = (
{
closed = 1;
nodes = (
"150 600 LINE",
"340 600 LINE",
"340 700 LINE",
"40 700 LINE",
"40 0 LINE",
"340 0 LINE",
"340 100 LINE",
"150 100 LINE",
"150 305 LINE",
"301 305 LINE",
"301 405 LINE",
"150 405 LINE"
);
},
{
closed = 1;
nodes = (
"68 848 LINE",
"170 737 LINE",
"249 737 LINE",
"181 848 LINE"
);
}
);
width = 368;
}
);
note = egrave;
unicode = 00E8;
},
{
glyphname = eacute;
lastChange = "2016-06-17 01:02:07 +0000";
layers = (
{
layerId = "26058A5B-27B8-4A86-A50F-6474302A7C9F";
paths = (
{
closed = 1;
nodes = (
"150 600 LINE",
"340 600 LINE",
"340 700 LINE",
"40 700 LINE",
"40 0 LINE",
"340 0 LINE",
"340 100 LINE",
"150 100 LINE",
"150 305 LINE",
"301 305 LINE",
"301 405 LINE",
"150 405 LINE"
);
},
{
closed = 1;
nodes = (
"199 848 LINE",
"131 737 LINE",
"205 737 LINE",
"307 848 LINE"
);
}
);
width = 368;
}
);
note = eacute;
unicode = 00E9;
},
{
glyphname = ecircumflex;
lastChange = "2016-06-17 01:02:07 +0000";
layers = (
{
layerId = "26058A5B-27B8-4A86-A50F-6474302A7C9F";
paths = (
{
closed = 1;
nodes = (
"150 600 LINE",
"340 600 LINE",
"340 700 LINE",
"40 700 LINE",
"40 0 LINE",
"340 0 LINE",
"340 100 LINE",
"150 100 LINE",
"150 305 LINE",
"301 305 LINE",
"301 405 LINE",
"150 405 LINE"
);
},
{
closed = 1;
nodes = (
"144 737 LINE",
"188 792 LINE",
"233 737 LINE",
"327 737 LINE",
"238 848 LINE",
"139 848 LINE",
"50 737 LINE"
);
}
);
width = 368;
}
);
note = ecircumflex;
unicode = 00EA;
},
{
glyphname = edieresis;
lastChange = "2016-06-17 01:02:07 +0000";
layers = (
{
layerId = "26058A5B-27B8-4A86-A50F-6474302A7C9F";
paths = (
{
closed = 1;
nodes = (
"150 600 LINE",
"340 600 LINE",
"340 700 LINE",
"40 700 LINE",
"40 0 LINE",
"340 0 LINE",
"340 100 LINE",
"150 100 LINE",
"150 305 LINE",
"301 305 LINE",
"301 405 LINE",
"150 405 LINE"
);
},
{
closed = 1;
nodes = (
"65 833 LINE",
"65 737 LINE",
"161 737 LINE",
"161 833 LINE"
);
},
{
closed = 1;
nodes = (
"217 833 LINE",
"217 737 LINE",
"313 737 LINE",
"313 833 LINE"
);
}
);
width = 368;
}
);
note = edieresis;
unicode = 00EB;
},
{
glyphname = igrave;
lastChange = "2016-06-17 01:02:07 +0000";
layers = (
{
layerId = "26058A5B-27B8-4A86-A50F-6474302A7C9F";
paths = (
{
closed = 1;
nodes = (
"40 0 LINE",
"150 0 LINE",
"150 700 LINE",
"40 700 LINE"
);
},
{
closed = 1;
nodes = (
"-25 848 LINE",
"77 737 LINE",
"156 737 LINE",
"88 848 LINE"
);
}
);
width = 190;
}
);
note = igrave;
unicode = 00EC;
},
{
glyphname = iacute;
lastChange = "2016-06-17 01:02:07 +0000";
layers = (
{
layerId = "26058A5B-27B8-4A86-A50F-6474302A7C9F";
paths = (
{
closed = 1;
nodes = (
"40 0 LINE",
"150 0 LINE",
"150 700 LINE",
"40 700 LINE"
);
},
{
closed = 1;
nodes = (
"105 848 LINE",
"37 737 LINE",
"111 737 LINE",
"213 848 LINE"
);
}
);
width = 190;
}
);
note = iacute;
unicode = 00ED;
},
{
glyphname = icircumflex;
lastChange = "2016-06-17 01:02:07 +0000";
layers = (
{
layerId = "26058A5B-27B8-4A86-A50F-6474302A7C9F";
paths = (
{
closed = 1;
nodes = (
"40 0 LINE",
"150 0 LINE",
"150 700 LINE",
"40 700 LINE"
);
},
{
closed = 1;
nodes = (
"51 737 LINE",
"95 792 LINE",
"140 737 LINE",
"234 737 LINE",
"145 848 LINE",
"46 848 LINE",
"-43 737 LINE"
);
}
);
width = 190;
}
);
note = icircumflex;
unicode = 00EE;
},
{
glyphname = idieresis;
lastChange = "2016-06-17 01:02:07 +0000";
layers = (
{
layerId = "26058A5B-27B8-4A86-A50F-6474302A7C9F";
paths = (
{
closed = 1;
nodes = (
"40 0 LINE",
"150 0 LINE",
"150 700 LINE",
"40 700 LINE"
);
},
{
closed = 1;
nodes = (
"-29 833 LINE",
"-29 737 LINE",
"67 737 LINE",
"67 833 LINE"
);
},
{
closed = 1;
nodes = (
"123 833 LINE",
"123 737 LINE",
"219 737 LINE",
"219 833 LINE"
);
}
);
width = 190;
}
);
note = idieresis;
unicode = 00EF;
},
{
glyphname = eth;
lastChange = "2016-06-17 01:02:07 +0000";
layers = (
{
layerId = "26058A5B-27B8-4A86-A50F-6474302A7C9F";
paths = (
{
closed = 1;
nodes = (
"40 0 LINE",
"214 0 LINE SMOOTH",
"324 0 OFFCURVE",
"378 61 OFFCURVE",
"378 173 CURVE SMOOTH",
"378 527 LINE SMOOTH",
"378 639 OFFCURVE",
"324 700 OFFCURVE",
"214 700 CURVE SMOOTH",
"40 700 LINE",
"40 395 LINE",
"4 395 LINE",
"4 305 LINE",
"40 305 LINE"
);
},
{
closed = 1;
nodes = (
"212 600 LINE SMOOTH",
"247 600 OFFCURVE",
"268 582 OFFCURVE",
"268 532 CURVE SMOOTH",
"268 168 LINE SMOOTH",
"268 118 OFFCURVE",
"247 100 OFFCURVE",
"212 100 CURVE SMOOTH",
"150 100 LINE",
"150 305 LINE",
"218 305 LINE",
"218 395 LINE",
"150 395 LINE",
"150 600 LINE"
);
}
);
width = 408;
}
);
note = eth;
rightKerningGroup = d;
unicode = 00F0;
},
{
glyphname = ntilde;
lastChange = "2016-06-17 01:02:07 +0000";
layers = (
{
layerId = "26058A5B-27B8-4A86-A50F-6474302A7C9F";
paths = (
{
closed = 1;
nodes = (
"275 0 LINE",
"388 0 LINE",
"388 700 LINE",
"290 700 LINE",
"290 281 LINE",
"288 281 LINE",
"177 700 LINE",
"39 700 LINE",
"39 0 LINE",
"138 0 LINE",
"138 507 LINE",
"140 507 LINE"
);
},
{
closed = 1;
nodes = (
"242 813 OFFCURVE",
"232 816 OFFCURVE",
"216 824 CURVE SMOOTH",
"196 834 OFFCURVE",
"181 838 OFFCURVE",
"163 838 CURVE SMOOTH",
"123 838 OFFCURVE",
"95 815 OFFCURVE",
"78 770 CURVE",
"131 733 LINE",
"141 754 OFFCURVE",
"152 762 OFFCURVE",
"174 762 CURVE SMOOTH",
"185 762 OFFCURVE",
"195 759 OFFCURVE",
"211 751 CURVE SMOOTH",
"234 740 OFFCURVE",
"248 737 OFFCURVE",
"264 737 CURVE SMOOTH",
"304 737 OFFCURVE",
"332 760 OFFCURVE",
"349 805 CURVE",
"296 842 LINE",
"286 821 OFFCURVE",
"275 813 OFFCURVE",
"253 813 CURVE SMOOTH"
);
}
);
width = 427;
}
);
note = ntilde;
unicode = 00F1;
},
{
glyphname = ograve;
lastChange = "2016-06-17 01:02:07 +0000";
layers = (
{
layerId = "26058A5B-27B8-4A86-A50F-6474302A7C9F";
paths = (
{
closed = 1;
nodes = (
"141 539 LINE SMOOTH",
"141 589 OFFCURVE",
"163 608 OFFCURVE",
"198 608 CURVE SMOOTH",
"233 608 OFFCURVE",
"255 589 OFFCURVE",
"255 539 CURVE SMOOTH",
"255 161 LINE SMOOTH",
"255 111 OFFCURVE",
"233 92 OFFCURVE",
"198 92 CURVE SMOOTH",
"163 92 OFFCURVE",
"141 111 OFFCURVE",
"141 161 CURVE SMOOTH"
);
},
{
closed = 1;
nodes = (
"31 168 LINE SMOOTH",
"31 56 OFFCURVE",
"90 -8 OFFCURVE",
"198 -8 CURVE SMOOTH",
"306 -8 OFFCURVE",
"365 56 OFFCURVE",
"365 168 CURVE SMOOTH",
"365 532 LINE SMOOTH",
"365 644 OFFCURVE",
"306 708 OFFCURVE",
"198 708 CURVE SMOOTH",
"90 708 OFFCURVE",
"31 644 OFFCURVE",
"31 532 CURVE SMOOTH"
);
},
{
closed = 1;
nodes = (
"77 848 LINE",
"179 737 LINE",
"258 737 LINE",
"190 848 LINE"
);
}
);
width = 396;
}
);
leftKerningGroup = o;
note = ograve;
rightKerningGroup = o;
unicode = 00F2;
},
{
glyphname = oacute;
lastChange = "2016-06-17 01:02:07 +0000";
layers = (
{
layerId = "26058A5B-27B8-4A86-A50F-6474302A7C9F";
paths = (
{
closed = 1;
nodes = (
"141 539 LINE SMOOTH",
"141 589 OFFCURVE",
"163 608 OFFCURVE",
"198 608 CURVE SMOOTH",
"233 608 OFFCURVE",
"255 589 OFFCURVE",
"255 539 CURVE SMOOTH",
"255 161 LINE SMOOTH",
"255 111 OFFCURVE",
"233 92 OFFCURVE",
"198 92 CURVE SMOOTH",
"163 92 OFFCURVE",
"141 111 OFFCURVE",
"141 161 CURVE SMOOTH"
);
},
{
closed = 1;
nodes = (
"31 168 LINE SMOOTH",
"31 56 OFFCURVE",
"90 -8 OFFCURVE",
"198 -8 CURVE SMOOTH",
"306 -8 OFFCURVE",
"365 56 OFFCURVE",
"365 168 CURVE SMOOTH",
"365 532 LINE SMOOTH",
"365 644 OFFCURVE",
"306 708 OFFCURVE",
"198 708 CURVE SMOOTH",
"90 708 OFFCURVE",
"31 644 OFFCURVE",
"31 532 CURVE SMOOTH"
);
},
{
closed = 1;
nodes = (
"208 848 LINE",
"140 737 LINE",
"214 737 LINE",
"316 848 LINE"
);
}
);
width = 396;
}
);
leftKerningGroup = o;
note = oacute;
rightKerningGroup = o;
unicode = 00F3;
},
{
glyphname = ocircumflex;
lastChange = "2016-06-17 01:02:07 +0000";
layers = (
{
layerId = "26058A5B-27B8-4A86-A50F-6474302A7C9F";
paths = (
{
closed = 1;
nodes = (
"141 539 LINE SMOOTH",
"141 589 OFFCURVE",
"163 608 OFFCURVE",
"198 608 CURVE SMOOTH",
"233 608 OFFCURVE",
"255 589 OFFCURVE",
"255 539 CURVE SMOOTH",
"255 161 LINE SMOOTH",
"255 111 OFFCURVE",
"233 92 OFFCURVE",
"198 92 CURVE SMOOTH",
"163 92 OFFCURVE",
"141 111 OFFCURVE",
"141 161 CURVE SMOOTH"
);
},
{
closed = 1;
nodes = (
"31 168 LINE SMOOTH",
"31 56 OFFCURVE",
"90 -8 OFFCURVE",
"198 -8 CURVE SMOOTH",
"306 -8 OFFCURVE",
"365 56 OFFCURVE",
"365 168 CURVE SMOOTH",
"365 532 LINE SMOOTH",
"365 644 OFFCURVE",
"306 708 OFFCURVE",
"198 708 CURVE SMOOTH",
"90 708 OFFCURVE",
"31 644 OFFCURVE",
"31 532 CURVE SMOOTH"
);
},
{
closed = 1;
nodes = (
"153 737 LINE",
"197 792 LINE",
"242 737 LINE",
"336 737 LINE",
"247 848 LINE",
"148 848 LINE",
"59 737 LINE"
);
}
);
width = 396;
}
);
leftKerningGroup = o;
note = ocircumflex;
rightKerningGroup = o;
unicode = 00F4;
},
{
glyphname = otilde;
lastChange = "2016-06-17 01:02:07 +0000";
layers = (
{
layerId = "26058A5B-27B8-4A86-A50F-6474302A7C9F";
paths = (
{
closed = 1;
nodes = (
"141 539 LINE SMOOTH",
"141 589 OFFCURVE",
"163 608 OFFCURVE",
"198 608 CURVE SMOOTH",
"233 608 OFFCURVE",
"255 589 OFFCURVE",
"255 539 CURVE SMOOTH",
"255 161 LINE SMOOTH",
"255 111 OFFCURVE",
"233 92 OFFCURVE",
"198 92 CURVE SMOOTH",
"163 92 OFFCURVE",
"141 111 OFFCURVE",
"141 161 CURVE SMOOTH"
);
},
{
closed = 1;
nodes = (
"31 168 LINE SMOOTH",
"31 56 OFFCURVE",
"90 -8 OFFCURVE",
"198 -8 CURVE SMOOTH",
"306 -8 OFFCURVE",
"365 56 OFFCURVE",
"365 168 CURVE SMOOTH",
"365 532 LINE SMOOTH",
"365 644 OFFCURVE",
"306 708 OFFCURVE",
"198 708 CURVE SMOOTH",
"90 708 OFFCURVE",
"31 644 OFFCURVE",
"31 532 CURVE SMOOTH"
);
},
{
closed = 1;
nodes = (
"227 813 OFFCURVE",
"217 816 OFFCURVE",
"201 824 CURVE SMOOTH",
"181 834 OFFCURVE",
"166 838 OFFCURVE",
"148 838 CURVE SMOOTH",
"108 838 OFFCURVE",
"80 815 OFFCURVE",
"63 770 CURVE",
"116 733 LINE",
"126 754 OFFCURVE",
"137 762 OFFCURVE",
"159 762 CURVE SMOOTH",
"170 762 OFFCURVE",
"180 759 OFFCURVE",
"196 751 CURVE SMOOTH",
"219 740 OFFCURVE",
"233 737 OFFCURVE",
"249 737 CURVE SMOOTH",
"289 737 OFFCURVE",
"317 760 OFFCURVE",
"334 805 CURVE",
"281 842 LINE",
"271 821 OFFCURVE",
"260 813 OFFCURVE",
"238 813 CURVE SMOOTH"
);
}
);
width = 396;
}
);
leftKerningGroup = o;
note = otilde;
rightKerningGroup = o;
unicode = 00F5;
},
{
glyphname = odieresis;
lastChange = "2016-06-17 01:02:07 +0000";
layers = (
{
layerId = "26058A5B-27B8-4A86-A50F-6474302A7C9F";
paths = (
{
closed = 1;
nodes = (
"141 539 LINE SMOOTH",
"141 589 OFFCURVE",
"163 608 OFFCURVE",
"198 608 CURVE SMOOTH",
"233 608 OFFCURVE",
"255 589 OFFCURVE",
"255 539 CURVE SMOOTH",
"255 161 LINE SMOOTH",
"255 111 OFFCURVE",
"233 92 OFFCURVE",
"198 92 CURVE SMOOTH",
"163 92 OFFCURVE",
"141 111 OFFCURVE",
"141 161 CURVE SMOOTH"
);
},
{
closed = 1;
nodes = (
"31 168 LINE SMOOTH",
"31 56 OFFCURVE",
"90 -8 OFFCURVE",
"198 -8 CURVE SMOOTH",
"306 -8 OFFCURVE",
"365 56 OFFCURVE",
"365 168 CURVE SMOOTH",
"365 532 LINE SMOOTH",
"365 644 OFFCURVE",
"306 708 OFFCURVE",
"198 708 CURVE SMOOTH",
"90 708 OFFCURVE",
"31 644 OFFCURVE",
"31 532 CURVE SMOOTH"
);
},
{
closed = 1;
nodes = (
"74 833 LINE",
"74 737 LINE",
"170 737 LINE",
"170 833 LINE"
);
},
{
closed = 1;
nodes = (
"226 833 LINE",
"226 737 LINE",
"322 737 LINE",
"322 833 LINE"
);
}
);
width = 396;
}
);
leftKerningGroup = o;
note = odieresis;
rightKerningGroup = o;
unicode = 00F6;
},
{
glyphname = divide;
lastChange = "2016-06-17 01:02:07 +0000";
layers = (
{
layerId = "26058A5B-27B8-4A86-A50F-6474302A7C9F";
paths = (
{
closed = 1;
nodes = (
"145 250 LINE",
"145 144 LINE",
"251 144 LINE",
"251 250 LINE"
);
},
{
closed = 1;
nodes = (
"145 555 LINE",
"145 449 LINE",
"251 449 LINE",
"251 555 LINE"
);
},
{
closed = 1;
nodes = (
"25 389 LINE",
"25 311 LINE",
"371 311 LINE",
"371 389 LINE"
);
}
);
width = 396;
}
);
note = divide;
unicode = 00F7;
},
{
glyphname = oslash;
lastChange = "2016-06-17 01:02:07 +0000";
layers = (
{
layerId = "26058A5B-27B8-4A86-A50F-6474302A7C9F";
paths = (
{
closed = 1;
nodes = (
"31 168 LINE SMOOTH",
"31 117 OFFCURVE",
"43 76 OFFCURVE",
"66 46 CURVE",
"41 -24 LINE",
"78 -37 LINE",
"98 17 LINE",
"124 0 OFFCURVE",
"158 -8 OFFCURVE",
"198 -8 CURVE SMOOTH",
"306 -8 OFFCURVE",
"365 56 OFFCURVE",
"365 168 CURVE SMOOTH",
"365 532 LINE SMOOTH",
"365 583 OFFCURVE",
"353 624 OFFCURVE",
"329 653 CURVE",
"355 724 LINE",
"318 737 LINE",
"298 682 LINE",
"272 699 OFFCURVE",
"238 708 OFFCURVE",
"198 708 CURVE SMOOTH",
"90 708 OFFCURVE",
"31 644 OFFCURVE",
"31 532 CURVE SMOOTH"
);
},
{
closed = 1;
nodes = (
"253 443 LINE",
"255 443 LINE",
"255 161 LINE SMOOTH",
"255 111 OFFCURVE",
"233 92 OFFCURVE",
"198 92 CURVE SMOOTH",
"168 92 OFFCURVE",
"148 105 OFFCURVE",
"142 140 CURVE"
);
},
{
closed = 1;
nodes = (
"141 539 LINE SMOOTH",
"141 589 OFFCURVE",
"163 608 OFFCURVE",
"198 608 CURVE SMOOTH",
"227 608 OFFCURVE",
"248 594 OFFCURVE",
"253 560 CURVE",
"143 257 LINE",
"141 257 LINE"
);
}
);
width = 396;
}
);
leftKerningGroup = o;
note = oslash;
rightKerningGroup = o;
unicode = 00F8;
},
{
glyphname = ugrave;
lastChange = "2016-06-17 01:02:07 +0000";
layers = (
{
layerId = "26058A5B-27B8-4A86-A50F-6474302A7C9F";
paths = (
{
closed = 1;
nodes = (
"35 700 LINE",
"35 167 LINE SMOOTH",
"35 55 OFFCURVE",
"91 -9 OFFCURVE",
"199 -9 CURVE SMOOTH",
"307 -9 OFFCURVE",
"363 55 OFFCURVE",
"363 167 CURVE SMOOTH",
"363 700 LINE",
"259 700 LINE",
"259 160 LINE SMOOTH",
"259 110 OFFCURVE",
"237 92 OFFCURVE",
"202 92 CURVE SMOOTH",
"167 92 OFFCURVE",
"145 110 OFFCURVE",
"145 160 CURVE SMOOTH",
"145 700 LINE"
);
},
{
closed = 1;
nodes = (
"79 848 LINE",
"181 737 LINE",
"260 737 LINE",
"192 848 LINE"
);
}
);
width = 398;
}
);
leftKerningGroup = u;
note = ugrave;
rightKerningGroup = u;
unicode = 00F9;
},
{
glyphname = uacute;
lastChange = "2016-06-17 01:02:07 +0000";
layers = (
{
layerId = "26058A5B-27B8-4A86-A50F-6474302A7C9F";
paths = (
{
closed = 1;
nodes = (
"35 700 LINE",
"35 167 LINE SMOOTH",
"35 55 OFFCURVE",
"91 -9 OFFCURVE",
"199 -9 CURVE SMOOTH",
"307 -9 OFFCURVE",
"363 55 OFFCURVE",
"363 167 CURVE SMOOTH",
"363 700 LINE",
"259 700 LINE",
"259 160 LINE SMOOTH",
"259 110 OFFCURVE",
"237 92 OFFCURVE",
"202 92 CURVE SMOOTH",
"167 92 OFFCURVE",
"145 110 OFFCURVE",
"145 160 CURVE SMOOTH",
"145 700 LINE"
);
},
{
closed = 1;
nodes = (
"210 848 LINE",
"142 737 LINE",
"216 737 LINE",
"318 848 LINE"
);
}
);
width = 398;
}
);
leftKerningGroup = u;
note = uacute;
rightKerningGroup = u;
unicode = 00FA;
},
{
glyphname = ucircumflex;
lastChange = "2016-06-17 01:02:07 +0000";
layers = (
{
layerId = "26058A5B-27B8-4A86-A50F-6474302A7C9F";
paths = (
{
closed = 1;
nodes = (
"35 700 LINE",
"35 167 LINE SMOOTH",
"35 55 OFFCURVE",
"91 -9 OFFCURVE",
"199 -9 CURVE SMOOTH",
"307 -9 OFFCURVE",
"363 55 OFFCURVE",
"363 167 CURVE SMOOTH",
"363 700 LINE",
"259 700 LINE",
"259 160 LINE SMOOTH",
"259 110 OFFCURVE",
"237 92 OFFCURVE",
"202 92 CURVE SMOOTH",
"167 92 OFFCURVE",
"145 110 OFFCURVE",
"145 160 CURVE SMOOTH",
"145 700 LINE"
);
},
{
closed = 1;
nodes = (
"156 737 LINE",
"200 792 LINE",
"245 737 LINE",
"339 737 LINE",
"250 848 LINE",
"151 848 LINE",
"62 737 LINE"
);
}
);
width = 398;
}
);
leftKerningGroup = u;
note = ucircumflex;
rightKerningGroup = u;
unicode = 00FB;
},
{
glyphname = udieresis;
lastChange = "2016-06-17 01:02:07 +0000";
layers = (
{
layerId = "26058A5B-27B8-4A86-A50F-6474302A7C9F";
paths = (
{
closed = 1;
nodes = (
"35 700 LINE",
"35 167 LINE SMOOTH",
"35 55 OFFCURVE",
"91 -9 OFFCURVE",
"199 -9 CURVE SMOOTH",
"307 -9 OFFCURVE",
"363 55 OFFCURVE",
"363 167 CURVE SMOOTH",
"363 700 LINE",
"259 700 LINE",
"259 160 LINE SMOOTH",
"259 110 OFFCURVE",
"237 92 OFFCURVE",
"202 92 CURVE SMOOTH",
"167 92 OFFCURVE",
"145 110 OFFCURVE",
"145 160 CURVE SMOOTH",
"145 700 LINE"
);
},
{
closed = 1;
nodes = (
"77 833 LINE",
"77 737 LINE",
"173 737 LINE",
"173 833 LINE"
);
},
{
closed = 1;
nodes = (
"229 833 LINE",
"229 737 LINE",
"325 737 LINE",
"325 833 LINE"
);
}
);
width = 398;
}
);
leftKerningGroup = u;
note = udieresis;
rightKerningGroup = u;
unicode = 00FC;
},
{
glyphname = yacute;
lastChange = "2016-06-17 01:02:07 +0000";
layers = (
{
layerId = "26058A5B-27B8-4A86-A50F-6474302A7C9F";
paths = (
{
closed = 1;
nodes = (
"143 0 LINE",
"253 0 LINE",
"253 232 LINE",
"392 700 LINE",
"287 700 LINE",
"204 381 LINE",
"202 381 LINE",
"119 700 LINE",
"4 700 LINE",
"143 232 LINE"
);
},
{
closed = 1;
nodes = (
"212 848 LINE",
"144 737 LINE",
"218 737 LINE",
"320 848 LINE"
);
}
);
width = 396;
}
);
leftKerningGroup = y;
note = yacute;
rightKerningGroup = y;
unicode = 00FD;
},
{
glyphname = thorn;
lastChange = "2016-06-17 01:02:07 +0000";
layers = (
{
layerId = "26058A5B-27B8-4A86-A50F-6474302A7C9F";
paths = (
{
closed = 1;
nodes = (
"40 0 LINE",
"150 0 LINE",
"150 183 LINE",
"202 183 LINE SMOOTH",
"312 183 OFFCURVE",
"366 244 OFFCURVE",
"366 356 CURVE SMOOTH",
"366 447 LINE SMOOTH",
"366 559 OFFCURVE",
"312 620 OFFCURVE",
"202 620 CURVE SMOOTH",
"150 620 LINE",
"150 700 LINE",
"40 700 LINE"
);
},
{
closed = 1;
nodes = (
"202 520 LINE SMOOTH",
"237 520 OFFCURVE",
"256 504 OFFCURVE",
"256 454 CURVE SMOOTH",
"256 349 LINE SMOOTH",
"256 299 OFFCURVE",
"237 283 OFFCURVE",
"202 283 CURVE SMOOTH",
"150 283 LINE",
"150 520 LINE"
);
}
);
width = 377;
}
);
note = thorn;
unicode = 00FE;
},
{
glyphname = ydieresis;
lastChange = "2016-06-17 01:02:07 +0000";
layers = (
{
layerId = "26058A5B-27B8-4A86-A50F-6474302A7C9F";
paths = (
{
closed = 1;
nodes = (
"143 0 LINE",
"253 0 LINE",
"253 232 LINE",
"392 700 LINE",
"287 700 LINE",
"204 381 LINE",
"202 381 LINE",
"119 700 LINE",
"4 700 LINE",
"143 232 LINE"
);
},
{
closed = 1;
nodes = (
"78 833 LINE",
"78 737 LINE",
"174 737 LINE",
"174 833 LINE"
);
},
{
closed = 1;
nodes = (
"230 833 LINE",
"230 737 LINE",
"326 737 LINE",
"326 833 LINE"
);
}
);
width = 396;
}
);
leftKerningGroup = y;
note = ydieresis;
rightKerningGroup = y;
unicode = 00FF;
},
{
glyphname = Amacron;
lastChange = "2016-06-17 01:02:07 +0000";
layers = (
{
layerId = "26058A5B-27B8-4A86-A50F-6474302A7C9F";
paths = (
{
closed = 1;
nodes = (
"284 700 LINE",
"123 700 LINE",
"11 0 LINE",
"112 0 LINE",
"131 127 LINE",
"266 127 LINE",
"285 0 LINE",
"396 0 LINE"
);
},
{
closed = 1;
nodes = (
"197 576 LINE",
"199 576 LINE",
"251 222 LINE",
"145 222 LINE"
);
},
{
closed = 1;
nodes = (
"88 819 LINE",
"88 741 LINE",
"318 741 LINE",
"318 819 LINE"
);
}
);
width = 407;
}
);
leftKerningGroup = A;
note = Amacron;
rightKerningGroup = A;
unicode = 0100;
},
{
glyphname = amacron;
lastChange = "2016-06-17 01:02:07 +0000";
layers = (
{
layerId = "26058A5B-27B8-4A86-A50F-6474302A7C9F";
paths = (
{
closed = 1;
nodes = (
"284 700 LINE",
"123 700 LINE",
"11 0 LINE",
"112 0 LINE",
"131 127 LINE",
"266 127 LINE",
"285 0 LINE",
"396 0 LINE"
);
},
{
closed = 1;
nodes = (
"197 576 LINE",
"199 576 LINE",
"251 222 LINE",
"145 222 LINE"
);
},
{
closed = 1;
nodes = (
"88 819 LINE",
"88 741 LINE",
"318 741 LINE",
"318 819 LINE"
);
}
);
width = 407;
}
);
leftKerningGroup = a;
note = amacron;
rightKerningGroup = a;
unicode = 0101;
},
{
glyphname = Abreve;
lastChange = "2016-06-17 01:02:07 +0000";
layers = (
{
layerId = "26058A5B-27B8-4A86-A50F-6474302A7C9F";
paths = (
{
closed = 1;
nodes = (
"284 700 LINE",
"123 700 LINE",
"11 0 LINE",
"112 0 LINE",
"131 127 LINE",
"266 127 LINE",
"285 0 LINE",
"396 0 LINE"
);
},
{
closed = 1;
nodes = (
"197 576 LINE",
"199 576 LINE",
"251 222 LINE",
"145 222 LINE"
);
},
{
closed = 1;
nodes = (
"247 810 OFFCURVE",
"231 801 OFFCURVE",
"202 801 CURVE SMOOTH",
"174 801 OFFCURVE",
"159 810 OFFCURVE",
"156 848 CURVE",
"91 848 LINE",
"92 778 OFFCURVE",
"127 733 OFFCURVE",
"202 733 CURVE SMOOTH",
"277 733 OFFCURVE",
"315 778 OFFCURVE",
"315 848 CURVE",
"250 848 LINE"
);
}
);
width = 407;
}
);
leftKerningGroup = A;
note = Abreve;
rightKerningGroup = A;
unicode = 0102;
},
{
glyphname = abreve;
lastChange = "2016-06-17 01:02:07 +0000";
layers = (
{
layerId = "26058A5B-27B8-4A86-A50F-6474302A7C9F";
paths = (
{
closed = 1;
nodes = (
"284 700 LINE",
"123 700 LINE",
"11 0 LINE",
"112 0 LINE",
"131 127 LINE",
"266 127 LINE",
"285 0 LINE",
"396 0 LINE"
);
},
{
closed = 1;
nodes = (
"197 576 LINE",
"199 576 LINE",
"251 222 LINE",
"145 222 LINE"
);
},
{
closed = 1;
nodes = (
"247 810 OFFCURVE",
"231 801 OFFCURVE",
"202 801 CURVE SMOOTH",
"174 801 OFFCURVE",
"159 810 OFFCURVE",
"156 848 CURVE",
"91 848 LINE",
"92 778 OFFCURVE",
"127 733 OFFCURVE",
"202 733 CURVE SMOOTH",
"277 733 OFFCURVE",
"315 778 OFFCURVE",
"315 848 CURVE",
"250 848 LINE"
);
}
);
width = 407;
}
);
leftKerningGroup = a;
note = abreve;
rightKerningGroup = a;
unicode = 0103;
},
{
glyphname = Aogonek;
lastChange = "2016-06-17 01:02:07 +0000";
layers = (
{
layerId = "26058A5B-27B8-4A86-A50F-6474302A7C9F";
paths = (
{
closed = 1;
nodes = (
"284 700 LINE",
"123 700 LINE",
"11 0 LINE",
"112 0 LINE",
"131 127 LINE",
"266 127 LINE",
"288 -12 LINE",
"256 -33 OFFCURVE",
"241 -58 OFFCURVE",
"241 -85 CURVE SMOOTH",
"241 -126 OFFCURVE",
"275 -147 OFFCURVE",
"328 -147 CURVE SMOOTH",
"356 -147 OFFCURVE",
"373 -145 OFFCURVE",
"396 -136 CURVE",
"396 -80 LINE",
"385 -83 OFFCURVE",
"380 -86 OFFCURVE",
"360 -86 CURVE SMOOTH",
"342 -86 OFFCURVE",
"325 -77 OFFCURVE",
"325 -58 CURVE SMOOTH",
"325 -44 OFFCURVE",
"330 -21 OFFCURVE",
"355 0 CURVE",
"396 0 LINE"
);
},
{
closed = 1;
nodes = (
"197 576 LINE",
"199 576 LINE",
"251 222 LINE",
"145 222 LINE"
);
}
);
width = 407;
}
);
leftKerningGroup = A;
note = Aogonek;
rightKerningGroup = A;
unicode = 0104;
},
{
glyphname = aogonek;
lastChange = "2016-06-17 01:02:07 +0000";
layers = (
{
layerId = "26058A5B-27B8-4A86-A50F-6474302A7C9F";
paths = (
{
closed = 1;
nodes = (
"284 700 LINE",
"123 700 LINE",
"11 0 LINE",
"112 0 LINE",
"131 127 LINE",
"266 127 LINE",
"288 -12 LINE",
"256 -33 OFFCURVE",
"241 -58 OFFCURVE",
"241 -85 CURVE SMOOTH",
"241 -126 OFFCURVE",
"275 -147 OFFCURVE",
"328 -147 CURVE SMOOTH",
"356 -147 OFFCURVE",
"373 -145 OFFCURVE",
"396 -136 CURVE",
"396 -80 LINE",
"385 -83 OFFCURVE",
"380 -86 OFFCURVE",
"360 -86 CURVE SMOOTH",
"342 -86 OFFCURVE",
"325 -77 OFFCURVE",
"325 -58 CURVE SMOOTH",
"325 -44 OFFCURVE",
"330 -21 OFFCURVE",
"355 0 CURVE",
"396 0 LINE"
);
},
{
closed = 1;
nodes = (
"197 576 LINE",
"199 576 LINE",
"251 222 LINE",
"145 222 LINE"
);
}
);
width = 407;
}
);
leftKerningGroup = a;
note = aogonek;
rightKerningGroup = a;
unicode = 0105;
},
{
glyphname = Cacute;
lastChange = "2016-06-17 01:02:07 +0000";
layers = (
{
layerId = "26058A5B-27B8-4A86-A50F-6474302A7C9F";
paths = (
{
closed = 1;
nodes = (
"255 261 LINE",
"255 161 LINE SMOOTH",
"255 111 OFFCURVE",
"233 93 OFFCURVE",
"198 93 CURVE SMOOTH",
"163 93 OFFCURVE",
"141 111 OFFCURVE",
"141 161 CURVE SMOOTH",
"141 539 LINE SMOOTH",
"141 589 OFFCURVE",
"163 608 OFFCURVE",
"198 608 CURVE SMOOTH",
"233 608 OFFCURVE",
"255 589 OFFCURVE",
"255 539 CURVE SMOOTH",
"255 464 LINE",
"359 464 LINE",
"359 532 LINE SMOOTH",
"359 644 OFFCURVE",
"303 708 OFFCURVE",
"195 708 CURVE SMOOTH",
"87 708 OFFCURVE",
"31 644 OFFCURVE",
"31 532 CURVE SMOOTH",
"31 168 LINE SMOOTH",
"31 56 OFFCURVE",
"87 -8 OFFCURVE",
"195 -8 CURVE SMOOTH",
"303 -8 OFFCURVE",
"359 56 OFFCURVE",
"359 168 CURVE SMOOTH",
"359 261 LINE"
);
},
{
closed = 1;
nodes = (
"205 848 LINE",
"137 737 LINE",
"211 737 LINE",
"313 848 LINE"
);
}
);
width = 386;
}
);
leftKerningGroup = C;
note = Cacute;
rightKerningGroup = C;
unicode = 0106;
},
{
glyphname = cacute;
lastChange = "2016-06-17 01:02:07 +0000";
layers = (
{
layerId = "26058A5B-27B8-4A86-A50F-6474302A7C9F";
paths = (
{
closed = 1;
nodes = (
"255 261 LINE",
"255 161 LINE SMOOTH",
"255 111 OFFCURVE",
"233 93 OFFCURVE",
"198 93 CURVE SMOOTH",
"163 93 OFFCURVE",
"141 111 OFFCURVE",
"141 161 CURVE SMOOTH",
"141 539 LINE SMOOTH",
"141 589 OFFCURVE",
"163 608 OFFCURVE",
"198 608 CURVE SMOOTH",
"233 608 OFFCURVE",
"255 589 OFFCURVE",
"255 539 CURVE SMOOTH",
"255 464 LINE",
"359 464 LINE",
"359 532 LINE SMOOTH",
"359 644 OFFCURVE",
"303 708 OFFCURVE",
"195 708 CURVE SMOOTH",
"87 708 OFFCURVE",
"31 644 OFFCURVE",
"31 532 CURVE SMOOTH",
"31 168 LINE SMOOTH",
"31 56 OFFCURVE",
"87 -8 OFFCURVE",
"195 -8 CURVE SMOOTH",
"303 -8 OFFCURVE",
"359 56 OFFCURVE",
"359 168 CURVE SMOOTH",
"359 261 LINE"
);
},
{
closed = 1;
nodes = (
"205 848 LINE",
"137 737 LINE",
"211 737 LINE",
"313 848 LINE"
);
}
);
width = 386;
}
);
leftKerningGroup = c;
note = cacute;
rightKerningGroup = c;
unicode = 0107;
},
{
glyphname = Ccircumflex;
lastChange = "2016-06-17 01:02:07 +0000";
layers = (
{
layerId = "26058A5B-27B8-4A86-A50F-6474302A7C9F";
paths = (
{
closed = 1;
nodes = (
"255 261 LINE",
"255 161 LINE SMOOTH",
"255 111 OFFCURVE",
"233 93 OFFCURVE",
"198 93 CURVE SMOOTH",
"163 93 OFFCURVE",
"141 111 OFFCURVE",
"141 161 CURVE SMOOTH",
"141 539 LINE SMOOTH",
"141 589 OFFCURVE",
"163 608 OFFCURVE",
"198 608 CURVE SMOOTH",
"233 608 OFFCURVE",
"255 589 OFFCURVE",
"255 539 CURVE SMOOTH",
"255 464 LINE",
"359 464 LINE",
"359 532 LINE SMOOTH",
"359 644 OFFCURVE",
"303 708 OFFCURVE",
"195 708 CURVE SMOOTH",
"87 708 OFFCURVE",
"31 644 OFFCURVE",
"31 532 CURVE SMOOTH",
"31 168 LINE SMOOTH",
"31 56 OFFCURVE",
"87 -8 OFFCURVE",
"195 -8 CURVE SMOOTH",
"303 -8 OFFCURVE",
"359 56 OFFCURVE",
"359 168 CURVE SMOOTH",
"359 261 LINE"
);
},
{
closed = 1;
nodes = (
"150 737 LINE",
"194 792 LINE",
"239 737 LINE",
"333 737 LINE",
"244 848 LINE",
"145 848 LINE",
"56 737 LINE"
);
}
);
width = 386;
}
);
leftKerningGroup = C;
note = Ccircumflex;
rightKerningGroup = C;
unicode = 0108;
},
{
glyphname = ccircumflex;
lastChange = "2016-06-17 01:02:07 +0000";
layers = (
{
layerId = "26058A5B-27B8-4A86-A50F-6474302A7C9F";
paths = (
{
closed = 1;
nodes = (
"255 261 LINE",
"255 161 LINE SMOOTH",
"255 111 OFFCURVE",
"233 93 OFFCURVE",
"198 93 CURVE SMOOTH",
"163 93 OFFCURVE",
"141 111 OFFCURVE",
"141 161 CURVE SMOOTH",
"141 539 LINE SMOOTH",
"141 589 OFFCURVE",
"163 608 OFFCURVE",
"198 608 CURVE SMOOTH",
"233 608 OFFCURVE",
"255 589 OFFCURVE",
"255 539 CURVE SMOOTH",
"255 464 LINE",
"359 464 LINE",
"359 532 LINE SMOOTH",
"359 644 OFFCURVE",
"303 708 OFFCURVE",
"195 708 CURVE SMOOTH",
"87 708 OFFCURVE",
"31 644 OFFCURVE",
"31 532 CURVE SMOOTH",
"31 168 LINE SMOOTH",
"31 56 OFFCURVE",
"87 -8 OFFCURVE",
"195 -8 CURVE SMOOTH",
"303 -8 OFFCURVE",
"359 56 OFFCURVE",
"359 168 CURVE SMOOTH",
"359 261 LINE"
);
},
{
closed = 1;
nodes = (
"150 737 LINE",
"194 792 LINE",
"239 737 LINE",
"333 737 LINE",
"244 848 LINE",
"145 848 LINE",
"56 737 LINE"
);
}
);
width = 386;
}
);
leftKerningGroup = c;
note = ccircumflex;
rightKerningGroup = c;
unicode = 0109;
},
{
glyphname = Cdotaccent;
lastChange = "2016-06-17 01:02:07 +0000";
layers = (
{
layerId = "26058A5B-27B8-4A86-A50F-6474302A7C9F";
paths = (
{
closed = 1;
nodes = (
"255 261 LINE",
"255 161 LINE SMOOTH",
"255 111 OFFCURVE",
"233 93 OFFCURVE",
"198 93 CURVE SMOOTH",
"163 93 OFFCURVE",
"141 111 OFFCURVE",
"141 161 CURVE SMOOTH",
"141 539 LINE SMOOTH",
"141 589 OFFCURVE",
"163 608 OFFCURVE",
"198 608 CURVE SMOOTH",
"233 608 OFFCURVE",
"255 589 OFFCURVE",
"255 539 CURVE SMOOTH",
"255 464 LINE",
"359 464 LINE",
"359 532 LINE SMOOTH",
"359 644 OFFCURVE",
"303 708 OFFCURVE",
"195 708 CURVE SMOOTH",
"87 708 OFFCURVE",
"31 644 OFFCURVE",
"31 532 CURVE SMOOTH",
"31 168 LINE SMOOTH",
"31 56 OFFCURVE",
"87 -8 OFFCURVE",
"195 -8 CURVE SMOOTH",
"303 -8 OFFCURVE",
"359 56 OFFCURVE",
"359 168 CURVE SMOOTH",
"359 261 LINE"
);
},
{
closed = 1;
nodes = (
"147 833 LINE",
"147 737 LINE",
"243 737 LINE",
"243 833 LINE"
);
}
);
width = 386;
}
);
leftKerningGroup = C;
note = Cdotaccent;
rightKerningGroup = C;
unicode = 010A;
},
{
glyphname = cdotaccent;
lastChange = "2016-06-17 01:02:07 +0000";
layers = (
{
layerId = "26058A5B-27B8-4A86-A50F-6474302A7C9F";
paths = (
{
closed = 1;
nodes = (
"255 261 LINE",
"255 161 LINE SMOOTH",
"255 111 OFFCURVE",
"233 93 OFFCURVE",
"198 93 CURVE SMOOTH",
"163 93 OFFCURVE",
"141 111 OFFCURVE",
"141 161 CURVE SMOOTH",
"141 539 LINE SMOOTH",
"141 589 OFFCURVE",
"163 608 OFFCURVE",
"198 608 CURVE SMOOTH",
"233 608 OFFCURVE",
"255 589 OFFCURVE",
"255 539 CURVE SMOOTH",
"255 464 LINE",
"359 464 LINE",
"359 532 LINE SMOOTH",
"359 644 OFFCURVE",
"303 708 OFFCURVE",
"195 708 CURVE SMOOTH",
"87 708 OFFCURVE",
"31 644 OFFCURVE",
"31 532 CURVE SMOOTH",
"31 168 LINE SMOOTH",
"31 56 OFFCURVE",
"87 -8 OFFCURVE",
"195 -8 CURVE SMOOTH",
"303 -8 OFFCURVE",
"359 56 OFFCURVE",
"359 168 CURVE SMOOTH",
"359 261 LINE"
);
},
{
closed = 1;
nodes = (
"147 833 LINE",
"147 737 LINE",
"243 737 LINE",
"243 833 LINE"
);
}
);
width = 386;
}
);
leftKerningGroup = c;
note = cdotaccent;
rightKerningGroup = c;
unicode = 010B;
},
{
glyphname = Ccaron;
lastChange = "2016-06-17 01:02:07 +0000";
layers = (
{
layerId = "26058A5B-27B8-4A86-A50F-6474302A7C9F";
paths = (
{
closed = 1;
nodes = (
"255 261 LINE",
"255 161 LINE SMOOTH",
"255 111 OFFCURVE",
"233 93 OFFCURVE",
"198 93 CURVE SMOOTH",
"163 93 OFFCURVE",
"141 111 OFFCURVE",
"141 161 CURVE SMOOTH",
"141 539 LINE SMOOTH",
"141 589 OFFCURVE",
"163 608 OFFCURVE",
"198 608 CURVE SMOOTH",
"233 608 OFFCURVE",
"255 589 OFFCURVE",
"255 539 CURVE SMOOTH",
"255 464 LINE",
"359 464 LINE",
"359 532 LINE SMOOTH",
"359 644 OFFCURVE",
"303 708 OFFCURVE",
"195 708 CURVE SMOOTH",
"87 708 OFFCURVE",
"31 644 OFFCURVE",
"31 532 CURVE SMOOTH",
"31 168 LINE SMOOTH",
"31 56 OFFCURVE",
"87 -8 OFFCURVE",
"195 -8 CURVE SMOOTH",
"303 -8 OFFCURVE",
"359 56 OFFCURVE",
"359 168 CURVE SMOOTH",
"359 261 LINE"
);
},
{
closed = 1;
nodes = (
"56 848 LINE",
"145 737 LINE",
"244 737 LINE",
"333 848 LINE",
"239 848 LINE",
"194 792 LINE",
"150 848 LINE"
);
}
);
width = 386;
}
);
leftKerningGroup = C;
note = Ccaron;
rightKerningGroup = C;
unicode = 010C;
},
{
glyphname = ccaron;
lastChange = "2016-06-17 01:02:07 +0000";
layers = (
{
layerId = "26058A5B-27B8-4A86-A50F-6474302A7C9F";
paths = (
{
closed = 1;
nodes = (
"255 261 LINE",
"255 161 LINE SMOOTH",
"255 111 OFFCURVE",
"233 93 OFFCURVE",
"198 93 CURVE SMOOTH",
"163 93 OFFCURVE",
"141 111 OFFCURVE",
"141 161 CURVE SMOOTH",
"141 539 LINE SMOOTH",
"141 589 OFFCURVE",
"163 608 OFFCURVE",
"198 608 CURVE SMOOTH",
"233 608 OFFCURVE",
"255 589 OFFCURVE",
"255 539 CURVE SMOOTH",
"255 464 LINE",
"359 464 LINE",
"359 532 LINE SMOOTH",
"359 644 OFFCURVE",
"303 708 OFFCURVE",
"195 708 CURVE SMOOTH",
"87 708 OFFCURVE",
"31 644 OFFCURVE",
"31 532 CURVE SMOOTH",
"31 168 LINE SMOOTH",
"31 56 OFFCURVE",
"87 -8 OFFCURVE",
"195 -8 CURVE SMOOTH",
"303 -8 OFFCURVE",
"359 56 OFFCURVE",
"359 168 CURVE SMOOTH",
"359 261 LINE"
);
},
{
closed = 1;
nodes = (
"56 848 LINE",
"145 737 LINE",
"244 737 LINE",
"333 848 LINE",
"239 848 LINE",
"194 792 LINE",
"150 848 LINE"
);
}
);
width = 386;
}
);
leftKerningGroup = c;
note = ccaron;
rightKerningGroup = c;
unicode = 010D;
},
{
glyphname = Dcaron;
lastChange = "2016-06-17 01:02:07 +0000";
layers = (
{
layerId = "26058A5B-27B8-4A86-A50F-6474302A7C9F";
paths = (
{
closed = 1;
nodes = (
"40 0 LINE",
"214 0 LINE SMOOTH",
"324 0 OFFCURVE",
"378 61 OFFCURVE",
"378 173 CURVE SMOOTH",
"378 527 LINE SMOOTH",
"378 639 OFFCURVE",
"324 700 OFFCURVE",
"214 700 CURVE SMOOTH",
"40 700 LINE"
);
},
{
closed = 1;
nodes = (
"212 600 LINE SMOOTH",
"247 600 OFFCURVE",
"268 582 OFFCURVE",
"268 532 CURVE SMOOTH",
"268 168 LINE SMOOTH",
"268 118 OFFCURVE",
"247 100 OFFCURVE",
"212 100 CURVE SMOOTH",
"150 100 LINE",
"150 600 LINE"
);
},
{
closed = 1;
nodes = (
"56 848 LINE",
"145 737 LINE",
"244 737 LINE",
"333 848 LINE",
"239 848 LINE",
"194 792 LINE",
"150 848 LINE"
);
}
);
width = 408;
}
);
note = Dcaron;
rightKerningGroup = D;
unicode = 010E;
},
{
glyphname = dcaron;
lastChange = "2016-06-17 01:02:07 +0000";
layers = (
{
layerId = "26058A5B-27B8-4A86-A50F-6474302A7C9F";
paths = (
{
closed = 1;
nodes = (
"40 0 LINE",
"214 0 LINE SMOOTH",
"324 0 OFFCURVE",
"378 61 OFFCURVE",
"378 173 CURVE SMOOTH",
"378 527 LINE SMOOTH",
"378 639 OFFCURVE",
"324 700 OFFCURVE",
"214 700 CURVE SMOOTH",
"40 700 LINE"
);
},
{
closed = 1;
nodes = (
"212 600 LINE SMOOTH",
"247 600 OFFCURVE",
"268 582 OFFCURVE",
"268 532 CURVE SMOOTH",
"268 168 LINE SMOOTH",
"268 118 OFFCURVE",
"247 100 OFFCURVE",
"212 100 CURVE SMOOTH",
"150 100 LINE",
"150 600 LINE"
);
},
{
closed = 1;
nodes = (
"56 848 LINE",
"145 737 LINE",
"244 737 LINE",
"333 848 LINE",
"239 848 LINE",
"194 792 LINE",
"150 848 LINE"
);
}
);
width = 408;
}
);
note = dcaron;
rightKerningGroup = d;
unicode = 010F;
},
{
glyphname = Dcroat;
lastChange = "2016-06-17 01:02:07 +0000";
layers = (
{
layerId = "26058A5B-27B8-4A86-A50F-6474302A7C9F";
paths = (
{
closed = 1;
nodes = (
"40 0 LINE",
"214 0 LINE SMOOTH",
"324 0 OFFCURVE",
"378 61 OFFCURVE",
"378 173 CURVE SMOOTH",
"378 527 LINE SMOOTH",
"378 639 OFFCURVE",
"324 700 OFFCURVE",
"214 700 CURVE SMOOTH",
"40 700 LINE",
"40 395 LINE",
"4 395 LINE",
"4 305 LINE",
"40 305 LINE"
);
},
{
closed = 1;
nodes = (
"212 600 LINE SMOOTH",
"247 600 OFFCURVE",
"268 582 OFFCURVE",
"268 532 CURVE SMOOTH",
"268 168 LINE SMOOTH",
"268 118 OFFCURVE",
"247 100 OFFCURVE",
"212 100 CURVE SMOOTH",
"150 100 LINE",
"150 305 LINE",
"218 305 LINE",
"218 395 LINE",
"150 395 LINE",
"150 600 LINE"
);
}
);
width = 408;
}
);
note = Dcroat;
rightKerningGroup = D;
unicode = 0110;
},
{
glyphname = dcroat;
lastChange = "2016-06-17 01:02:07 +0000";
layers = (
{
layerId = "26058A5B-27B8-4A86-A50F-6474302A7C9F";
paths = (
{
closed = 1;
nodes = (
"40 0 LINE",
"214 0 LINE SMOOTH",
"324 0 OFFCURVE",
"378 61 OFFCURVE",
"378 173 CURVE SMOOTH",
"378 527 LINE SMOOTH",
"378 639 OFFCURVE",
"324 700 OFFCURVE",
"214 700 CURVE SMOOTH",
"40 700 LINE",
"40 395 LINE",
"4 395 LINE",
"4 305 LINE",
"40 305 LINE"
);
},
{
closed = 1;
nodes = (
"212 600 LINE SMOOTH",
"247 600 OFFCURVE",
"268 582 OFFCURVE",
"268 532 CURVE SMOOTH",
"268 168 LINE SMOOTH",
"268 118 OFFCURVE",
"247 100 OFFCURVE",
"212 100 CURVE SMOOTH",
"150 100 LINE",
"150 305 LINE",
"218 305 LINE",
"218 395 LINE",
"150 395 LINE",
"150 600 LINE"
);
}
);
width = 408;
}
);
note = dcroat;
rightKerningGroup = d;
unicode = 0111;
},
{
glyphname = Emacron;
lastChange = "2016-06-17 01:02:07 +0000";
layers = (
{
layerId = "26058A5B-27B8-4A86-A50F-6474302A7C9F";
paths = (
{
closed = 1;
nodes = (
"150 600 LINE",
"340 600 LINE",
"340 700 LINE",
"40 700 LINE",
"40 0 LINE",
"340 0 LINE",
"340 100 LINE",
"150 100 LINE",
"150 305 LINE",
"301 305 LINE",
"301 405 LINE",
"150 405 LINE"
);
},
{
closed = 1;
nodes = (
"73 819 LINE",
"73 741 LINE",
"303 741 LINE",
"303 819 LINE"
);
}
);
width = 368;
}
);
note = Emacron;
unicode = 0112;
},
{
glyphname = emacron;
lastChange = "2016-06-17 01:02:07 +0000";
layers = (
{
layerId = "26058A5B-27B8-4A86-A50F-6474302A7C9F";
paths = (
{
closed = 1;
nodes = (
"150 600 LINE",
"340 600 LINE",
"340 700 LINE",
"40 700 LINE",
"40 0 LINE",
"340 0 LINE",
"340 100 LINE",
"150 100 LINE",
"150 305 LINE",
"301 305 LINE",
"301 405 LINE",
"150 405 LINE"
);
},
{
closed = 1;
nodes = (
"73 819 LINE",
"73 741 LINE",
"303 741 LINE",
"303 819 LINE"
);
}
);
width = 368;
}
);
note = emacron;
unicode = 0113;
},
{
glyphname = Ebreve;
lastChange = "2016-06-17 01:02:07 +0000";
layers = (
{
layerId = "26058A5B-27B8-4A86-A50F-6474302A7C9F";
paths = (
{
closed = 1;
nodes = (
"150 600 LINE",
"340 600 LINE",
"340 700 LINE",
"40 700 LINE",
"40 0 LINE",
"340 0 LINE",
"340 100 LINE",
"150 100 LINE",
"150 305 LINE",
"301 305 LINE",
"301 405 LINE",
"150 405 LINE"
);
},
{
closed = 1;
nodes = (
"232 810 OFFCURVE",
"216 801 OFFCURVE",
"187 801 CURVE SMOOTH",
"159 801 OFFCURVE",
"144 810 OFFCURVE",
"141 848 CURVE",
"76 848 LINE",
"77 778 OFFCURVE",
"112 733 OFFCURVE",
"187 733 CURVE SMOOTH",
"262 733 OFFCURVE",
"300 778 OFFCURVE",
"300 848 CURVE",
"235 848 LINE"
);
}
);
width = 368;
}
);
note = Ebreve;
unicode = 0114;
},
{
glyphname = ebreve;
lastChange = "2016-06-17 01:02:07 +0000";
layers = (
{
layerId = "26058A5B-27B8-4A86-A50F-6474302A7C9F";
paths = (
{
closed = 1;
nodes = (
"150 600 LINE",
"340 600 LINE",
"340 700 LINE",
"40 700 LINE",
"40 0 LINE",
"340 0 LINE",
"340 100 LINE",
"150 100 LINE",
"150 305 LINE",
"301 305 LINE",
"301 405 LINE",
"150 405 LINE"
);
},
{
closed = 1;
nodes = (
"232 810 OFFCURVE",
"216 801 OFFCURVE",
"187 801 CURVE SMOOTH",
"159 801 OFFCURVE",
"144 810 OFFCURVE",
"141 848 CURVE",
"76 848 LINE",
"77 778 OFFCURVE",
"112 733 OFFCURVE",
"187 733 CURVE SMOOTH",
"262 733 OFFCURVE",
"300 778 OFFCURVE",
"300 848 CURVE",
"235 848 LINE"
);
}
);
width = 368;
}
);
note = ebreve;
unicode = 0115;
},
{
glyphname = Edotaccent;
lastChange = "2016-06-17 01:02:07 +0000";
layers = (
{
layerId = "26058A5B-27B8-4A86-A50F-6474302A7C9F";
paths = (
{
closed = 1;
nodes = (
"150 600 LINE",
"340 600 LINE",
"340 700 LINE",
"40 700 LINE",
"40 0 LINE",
"340 0 LINE",
"340 100 LINE",
"150 100 LINE",
"150 305 LINE",
"301 305 LINE",
"301 405 LINE",
"150 405 LINE"
);
},
{
closed = 1;
nodes = (
"140 833 LINE",
"140 737 LINE",
"236 737 LINE",
"236 833 LINE"
);
}
);
width = 368;
}
);
note = Edotaccent;
unicode = 0116;
},
{
glyphname = edotaccent;
lastChange = "2016-06-17 01:02:07 +0000";
layers = (
{
layerId = "26058A5B-27B8-4A86-A50F-6474302A7C9F";
paths = (
{
closed = 1;
nodes = (
"150 600 LINE",
"340 600 LINE",
"340 700 LINE",
"40 700 LINE",
"40 0 LINE",
"340 0 LINE",
"340 100 LINE",
"150 100 LINE",
"150 305 LINE",
"301 305 LINE",
"301 405 LINE",
"150 405 LINE"
);
},
{
closed = 1;
nodes = (
"140 833 LINE",
"140 737 LINE",
"236 737 LINE",
"236 833 LINE"
);
}
);
width = 368;
}
);
note = edotaccent;
unicode = 0117;
},
{
glyphname = Eogonek;
lastChange = "2016-06-17 01:02:07 +0000";
layers = (
{
layerId = "26058A5B-27B8-4A86-A50F-6474302A7C9F";
paths = (
{
closed = 1;
nodes = (
"150 600 LINE",
"340 600 LINE",
"340 700 LINE",
"40 700 LINE",
"40 0 LINE",
"250 0 LINE",
"250 -2 LINE",
"205 -25 OFFCURVE",
"185 -53 OFFCURVE",
"185 -85 CURVE SMOOTH",
"185 -126 OFFCURVE",
"219 -147 OFFCURVE",
"272 -147 CURVE SMOOTH",
"300 -147 OFFCURVE",
"317 -145 OFFCURVE",
"340 -136 CURVE",
"340 -80 LINE",
"329 -83 OFFCURVE",
"324 -86 OFFCURVE",
"304 -86 CURVE SMOOTH",
"286 -86 OFFCURVE",
"269 -77 OFFCURVE",
"269 -58 CURVE SMOOTH",
"269 -44 OFFCURVE",
"274 -21 OFFCURVE",
"299 0 CURVE",
"340 0 LINE",
"340 100 LINE",
"150 100 LINE",
"150 305 LINE",
"301 305 LINE",
"301 405 LINE",
"150 405 LINE"
);
}
);
width = 368;
}
);
note = Eogonek;
unicode = 0118;
},
{
glyphname = eogonek;
lastChange = "2016-06-17 01:02:07 +0000";
layers = (
{
layerId = "26058A5B-27B8-4A86-A50F-6474302A7C9F";
paths = (
{
closed = 1;
nodes = (
"150 600 LINE",
"340 600 LINE",
"340 700 LINE",
"40 700 LINE",
"40 0 LINE",
"250 0 LINE",
"250 -2 LINE",
"205 -25 OFFCURVE",
"185 -53 OFFCURVE",
"185 -85 CURVE SMOOTH",
"185 -126 OFFCURVE",
"219 -147 OFFCURVE",
"272 -147 CURVE SMOOTH",
"300 -147 OFFCURVE",
"317 -145 OFFCURVE",
"340 -136 CURVE",
"340 -80 LINE",
"329 -83 OFFCURVE",
"324 -86 OFFCURVE",
"304 -86 CURVE SMOOTH",
"286 -86 OFFCURVE",
"269 -77 OFFCURVE",
"269 -58 CURVE SMOOTH",
"269 -44 OFFCURVE",
"274 -21 OFFCURVE",
"299 0 CURVE",
"340 0 LINE",
"340 100 LINE",
"150 100 LINE",
"150 305 LINE",
"301 305 LINE",
"301 405 LINE",
"150 405 LINE"
);
}
);
width = 368;
}
);
note = eogonek;
unicode = 0119;
},
{
glyphname = Ecaron;
lastChange = "2016-06-17 01:02:07 +0000";
layers = (
{
layerId = "26058A5B-27B8-4A86-A50F-6474302A7C9F";
paths = (
{
closed = 1;
nodes = (
"150 600 LINE",
"340 600 LINE",
"340 700 LINE",
"40 700 LINE",
"40 0 LINE",
"340 0 LINE",
"340 100 LINE",
"150 100 LINE",
"150 305 LINE",
"301 305 LINE",
"301 405 LINE",
"150 405 LINE"
);
},
{
closed = 1;
nodes = (
"49 848 LINE",
"138 737 LINE",
"237 737 LINE",
"326 848 LINE",
"232 848 LINE",
"187 792 LINE",
"143 848 LINE"
);
}
);
width = 368;
}
);
note = Ecaron;
unicode = 011A;
},
{
glyphname = ecaron;
lastChange = "2016-06-17 01:02:07 +0000";
layers = (
{
layerId = "26058A5B-27B8-4A86-A50F-6474302A7C9F";
paths = (
{
closed = 1;
nodes = (
"150 600 LINE",
"340 600 LINE",
"340 700 LINE",
"40 700 LINE",
"40 0 LINE",
"340 0 LINE",
"340 100 LINE",
"150 100 LINE",
"150 305 LINE",
"301 305 LINE",
"301 405 LINE",
"150 405 LINE"
);
},
{
closed = 1;
nodes = (
"49 848 LINE",
"138 737 LINE",
"237 737 LINE",
"326 848 LINE",
"232 848 LINE",
"187 792 LINE",
"143 848 LINE"
);
}
);
width = 368;
}
);
note = ecaron;
unicode = 011B;
},
{
glyphname = Gcircumflex;
lastChange = "2016-06-17 01:02:07 +0000";
layers = (
{
layerId = "26058A5B-27B8-4A86-A50F-6474302A7C9F";
paths = (
{
closed = 1;
nodes = (
"205 290 LINE",
"255 290 LINE",
"255 161 LINE SMOOTH",
"255 111 OFFCURVE",
"233 93 OFFCURVE",
"198 93 CURVE SMOOTH",
"163 93 OFFCURVE",
"141 111 OFFCURVE",
"141 161 CURVE SMOOTH",
"141 539 LINE SMOOTH",
"141 589 OFFCURVE",
"163 608 OFFCURVE",
"198 608 CURVE SMOOTH",
"233 608 OFFCURVE",
"255 589 OFFCURVE",
"255 539 CURVE SMOOTH",
"255 464 LINE",
"359 464 LINE",
"359 532 LINE SMOOTH",
"359 644 OFFCURVE",
"303 708 OFFCURVE",
"195 708 CURVE SMOOTH",
"87 708 OFFCURVE",
"31 644 OFFCURVE",
"31 532 CURVE SMOOTH",
"31 168 LINE SMOOTH",
"31 56 OFFCURVE",
"87 -8 OFFCURVE",
"195 -8 CURVE SMOOTH",
"303 -8 OFFCURVE",
"359 56 OFFCURVE",
"359 168 CURVE SMOOTH",
"359 390 LINE",
"205 390 LINE"
);
},
{
closed = 1;
nodes = (
"150 737 LINE",
"194 792 LINE",
"239 737 LINE",
"333 737 LINE",
"244 848 LINE",
"145 848 LINE",
"56 737 LINE"
);
}
);
width = 390;
}
);
leftKerningGroup = G;
note = Gcircumflex;
rightKerningGroup = G;
unicode = 011C;
},
{
glyphname = gcircumflex;
lastChange = "2016-06-17 01:02:07 +0000";
layers = (
{
layerId = "26058A5B-27B8-4A86-A50F-6474302A7C9F";
paths = (
{
closed = 1;
nodes = (
"205 290 LINE",
"255 290 LINE",
"255 161 LINE SMOOTH",
"255 111 OFFCURVE",
"233 93 OFFCURVE",
"198 93 CURVE SMOOTH",
"163 93 OFFCURVE",
"141 111 OFFCURVE",
"141 161 CURVE SMOOTH",
"141 539 LINE SMOOTH",
"141 589 OFFCURVE",
"163 608 OFFCURVE",
"198 608 CURVE SMOOTH",
"233 608 OFFCURVE",
"255 589 OFFCURVE",
"255 539 CURVE SMOOTH",
"255 464 LINE",
"359 464 LINE",
"359 532 LINE SMOOTH",
"359 644 OFFCURVE",
"303 708 OFFCURVE",
"195 708 CURVE SMOOTH",
"87 708 OFFCURVE",
"31 644 OFFCURVE",
"31 532 CURVE SMOOTH",
"31 168 LINE SMOOTH",
"31 56 OFFCURVE",
"87 -8 OFFCURVE",
"195 -8 CURVE SMOOTH",
"303 -8 OFFCURVE",
"359 56 OFFCURVE",
"359 168 CURVE SMOOTH",
"359 390 LINE",
"205 390 LINE"
);
},
{
closed = 1;
nodes = (
"150 737 LINE",
"194 792 LINE",
"239 737 LINE",
"333 737 LINE",
"244 848 LINE",
"145 848 LINE",
"56 737 LINE"
);
}
);
width = 390;
}
);
leftKerningGroup = g;
note = gcircumflex;
rightKerningGroup = g;
unicode = 011D;
},
{
glyphname = Gbreve;
lastChange = "2016-06-17 01:02:07 +0000";
layers = (
{
layerId = "26058A5B-27B8-4A86-A50F-6474302A7C9F";
paths = (
{
closed = 1;
nodes = (
"205 290 LINE",
"255 290 LINE",
"255 161 LINE SMOOTH",
"255 111 OFFCURVE",
"233 93 OFFCURVE",
"198 93 CURVE SMOOTH",
"163 93 OFFCURVE",
"141 111 OFFCURVE",
"141 161 CURVE SMOOTH",
"141 539 LINE SMOOTH",
"141 589 OFFCURVE",
"163 608 OFFCURVE",
"198 608 CURVE SMOOTH",
"233 608 OFFCURVE",
"255 589 OFFCURVE",
"255 539 CURVE SMOOTH",
"255 464 LINE",
"359 464 LINE",
"359 532 LINE SMOOTH",
"359 644 OFFCURVE",
"303 708 OFFCURVE",
"195 708 CURVE SMOOTH",
"87 708 OFFCURVE",
"31 644 OFFCURVE",
"31 532 CURVE SMOOTH",
"31 168 LINE SMOOTH",
"31 56 OFFCURVE",
"87 -8 OFFCURVE",
"195 -8 CURVE SMOOTH",
"303 -8 OFFCURVE",
"359 56 OFFCURVE",
"359 168 CURVE SMOOTH",
"359 390 LINE",
"205 390 LINE"
);
},
{
closed = 1;
nodes = (
"238 810 OFFCURVE",
"222 801 OFFCURVE",
"193 801 CURVE SMOOTH",
"165 801 OFFCURVE",
"150 810 OFFCURVE",
"147 848 CURVE",
"82 848 LINE",
"83 778 OFFCURVE",
"118 733 OFFCURVE",
"193 733 CURVE SMOOTH",
"268 733 OFFCURVE",
"306 778 OFFCURVE",
"306 848 CURVE",
"241 848 LINE"
);
}
);
width = 390;
}
);
leftKerningGroup = G;
note = Gbreve;
rightKerningGroup = G;
unicode = 011E;
},
{
glyphname = gbreve;
lastChange = "2016-06-17 01:02:07 +0000";
layers = (
{
layerId = "26058A5B-27B8-4A86-A50F-6474302A7C9F";
paths = (
{
closed = 1;
nodes = (
"205 290 LINE",
"255 290 LINE",
"255 161 LINE SMOOTH",
"255 111 OFFCURVE",
"233 93 OFFCURVE",
"198 93 CURVE SMOOTH",
"163 93 OFFCURVE",
"141 111 OFFCURVE",
"141 161 CURVE SMOOTH",
"141 539 LINE SMOOTH",
"141 589 OFFCURVE",
"163 608 OFFCURVE",
"198 608 CURVE SMOOTH",
"233 608 OFFCURVE",
"255 589 OFFCURVE",
"255 539 CURVE SMOOTH",
"255 464 LINE",
"359 464 LINE",
"359 532 LINE SMOOTH",
"359 644 OFFCURVE",
"303 708 OFFCURVE",
"195 708 CURVE SMOOTH",
"87 708 OFFCURVE",
"31 644 OFFCURVE",
"31 532 CURVE SMOOTH",
"31 168 LINE SMOOTH",
"31 56 OFFCURVE",
"87 -8 OFFCURVE",
"195 -8 CURVE SMOOTH",
"303 -8 OFFCURVE",
"359 56 OFFCURVE",
"359 168 CURVE SMOOTH",
"359 390 LINE",
"205 390 LINE"
);
},
{
closed = 1;
nodes = (
"238 810 OFFCURVE",
"222 801 OFFCURVE",
"193 801 CURVE SMOOTH",
"165 801 OFFCURVE",
"150 810 OFFCURVE",
"147 848 CURVE",
"82 848 LINE",
"83 778 OFFCURVE",
"118 733 OFFCURVE",
"193 733 CURVE SMOOTH",
"268 733 OFFCURVE",
"306 778 OFFCURVE",
"306 848 CURVE",
"241 848 LINE"
);
}
);
width = 390;
}
);
leftKerningGroup = g;
note = gbreve;
rightKerningGroup = g;
unicode = 011F;
},
{
glyphname = Gdotaccent;
lastChange = "2016-06-17 01:02:07 +0000";
layers = (
{
layerId = "26058A5B-27B8-4A86-A50F-6474302A7C9F";
paths = (
{
closed = 1;
nodes = (
"205 290 LINE",
"255 290 LINE",
"255 161 LINE SMOOTH",
"255 111 OFFCURVE",
"233 93 OFFCURVE",
"198 93 CURVE SMOOTH",
"163 93 OFFCURVE",
"141 111 OFFCURVE",
"141 161 CURVE SMOOTH",
"141 539 LINE SMOOTH",
"141 589 OFFCURVE",
"163 608 OFFCURVE",
"198 608 CURVE SMOOTH",
"233 608 OFFCURVE",
"255 589 OFFCURVE",
"255 539 CURVE SMOOTH",
"255 464 LINE",
"359 464 LINE",
"359 532 LINE SMOOTH",
"359 644 OFFCURVE",
"303 708 OFFCURVE",
"195 708 CURVE SMOOTH",
"87 708 OFFCURVE",
"31 644 OFFCURVE",
"31 532 CURVE SMOOTH",
"31 168 LINE SMOOTH",
"31 56 OFFCURVE",
"87 -8 OFFCURVE",
"195 -8 CURVE SMOOTH",
"303 -8 OFFCURVE",
"359 56 OFFCURVE",
"359 168 CURVE SMOOTH",
"359 390 LINE",
"205 390 LINE"
);
},
{
closed = 1;
nodes = (
"146 833 LINE",
"146 737 LINE",
"242 737 LINE",
"242 833 LINE"
);
}
);
width = 390;
}
);
leftKerningGroup = G;
note = Gdotaccent;
rightKerningGroup = G;
unicode = 0120;
},
{
glyphname = gdotaccent;
lastChange = "2016-06-17 01:02:07 +0000";
layers = (
{
layerId = "26058A5B-27B8-4A86-A50F-6474302A7C9F";
paths = (
{
closed = 1;
nodes = (
"205 290 LINE",
"255 290 LINE",
"255 161 LINE SMOOTH",
"255 111 OFFCURVE",
"233 93 OFFCURVE",
"198 93 CURVE SMOOTH",
"163 93 OFFCURVE",
"141 111 OFFCURVE",
"141 161 CURVE SMOOTH",
"141 539 LINE SMOOTH",
"141 589 OFFCURVE",
"163 608 OFFCURVE",
"198 608 CURVE SMOOTH",
"233 608 OFFCURVE",
"255 589 OFFCURVE",
"255 539 CURVE SMOOTH",
"255 464 LINE",
"359 464 LINE",
"359 532 LINE SMOOTH",
"359 644 OFFCURVE",
"303 708 OFFCURVE",
"195 708 CURVE SMOOTH",
"87 708 OFFCURVE",
"31 644 OFFCURVE",
"31 532 CURVE SMOOTH",
"31 168 LINE SMOOTH",
"31 56 OFFCURVE",
"87 -8 OFFCURVE",
"195 -8 CURVE SMOOTH",
"303 -8 OFFCURVE",
"359 56 OFFCURVE",
"359 168 CURVE SMOOTH",
"359 390 LINE",
"205 390 LINE"
);
},
{
closed = 1;
nodes = (
"146 833 LINE",
"146 737 LINE",
"242 737 LINE",
"242 833 LINE"
);
}
);
width = 390;
}
);
leftKerningGroup = g;
note = gdotaccent;
rightKerningGroup = g;
unicode = 0121;
},
{
glyphname = uni0122;
lastChange = "2016-06-17 01:02:07 +0000";
layers = (
{
layerId = "26058A5B-27B8-4A86-A50F-6474302A7C9F";
paths = (
{
closed = 1;
nodes = (
"205 290 LINE",
"255 290 LINE",
"255 161 LINE SMOOTH",
"255 111 OFFCURVE",
"233 93 OFFCURVE",
"198 93 CURVE SMOOTH",
"163 93 OFFCURVE",
"141 111 OFFCURVE",
"141 161 CURVE SMOOTH",
"141 539 LINE SMOOTH",
"141 589 OFFCURVE",
"163 608 OFFCURVE",
"198 608 CURVE SMOOTH",
"233 608 OFFCURVE",
"255 589 OFFCURVE",
"255 539 CURVE SMOOTH",
"255 464 LINE",
"359 464 LINE",
"359 532 LINE SMOOTH",
"359 644 OFFCURVE",
"303 708 OFFCURVE",
"195 708 CURVE SMOOTH",
"87 708 OFFCURVE",
"31 644 OFFCURVE",
"31 532 CURVE SMOOTH",
"31 168 LINE SMOOTH",
"31 56 OFFCURVE",
"87 -8 OFFCURVE",
"195 -8 CURVE SMOOTH",
"303 -8 OFFCURVE",
"359 56 OFFCURVE",
"359 168 CURVE SMOOTH",
"359 390 LINE",
"205 390 LINE"
);
},
{
closed = 1;
nodes = (
"185 -125 LINE",
"159 -179 LINE",
"198 -179 LINE",
"241 -115 LINE",
"241 -33 LINE",
"149 -33 LINE",
"149 -125 LINE"
);
}
);
width = 390;
}
);
leftKerningGroup = G;
note = uni0122;
rightKerningGroup = G;
unicode = 0122;
},
{
glyphname = uni0123;
lastChange = "2016-06-17 01:02:07 +0000";
layers = (
{
layerId = "26058A5B-27B8-4A86-A50F-6474302A7C9F";
paths = (
{
closed = 1;
nodes = (
"205 290 LINE",
"255 290 LINE",
"255 161 LINE SMOOTH",
"255 111 OFFCURVE",
"233 93 OFFCURVE",
"198 93 CURVE SMOOTH",
"163 93 OFFCURVE",
"141 111 OFFCURVE",
"141 161 CURVE SMOOTH",
"141 539 LINE SMOOTH",
"141 589 OFFCURVE",
"163 608 OFFCURVE",
"198 608 CURVE SMOOTH",
"233 608 OFFCURVE",
"255 589 OFFCURVE",
"255 539 CURVE SMOOTH",
"255 464 LINE",
"359 464 LINE",
"359 532 LINE SMOOTH",
"359 644 OFFCURVE",
"303 708 OFFCURVE",
"195 708 CURVE SMOOTH",
"87 708 OFFCURVE",
"31 644 OFFCURVE",
"31 532 CURVE SMOOTH",
"31 168 LINE SMOOTH",
"31 56 OFFCURVE",
"87 -8 OFFCURVE",
"195 -8 CURVE SMOOTH",
"303 -8 OFFCURVE",
"359 56 OFFCURVE",
"359 168 CURVE SMOOTH",
"359 390 LINE",
"205 390 LINE"
);
},
{
closed = 1;
nodes = (
"185 -125 LINE",
"159 -179 LINE",
"198 -179 LINE",
"241 -115 LINE",
"241 -33 LINE",
"149 -33 LINE",
"149 -125 LINE"
);
}
);
width = 390;
}
);
leftKerningGroup = g;
note = uni0123;
rightKerningGroup = g;
unicode = 0123;
},
{
glyphname = Hcircumflex;
lastChange = "2016-06-17 01:02:07 +0000";
layers = (
{
layerId = "26058A5B-27B8-4A86-A50F-6474302A7C9F";
paths = (
{
closed = 1;
nodes = (
"150 300 LINE",
"275 300 LINE",
"275 0 LINE",
"387 0 LINE",
"387 700 LINE",
"275 700 LINE",
"275 400 LINE",
"150 400 LINE",
"150 700 LINE",
"40 700 LINE",
"40 0 LINE",
"150 0 LINE"
);
},
{
closed = 1;
nodes = (
"169 737 LINE",
"213 792 LINE",
"258 737 LINE",
"352 737 LINE",
"263 848 LINE",
"164 848 LINE",
"75 737 LINE"
);
}
);
width = 427;
}
);
note = Hcircumflex;
unicode = 0124;
},
{
glyphname = hcircumflex;
lastChange = "2016-06-17 01:02:07 +0000";
layers = (
{
layerId = "26058A5B-27B8-4A86-A50F-6474302A7C9F";
paths = (
{
closed = 1;
nodes = (
"150 300 LINE",
"275 300 LINE",
"275 0 LINE",
"387 0 LINE",
"387 700 LINE",
"275 700 LINE",
"275 400 LINE",
"150 400 LINE",
"150 700 LINE",
"40 700 LINE",
"40 0 LINE",
"150 0 LINE"
);
},
{
closed = 1;
nodes = (
"169 737 LINE",
"213 792 LINE",
"258 737 LINE",
"352 737 LINE",
"263 848 LINE",
"164 848 LINE",
"75 737 LINE"
);
}
);
width = 427;
}
);
note = hcircumflex;
unicode = 0125;
},
{
glyphname = Hbar;
lastChange = "2016-06-17 01:02:07 +0000";
layers = (
{
layerId = "26058A5B-27B8-4A86-A50F-6474302A7C9F";
paths = (
{
closed = 1;
nodes = (
"155 300 LINE",
"280 300 LINE",
"280 0 LINE",
"392 0 LINE",
"392 502 LINE",
"427 502 LINE",
"427 584 LINE",
"392 584 LINE",
"392 700 LINE",
"280 700 LINE",
"280 584 LINE",
"155 584 LINE",
"155 700 LINE",
"45 700 LINE",
"45 584 LINE",
"10 584 LINE",
"10 502 LINE",
"45 502 LINE",
"45 0 LINE",
"155 0 LINE"
);
},
{
closed = 1;
nodes = (
"155 400 LINE",
"155 502 LINE",
"280 502 LINE",
"280 400 LINE"
);
}
);
width = 437;
}
);
note = Hbar;
unicode = 0126;
},
{
glyphname = hbar;
lastChange = "2016-06-17 01:02:07 +0000";
layers = (
{
layerId = "26058A5B-27B8-4A86-A50F-6474302A7C9F";
paths = (
{
closed = 1;
nodes = (
"155 300 LINE",
"280 300 LINE",
"280 0 LINE",
"392 0 LINE",
"392 502 LINE",
"427 502 LINE",
"427 584 LINE",
"392 584 LINE",
"392 700 LINE",
"280 700 LINE",
"280 584 LINE",
"155 584 LINE",
"155 700 LINE",
"45 700 LINE",
"45 584 LINE",
"10 584 LINE",
"10 502 LINE",
"45 502 LINE",
"45 0 LINE",
"155 0 LINE"
);
},
{
closed = 1;
nodes = (
"155 400 LINE",
"155 502 LINE",
"280 502 LINE",
"280 400 LINE"
);
}
);
width = 437;
}
);
note = hbar;
unicode = 0127;
},
{
glyphname = Itilde;
lastChange = "2016-06-17 01:02:07 +0000";
layers = (
{
layerId = "26058A5B-27B8-4A86-A50F-6474302A7C9F";
paths = (
{
closed = 1;
nodes = (
"40 0 LINE",
"150 0 LINE",
"150 700 LINE",
"40 700 LINE"
);
},
{
closed = 1;
nodes = (
"124 813 OFFCURVE",
"114 816 OFFCURVE",
"98 824 CURVE SMOOTH",
"78 834 OFFCURVE",
"63 838 OFFCURVE",
"45 838 CURVE SMOOTH",
"5 838 OFFCURVE",
"-23 815 OFFCURVE",
"-40 770 CURVE",
"13 733 LINE",
"23 754 OFFCURVE",
"34 762 OFFCURVE",
"56 762 CURVE SMOOTH",
"67 762 OFFCURVE",
"77 759 OFFCURVE",
"93 751 CURVE SMOOTH",
"116 740 OFFCURVE",
"130 737 OFFCURVE",
"146 737 CURVE SMOOTH",
"186 737 OFFCURVE",
"214 760 OFFCURVE",
"231 805 CURVE",
"178 842 LINE",
"168 821 OFFCURVE",
"157 813 OFFCURVE",
"135 813 CURVE SMOOTH"
);
}
);
width = 190;
}
);
note = Itilde;
unicode = 0128;
},
{
glyphname = itilde;
lastChange = "2016-06-17 01:02:07 +0000";
layers = (
{
layerId = "26058A5B-27B8-4A86-A50F-6474302A7C9F";
paths = (
{
closed = 1;
nodes = (
"40 0 LINE",
"150 0 LINE",
"150 700 LINE",
"40 700 LINE"
);
},
{
closed = 1;
nodes = (
"124 813 OFFCURVE",
"114 816 OFFCURVE",
"98 824 CURVE SMOOTH",
"78 834 OFFCURVE",
"63 838 OFFCURVE",
"45 838 CURVE SMOOTH",
"5 838 OFFCURVE",
"-23 815 OFFCURVE",
"-40 770 CURVE",
"13 733 LINE",
"23 754 OFFCURVE",
"34 762 OFFCURVE",
"56 762 CURVE SMOOTH",
"67 762 OFFCURVE",
"77 759 OFFCURVE",
"93 751 CURVE SMOOTH",
"116 740 OFFCURVE",
"130 737 OFFCURVE",
"146 737 CURVE SMOOTH",
"186 737 OFFCURVE",
"214 760 OFFCURVE",
"231 805 CURVE",
"178 842 LINE",
"168 821 OFFCURVE",
"157 813 OFFCURVE",
"135 813 CURVE SMOOTH"
);
}
);
width = 190;
}
);
note = itilde;
unicode = 0129;
},
{
glyphname = Imacron;
lastChange = "2016-06-17 01:02:07 +0000";
layers = (
{
layerId = "26058A5B-27B8-4A86-A50F-6474302A7C9F";
paths = (
{
closed = 1;
nodes = (
"40 0 LINE",
"150 0 LINE",
"150 700 LINE",
"40 700 LINE"
);
},
{
closed = 1;
nodes = (
"-20 819 LINE",
"-20 741 LINE",
"210 741 LINE",
"210 819 LINE"
);
}
);
width = 190;
}
);
note = Imacron;
unicode = 012A;
},
{
glyphname = imacron;
lastChange = "2016-06-17 01:02:07 +0000";
layers = (
{
layerId = "26058A5B-27B8-4A86-A50F-6474302A7C9F";
paths = (
{
closed = 1;
nodes = (
"40 0 LINE",
"150 0 LINE",
"150 700 LINE",
"40 700 LINE"
);
},
{
closed = 1;
nodes = (
"-20 819 LINE",
"-20 741 LINE",
"210 741 LINE",
"210 819 LINE"
);
}
);
width = 190;
}
);
note = imacron;
unicode = 012B;
},
{
glyphname = Ibreve;
lastChange = "2016-06-17 01:02:07 +0000";
layers = (
{
layerId = "26058A5B-27B8-4A86-A50F-6474302A7C9F";
paths = (
{
closed = 1;
nodes = (
"40 0 LINE",
"150 0 LINE",
"150 700 LINE",
"40 700 LINE"
);
},
{
closed = 1;
nodes = (
"139 810 OFFCURVE",
"123 801 OFFCURVE",
"94 801 CURVE SMOOTH",
"66 801 OFFCURVE",
"51 810 OFFCURVE",
"48 848 CURVE",
"-17 848 LINE",
"-16 778 OFFCURVE",
"19 733 OFFCURVE",
"94 733 CURVE SMOOTH",
"169 733 OFFCURVE",
"207 778 OFFCURVE",
"207 848 CURVE",
"142 848 LINE"
);
}
);
width = 190;
}
);
note = Ibreve;
unicode = 012C;
},
{
glyphname = ibreve;
lastChange = "2016-06-17 01:02:07 +0000";
layers = (
{
layerId = "26058A5B-27B8-4A86-A50F-6474302A7C9F";
paths = (
{
closed = 1;
nodes = (
"40 0 LINE",
"150 0 LINE",
"150 700 LINE",
"40 700 LINE"
);
},
{
closed = 1;
nodes = (
"139 810 OFFCURVE",
"123 801 OFFCURVE",
"94 801 CURVE SMOOTH",
"66 801 OFFCURVE",
"51 810 OFFCURVE",
"48 848 CURVE",
"-17 848 LINE",
"-16 778 OFFCURVE",
"19 733 OFFCURVE",
"94 733 CURVE SMOOTH",
"169 733 OFFCURVE",
"207 778 OFFCURVE",
"207 848 CURVE",
"142 848 LINE"
);
}
);
width = 190;
}
);
note = ibreve;
unicode = 012D;
},
{
glyphname = Iogonek;
lastChange = "2016-06-17 01:02:07 +0000";
layers = (
{
layerId = "26058A5B-27B8-4A86-A50F-6474302A7C9F";
paths = (
{
closed = 1;
nodes = (
"40 0 LINE",
"81 0 LINE",
"81 -2 LINE",
"36 -25 OFFCURVE",
"16 -53 OFFCURVE",
"16 -85 CURVE SMOOTH",
"16 -126 OFFCURVE",
"50 -147 OFFCURVE",
"103 -147 CURVE SMOOTH",
"131 -147 OFFCURVE",
"148 -145 OFFCURVE",
"171 -136 CURVE",
"171 -80 LINE",
"160 -83 OFFCURVE",
"155 -86 OFFCURVE",
"135 -86 CURVE SMOOTH",
"117 -86 OFFCURVE",
"100 -77 OFFCURVE",
"100 -58 CURVE SMOOTH",
"100 -44 OFFCURVE",
"105 -21 OFFCURVE",
"130 0 CURVE",
"150 0 LINE",
"150 700 LINE",
"40 700 LINE"
);
}
);
width = 190;
}
);
note = Iogonek;
unicode = 012E;
},
{
glyphname = iogonek;
lastChange = "2016-06-17 01:02:07 +0000";
layers = (
{
layerId = "26058A5B-27B8-4A86-A50F-6474302A7C9F";
paths = (
{
closed = 1;
nodes = (
"40 0 LINE",
"81 0 LINE",
"81 -2 LINE",
"36 -25 OFFCURVE",
"16 -53 OFFCURVE",
"16 -85 CURVE SMOOTH",
"16 -126 OFFCURVE",
"50 -147 OFFCURVE",
"103 -147 CURVE SMOOTH",
"131 -147 OFFCURVE",
"148 -145 OFFCURVE",
"171 -136 CURVE",
"171 -80 LINE",
"160 -83 OFFCURVE",
"155 -86 OFFCURVE",
"135 -86 CURVE SMOOTH",
"117 -86 OFFCURVE",
"100 -77 OFFCURVE",
"100 -58 CURVE SMOOTH",
"100 -44 OFFCURVE",
"105 -21 OFFCURVE",
"130 0 CURVE",
"150 0 LINE",
"150 700 LINE",
"40 700 LINE"
);
}
);
width = 190;
}
);
note = iogonek;
unicode = 012F;
},
{
glyphname = Idotaccent;
lastChange = "2016-06-17 01:02:07 +0000";
layers = (
{
layerId = "26058A5B-27B8-4A86-A50F-6474302A7C9F";
paths = (
{
closed = 1;
nodes = (
"40 0 LINE",
"150 0 LINE",
"150 700 LINE",
"40 700 LINE"
);
},
{
closed = 1;
nodes = (
"47 833 LINE",
"47 737 LINE",
"143 737 LINE",
"143 833 LINE"
);
}
);
width = 190;
}
);
note = Idotaccent;
unicode = 0130;
},
{
glyphname = dotlessi;
lastChange = "2016-06-17 01:02:07 +0000";
layers = (
{
layerId = "26058A5B-27B8-4A86-A50F-6474302A7C9F";
paths = (
{
closed = 1;
nodes = (
"40 0 LINE",
"150 0 LINE",
"150 700 LINE",
"40 700 LINE"
);
}
);
width = 190;
}
);
note = dotlessi;
unicode = 0131;
},
{
glyphname = IJ;
lastChange = "2016-06-17 01:02:07 +0000";
layers = (
{
layerId = "26058A5B-27B8-4A86-A50F-6474302A7C9F";
paths = (
{
closed = 1;
nodes = (
"40 0 LINE",
"150 0 LINE",
"150 700 LINE",
"40 700 LINE"
);
},
{
closed = 1;
nodes = (
"200 0 LINE",
"218 -2 OFFCURVE",
"233 -2 OFFCURVE",
"253 -2 CURVE SMOOTH",
"336 -2 OFFCURVE",
"411 34 OFFCURVE",
"411 174 CURVE SMOOTH",
"411 700 LINE",
"301 700 LINE",
"301 166 LINE SMOOTH",
"301 112 OFFCURVE",
"273 99 OFFCURVE",
"238 99 CURVE SMOOTH",
"226 99 OFFCURVE",
"212 99 OFFCURVE",
"200 100 CURVE"
);
}
);
width = 446;
}
);
leftKerningGroup = J;
note = IJ;
unicode = 0132;
},
{
glyphname = ij;
lastChange = "2016-06-17 01:02:07 +0000";
layers = (
{
layerId = "26058A5B-27B8-4A86-A50F-6474302A7C9F";
paths = (
{
closed = 1;
nodes = (
"40 0 LINE",
"150 0 LINE",
"150 700 LINE",
"40 700 LINE"
);
},
{
closed = 1;
nodes = (
"200 0 LINE",
"218 -2 OFFCURVE",
"233 -2 OFFCURVE",
"253 -2 CURVE SMOOTH",
"336 -2 OFFCURVE",
"411 34 OFFCURVE",
"411 174 CURVE SMOOTH",
"411 700 LINE",
"301 700 LINE",
"301 166 LINE SMOOTH",
"301 112 OFFCURVE",
"273 99 OFFCURVE",
"238 99 CURVE SMOOTH",
"226 99 OFFCURVE",
"212 99 OFFCURVE",
"200 100 CURVE"
);
}
);
width = 446;
}
);
leftKerningGroup = j;
note = ij;
unicode = 0133;
},
{
glyphname = Jcircumflex;
lastChange = "2016-06-17 01:02:07 +0000";
layers = (
{
layerId = "26058A5B-27B8-4A86-A50F-6474302A7C9F";
paths = (
{
closed = 1;
nodes = (
"10 0 LINE",
"28 -2 OFFCURVE",
"43 -2 OFFCURVE",
"63 -2 CURVE SMOOTH",
"146 -2 OFFCURVE",
"221 34 OFFCURVE",
"221 174 CURVE SMOOTH",
"221 700 LINE",
"111 700 LINE",
"111 166 LINE SMOOTH",
"111 112 OFFCURVE",
"83 99 OFFCURVE",
"48 99 CURVE SMOOTH",
"36 99 OFFCURVE",
"22 99 OFFCURVE",
"10 100 CURVE"
);
},
{
closed = 1;
nodes = (
"103 737 LINE",
"147 792 LINE",
"192 737 LINE",
"286 737 LINE",
"197 848 LINE",
"98 848 LINE",
"9 737 LINE"
);
}
);
width = 256;
}
);
leftKerningGroup = J;
note = Jcircumflex;
rightKerningGroup = J;
unicode = 0134;
},
{
glyphname = jcircumflex;
lastChange = "2016-06-17 01:02:07 +0000";
layers = (
{
layerId = "26058A5B-27B8-4A86-A50F-6474302A7C9F";
paths = (
{
closed = 1;
nodes = (
"10 0 LINE",
"28 -2 OFFCURVE",
"43 -2 OFFCURVE",
"63 -2 CURVE SMOOTH",
"146 -2 OFFCURVE",
"221 34 OFFCURVE",
"221 174 CURVE SMOOTH",
"221 700 LINE",
"111 700 LINE",
"111 166 LINE SMOOTH",
"111 112 OFFCURVE",
"83 99 OFFCURVE",
"48 99 CURVE SMOOTH",
"36 99 OFFCURVE",
"22 99 OFFCURVE",
"10 100 CURVE"
);
},
{
closed = 1;
nodes = (
"103 737 LINE",
"147 792 LINE",
"192 737 LINE",
"286 737 LINE",
"197 848 LINE",
"98 848 LINE",
"9 737 LINE"
);
}
);
width = 256;
}
);
leftKerningGroup = j;
note = jcircumflex;
rightKerningGroup = j;
unicode = 0135;
},
{
glyphname = uni0136;
lastChange = "2016-06-17 01:02:07 +0000";
layers = (
{
layerId = "26058A5B-27B8-4A86-A50F-6474302A7C9F";
paths = (
{
closed = 1;
nodes = (
"291 0 LINE",
"404 0 LINE",
"251 388 LINE",
"404 700 LINE",
"294 700 LINE",
"152 397 LINE",
"150 397 LINE",
"150 700 LINE",
"40 700 LINE",
"40 0 LINE",
"150 0 LINE",
"150 215 LINE",
"184 279 LINE"
);
},
{
closed = 1;
nodes = (
"205 -125 LINE",
"179 -179 LINE",
"218 -179 LINE",
"261 -115 LINE",
"261 -33 LINE",
"169 -33 LINE",
"169 -125 LINE"
);
}
);
width = 414;
}
);
note = uni0136;
rightKerningGroup = K;
unicode = 0136;
},
{
glyphname = uni0137;
lastChange = "2016-06-17 01:02:07 +0000";
layers = (
{
layerId = "26058A5B-27B8-4A86-A50F-6474302A7C9F";
paths = (
{
closed = 1;
nodes = (
"291 0 LINE",
"404 0 LINE",
"251 388 LINE",
"404 700 LINE",
"294 700 LINE",
"152 397 LINE",
"150 397 LINE",
"150 700 LINE",
"40 700 LINE",
"40 0 LINE",
"150 0 LINE",
"150 215 LINE",
"184 279 LINE"
);
},
{
closed = 1;
nodes = (
"205 -125 LINE",
"179 -179 LINE",
"218 -179 LINE",
"261 -115 LINE",
"261 -33 LINE",
"169 -33 LINE",
"169 -125 LINE"
);
}
);
width = 414;
}
);
note = uni0137;
rightKerningGroup = k;
unicode = 0137;
},
{
glyphname = kgreenlandic;
lastChange = "2016-06-17 01:02:07 +0000";
layers = (
{
layerId = "26058A5B-27B8-4A86-A50F-6474302A7C9F";
paths = (
{
closed = 1;
nodes = (
"291 0 LINE",
"404 0 LINE",
"251 388 LINE",
"404 700 LINE",
"294 700 LINE",
"152 397 LINE",
"150 397 LINE",
"150 700 LINE",
"40 700 LINE",
"40 0 LINE",
"150 0 LINE",
"150 215 LINE",
"184 279 LINE"
);
}
);
width = 414;
}
);
note = kgreenlandic;
rightKerningGroup = k;
unicode = 0138;
},
{
glyphname = Lacute;
lastChange = "2016-06-17 01:02:07 +0000";
layers = (
{
layerId = "26058A5B-27B8-4A86-A50F-6474302A7C9F";
paths = (
{
closed = 1;
nodes = (
"40 0 LINE",
"331 0 LINE",
"331 100 LINE",
"150 100 LINE",
"150 700 LINE",
"40 700 LINE"
);
},
{
closed = 1;
nodes = (
"140 848 LINE",
"72 737 LINE",
"146 737 LINE",
"248 848 LINE"
);
}
);
width = 339;
}
);
note = Lacute;
rightKerningGroup = L;
unicode = 0139;
},
{
glyphname = lacute;
lastChange = "2016-06-17 01:02:07 +0000";
layers = (
{
layerId = "26058A5B-27B8-4A86-A50F-6474302A7C9F";
paths = (
{
closed = 1;
nodes = (
"40 0 LINE",
"331 0 LINE",
"331 100 LINE",
"150 100 LINE",
"150 700 LINE",
"40 700 LINE"
);
},
{
closed = 1;
nodes = (
"140 848 LINE",
"72 737 LINE",
"146 737 LINE",
"248 848 LINE"
);
}
);
width = 339;
}
);
note = lacute;
rightKerningGroup = l;
unicode = 013A;
},
{
glyphname = uni013B;
lastChange = "2016-06-17 01:02:07 +0000";
layers = (
{
layerId = "26058A5B-27B8-4A86-A50F-6474302A7C9F";
paths = (
{
closed = 1;
nodes = (
"40 0 LINE",
"331 0 LINE",
"331 100 LINE",
"150 100 LINE",
"150 700 LINE",
"40 700 LINE"
);
},
{
closed = 1;
nodes = (
"176 -125 LINE",
"150 -179 LINE",
"189 -179 LINE",
"232 -115 LINE",
"232 -33 LINE",
"140 -33 LINE",
"140 -125 LINE"
);
}
);
width = 339;
}
);
note = uni013B;
rightKerningGroup = L;
unicode = 013B;
},
{
glyphname = uni013C;
lastChange = "2016-06-17 01:02:07 +0000";
layers = (
{
layerId = "26058A5B-27B8-4A86-A50F-6474302A7C9F";
paths = (
{
closed = 1;
nodes = (
"40 0 LINE",
"331 0 LINE",
"331 100 LINE",
"150 100 LINE",
"150 700 LINE",
"40 700 LINE"
);
},
{
closed = 1;
nodes = (
"176 -125 LINE",
"150 -179 LINE",
"189 -179 LINE",
"232 -115 LINE",
"232 -33 LINE",
"140 -33 LINE",
"140 -125 LINE"
);
}
);
width = 339;
}
);
note = uni013C;
rightKerningGroup = l;
unicode = 013C;
},
{
glyphname = Lcaron;
lastChange = "2016-06-17 01:02:07 +0000";
layers = (
{
layerId = "26058A5B-27B8-4A86-A50F-6474302A7C9F";
paths = (
{
closed = 1;
nodes = (
"40 0 LINE",
"331 0 LINE",
"331 100 LINE",
"150 100 LINE",
"150 700 LINE",
"40 700 LINE"
);
},
{
closed = 1;
nodes = (
"253 594 LINE",
"224 494 LINE",
"269 494 LINE",
"317 605 LINE",
"317 700 LINE",
"211 700 LINE",
"211 594 LINE"
);
}
);
width = 339;
}
);
note = Lcaron;
unicode = 013D;
},
{
glyphname = lcaron;
lastChange = "2016-06-17 01:02:07 +0000";
layers = (
{
layerId = "26058A5B-27B8-4A86-A50F-6474302A7C9F";
paths = (
{
closed = 1;
nodes = (
"40 0 LINE",
"331 0 LINE",
"331 100 LINE",
"150 100 LINE",
"150 700 LINE",
"40 700 LINE"
);
},
{
closed = 1;
nodes = (
"253 594 LINE",
"224 494 LINE",
"269 494 LINE",
"317 605 LINE",
"317 700 LINE",
"211 700 LINE",
"211 594 LINE"
);
}
);
width = 339;
}
);
note = lcaron;
unicode = 013E;
},
{
glyphname = Ldot;
lastChange = "2016-06-17 01:02:07 +0000";
layers = (
{
layerId = "26058A5B-27B8-4A86-A50F-6474302A7C9F";
paths = (
{
closed = 1;
nodes = (
"40 0 LINE",
"331 0 LINE",
"331 100 LINE",
"150 100 LINE",
"150 700 LINE",
"40 700 LINE"
);
},
{
closed = 1;
nodes = (
"210 403 LINE",
"210 297 LINE",
"316 297 LINE",
"316 403 LINE"
);
}
);
width = 339;
}
);
note = Ldot;
rightKerningGroup = L;
unicode = 013F;
},
{
glyphname = ldot;
lastChange = "2016-06-17 01:02:07 +0000";
layers = (
{
layerId = "26058A5B-27B8-4A86-A50F-6474302A7C9F";
paths = (
{
closed = 1;
nodes = (
"40 0 LINE",
"331 0 LINE",
"331 100 LINE",
"150 100 LINE",
"150 700 LINE",
"40 700 LINE"
);
},
{
closed = 1;
nodes = (
"210 403 LINE",
"210 297 LINE",
"316 297 LINE",
"316 403 LINE"
);
}
);
width = 339;
}
);
note = ldot;
rightKerningGroup = l;
unicode = 0140;
},
{
glyphname = Lslash;
lastChange = "2016-06-17 01:02:07 +0000";
layers = (
{
layerId = "26058A5B-27B8-4A86-A50F-6474302A7C9F";
paths = (
{
closed = 1;
nodes = (
"0 95 LINE",
"49 147 LINE",
"49 0 LINE",
"340 0 LINE",
"340 100 LINE",
"159 100 LINE",
"159 265 LINE",
"280 395 LINE",
"280 495 LINE",
"159 365 LINE",
"159 700 LINE",
"49 700 LINE",
"49 247 LINE",
"0 195 LINE"
);
}
);
width = 348;
}
);
note = Lslash;
rightKerningGroup = L;
unicode = 0141;
},
{
glyphname = lslash;
lastChange = "2016-06-17 01:02:07 +0000";
layers = (
{
layerId = "26058A5B-27B8-4A86-A50F-6474302A7C9F";
paths = (
{
closed = 1;
nodes = (
"0 95 LINE",
"49 147 LINE",
"49 0 LINE",
"340 0 LINE",
"340 100 LINE",
"159 100 LINE",
"159 265 LINE",
"280 395 LINE",
"280 495 LINE",
"159 365 LINE",
"159 700 LINE",
"49 700 LINE",
"49 247 LINE",
"0 195 LINE"
);
}
);
width = 348;
}
);
note = lslash;
rightKerningGroup = l;
unicode = 0142;
},
{
glyphname = Nacute;
lastChange = "2016-06-17 01:02:07 +0000";
layers = (
{
layerId = "26058A5B-27B8-4A86-A50F-6474302A7C9F";
paths = (
{
closed = 1;
nodes = (
"275 0 LINE",
"388 0 LINE",
"388 700 LINE",
"290 700 LINE",
"290 281 LINE",
"288 281 LINE",
"177 700 LINE",
"39 700 LINE",
"39 0 LINE",
"138 0 LINE",
"138 507 LINE",
"140 507 LINE"
);
},
{
closed = 1;
nodes = (
"223 848 LINE",
"155 737 LINE",
"229 737 LINE",
"331 848 LINE"
);
}
);
width = 427;
}
);
note = Nacute;
unicode = 0143;
},
{
glyphname = nacute;
lastChange = "2016-06-17 01:02:07 +0000";
layers = (
{
layerId = "26058A5B-27B8-4A86-A50F-6474302A7C9F";
paths = (
{
closed = 1;
nodes = (
"275 0 LINE",
"388 0 LINE",
"388 700 LINE",
"290 700 LINE",
"290 281 LINE",
"288 281 LINE",
"177 700 LINE",
"39 700 LINE",
"39 0 LINE",
"138 0 LINE",
"138 507 LINE",
"140 507 LINE"
);
},
{
closed = 1;
nodes = (
"223 848 LINE",
"155 737 LINE",
"229 737 LINE",
"331 848 LINE"
);
}
);
width = 427;
}
);
note = nacute;
unicode = 0144;
},
{
glyphname = uni0145;
lastChange = "2016-06-17 01:02:07 +0000";
layers = (
{
layerId = "26058A5B-27B8-4A86-A50F-6474302A7C9F";
paths = (
{
closed = 1;
nodes = (
"275 0 LINE",
"388 0 LINE",
"388 700 LINE",
"290 700 LINE",
"290 281 LINE",
"288 281 LINE",
"177 700 LINE",
"39 700 LINE",
"39 0 LINE",
"138 0 LINE",
"138 507 LINE",
"140 507 LINE"
);
},
{
closed = 1;
nodes = (
"203 -125 LINE",
"177 -179 LINE",
"216 -179 LINE",
"259 -115 LINE",
"259 -33 LINE",
"167 -33 LINE",
"167 -125 LINE"
);
}
);
width = 427;
}
);
note = uni0145;
unicode = 0145;
},
{
glyphname = uni0146;
lastChange = "2016-06-17 01:02:07 +0000";
layers = (
{
layerId = "26058A5B-27B8-4A86-A50F-6474302A7C9F";
paths = (
{
closed = 1;
nodes = (
"275 0 LINE",
"388 0 LINE",
"388 700 LINE",
"290 700 LINE",
"290 281 LINE",
"288 281 LINE",
"177 700 LINE",
"39 700 LINE",
"39 0 LINE",
"138 0 LINE",
"138 507 LINE",
"140 507 LINE"
);
},
{
closed = 1;
nodes = (
"203 -125 LINE",
"177 -179 LINE",
"216 -179 LINE",
"259 -115 LINE",
"259 -33 LINE",
"167 -33 LINE",
"167 -125 LINE"
);
}
);
width = 427;
}
);
note = uni0146;
unicode = 0146;
},
{
glyphname = Ncaron;
lastChange = "2016-06-17 01:02:07 +0000";
layers = (
{
layerId = "26058A5B-27B8-4A86-A50F-6474302A7C9F";
paths = (
{
closed = 1;
nodes = (
"275 0 LINE",
"388 0 LINE",
"388 700 LINE",
"290 700 LINE",
"290 281 LINE",
"288 281 LINE",
"177 700 LINE",
"39 700 LINE",
"39 0 LINE",
"138 0 LINE",
"138 507 LINE",
"140 507 LINE"
);
},
{
closed = 1;
nodes = (
"75 848 LINE",
"164 737 LINE",
"263 737 LINE",
"352 848 LINE",
"258 848 LINE",
"213 792 LINE",
"169 848 LINE"
);
}
);
width = 427;
}
);
note = Ncaron;
unicode = 0147;
},
{
glyphname = ncaron;
lastChange = "2016-06-17 01:02:07 +0000";
layers = (
{
layerId = "26058A5B-27B8-4A86-A50F-6474302A7C9F";
paths = (
{
closed = 1;
nodes = (
"275 0 LINE",
"388 0 LINE",
"388 700 LINE",
"290 700 LINE",
"290 281 LINE",
"288 281 LINE",
"177 700 LINE",
"39 700 LINE",
"39 0 LINE",
"138 0 LINE",
"138 507 LINE",
"140 507 LINE"
);
},
{
closed = 1;
nodes = (
"75 848 LINE",
"164 737 LINE",
"263 737 LINE",
"352 848 LINE",
"258 848 LINE",
"213 792 LINE",
"169 848 LINE"
);
}
);
width = 427;
}
);
note = ncaron;
unicode = 0148;
},
{
glyphname = napostrophe;
lastChange = "2016-06-17 01:02:07 +0000";
layers = (
{
layerId = "26058A5B-27B8-4A86-A50F-6474302A7C9F";
paths = (
{
closed = 1;
nodes = (
"391 0 LINE",
"504 0 LINE",
"504 700 LINE",
"406 700 LINE",
"406 281 LINE",
"404 281 LINE",
"293 700 LINE",
"155 700 LINE",
"155 0 LINE",
"254 0 LINE",
"254 507 LINE",
"256 507 LINE"
);
},
{
closed = 1;
nodes = (
"47 594 LINE",
"18 494 LINE",
"63 494 LINE",
"111 605 LINE",
"111 700 LINE",
"5 700 LINE",
"5 594 LINE"
);
}
);
width = 543;
}
);
note = napostrophe;
unicode = 0149;
},
{
glyphname = Omacron;
lastChange = "2016-06-17 01:02:07 +0000";
layers = (
{
layerId = "26058A5B-27B8-4A86-A50F-6474302A7C9F";
paths = (
{
closed = 1;
nodes = (
"141 539 LINE SMOOTH",
"141 589 OFFCURVE",
"163 608 OFFCURVE",
"198 608 CURVE SMOOTH",
"233 608 OFFCURVE",
"255 589 OFFCURVE",
"255 539 CURVE SMOOTH",
"255 161 LINE SMOOTH",
"255 111 OFFCURVE",
"233 92 OFFCURVE",
"198 92 CURVE SMOOTH",
"163 92 OFFCURVE",
"141 111 OFFCURVE",
"141 161 CURVE SMOOTH"
);
},
{
closed = 1;
nodes = (
"31 168 LINE SMOOTH",
"31 56 OFFCURVE",
"90 -8 OFFCURVE",
"198 -8 CURVE SMOOTH",
"306 -8 OFFCURVE",
"365 56 OFFCURVE",
"365 168 CURVE SMOOTH",
"365 532 LINE SMOOTH",
"365 644 OFFCURVE",
"306 708 OFFCURVE",
"198 708 CURVE SMOOTH",
"90 708 OFFCURVE",
"31 644 OFFCURVE",
"31 532 CURVE SMOOTH"
);
},
{
closed = 1;
nodes = (
"83 819 LINE",
"83 741 LINE",
"313 741 LINE",
"313 819 LINE"
);
}
);
width = 396;
}
);
leftKerningGroup = O;
note = Omacron;
rightKerningGroup = O;
unicode = 014C;
},
{
glyphname = omacron;
lastChange = "2016-06-17 01:02:07 +0000";
layers = (
{
layerId = "26058A5B-27B8-4A86-A50F-6474302A7C9F";
paths = (
{
closed = 1;
nodes = (
"141 539 LINE SMOOTH",
"141 589 OFFCURVE",
"163 608 OFFCURVE",
"198 608 CURVE SMOOTH",
"233 608 OFFCURVE",
"255 589 OFFCURVE",
"255 539 CURVE SMOOTH",
"255 161 LINE SMOOTH",
"255 111 OFFCURVE",
"233 92 OFFCURVE",
"198 92 CURVE SMOOTH",
"163 92 OFFCURVE",
"141 111 OFFCURVE",
"141 161 CURVE SMOOTH"
);
},
{
closed = 1;
nodes = (
"31 168 LINE SMOOTH",
"31 56 OFFCURVE",
"90 -8 OFFCURVE",
"198 -8 CURVE SMOOTH",
"306 -8 OFFCURVE",
"365 56 OFFCURVE",
"365 168 CURVE SMOOTH",
"365 532 LINE SMOOTH",
"365 644 OFFCURVE",
"306 708 OFFCURVE",
"198 708 CURVE SMOOTH",
"90 708 OFFCURVE",
"31 644 OFFCURVE",
"31 532 CURVE SMOOTH"
);
},
{
closed = 1;
nodes = (
"83 819 LINE",
"83 741 LINE",
"313 741 LINE",
"313 819 LINE"
);
}
);
width = 396;
}
);
leftKerningGroup = o;
note = omacron;
rightKerningGroup = o;
unicode = 014D;
},
